<?xml version="1.0" encoding="utf-8"?>
<!-- Generator: Adobe Illustrator 16.0.0, SVG Export Plug-In . SVG Version: 6.00 Build 0)  -->
<!DOCTYPE svg PUBLIC "-//W3C//DTD SVG 1.1//EN" "http://www.w3.org/Graphics/SVG/1.1/DTD/svg11.dtd">
<svg version="1.1" id="Layer_1" xmlns="http://www.w3.org/2000/svg" xmlns:xlink="http://www.w3.org/1999/xlink" x="0px" y="0px"
	 width="102px" height="181.439px" viewBox="0 0 102 181.439" enable-background="new 0 0 102 181.439" xml:space="preserve">
<g id="COR_0_x25_">
	<path fill="#5D4F99" d="M17.333,20.073H1.396V4.725h15.938L17.333,20.073L17.333,20.073z M14.141,12.628
		c0.678-0.543,1.825-1.084,2.715-1.146c-1.242-2.846-3.769-4.88-6.75-5.193L9.369,5.281L8.615,6.279
		c-3.033,0.271-5.61,2.317-6.869,5.2c0.927,0.049,1.781,0.403,2.481,0.976l0.339,0.149c0.644-0.386,1.38-0.606,2.165-0.606
		c0.883,0,1.707,0.45,2.403,0.93h0.443c0.704-0.491,1.461-0.93,2.356-0.93C12.735,11.996,13.487,12.227,14.141,12.628z"/>
	<g id="Layer_56">
		<path fill="none" stroke="#FFFFFF" stroke-width="0.25" stroke-miterlimit="10" d="M11.934,11.996c0.802,0,1.553,0.23,2.207,0.632
			c0.678-0.543,1.825-1.084,2.715-1.146c-1.242-2.846-3.769-4.88-6.75-5.193L9.369,5.281L8.615,6.279
			c-3.033,0.271-5.61,2.317-6.869,5.2c0.927,0.049,1.781,0.403,2.481,0.976l0.339,0.149c0.644-0.386,1.38-0.606,2.165-0.606
			c0.883,0,1.707,0.45,2.403,0.93h0.443C10.282,12.434,11.039,11.996,11.934,11.996z"/>
	</g>
	<path fill="#FFFFFF" d="M9.134,12.926v5.635c0,0.495,0.161,0.914,0.466,1.209c0.275,0.268,0.648,0.412,1.049,0.412
		c0.753,0,1.515-0.532,1.515-1.553h-0.443c0,0.787-0.555,1.145-1.072,1.145c-0.278,0-0.537-0.103-0.728-0.285
		C9.696,19.27,9.578,18.95,9.578,18.56v-5.635H9.134z"/>
</g>
</svg>
