<?xml version="1.0" encoding="utf-8"?>
<!-- Generator: Adobe Illustrator 16.0.0, SVG Export Plug-In . SVG Version: 6.00 Build 0)  -->
<!DOCTYPE svg PUBLIC "-//W3C//DTD SVG 1.1 Tiny//EN" "http://www.w3.org/Graphics/SVG/1.1/DTD/svg11-tiny.dtd">
<svg version="1.1" baseProfile="tiny" id="Layer_1" xmlns="http://www.w3.org/2000/svg" xmlns:xlink="http://www.w3.org/1999/xlink"
	 x="0px" y="0px" width="102px" height="181.439px" viewBox="0 0 102 181.439" xml:space="preserve">
<g id="Clear_Day">
	<g>
		<path fill="#FFFFFF" d="M37.948,40.029c0.302-1.367,0.838-2.644,1.569-3.784l-6.106-0.313L37.948,40.029z M59.365,48.901
			l6.107,0.313l-4.537-4.095C60.633,46.484,60.098,47.757,59.365,48.901z M55.77,32.647l0.313-6.105l-4.097,4.535
			C53.354,31.379,54.629,31.916,55.77,32.647z M65.473,35.93l-6.107,0.313c0.732,1.143,1.27,2.417,1.57,3.784L65.473,35.93z
			 M43.113,32.647c1.143-0.73,2.417-1.269,3.783-1.569l-4.093-4.535L43.113,32.647z M33.411,49.213l6.106-0.313
			c-0.73-1.145-1.267-2.416-1.569-3.783L33.411,49.213z"/>
		<circle fill="none" stroke="#FFFFFF" stroke-width="0.25" stroke-miterlimit="10" cx="49.441" cy="42.573" r="9.466"/>
	</g>
</g>
</svg>
