<?xml version="1.0" encoding="utf-8"?>
<!-- Generator: Adobe Illustrator 16.0.0, SVG Export Plug-In . SVG Version: 6.00 Build 0)  -->
<!DOCTYPE svg PUBLIC "-//W3C//DTD SVG 1.1 Tiny//EN" "http://www.w3.org/Graphics/SVG/1.1/DTD/svg11-tiny.dtd">
<svg version="1.1" baseProfile="tiny" id="Layer_1" xmlns="http://www.w3.org/2000/svg" xmlns:xlink="http://www.w3.org/1999/xlink"
	 x="0px" y="0px" width="102px" height="181.439px" viewBox="0 0 102 181.439" xml:space="preserve">
<g id="Clear_Night">
	<g>
		<path fill="#FFFFFF" d="M42.351,48.94c-3.489-3.488-3.489-9.143,0-12.63c1.61-1.612,3.684-2.478,5.792-2.601
			c-3.525-1.092-7.521-0.246-10.313,2.545c-4.01,4.013-4.01,10.516,0,14.526c4.012,4.01,10.516,4.01,14.527,0
			c0.012-0.012,0.021-0.024,0.035-0.037C49.094,52.256,45.066,51.656,42.351,48.94z"/>
		<polygon fill="#FFFFFF" points="59.706,37.232 59.882,40.196 62.754,40.943 59.99,42.027 60.168,44.99 58.281,42.696 
			55.52,43.779 57.118,41.279 55.234,38.985 58.105,39.732 		"/>
		<polygon fill="#FFFFFF" points="55.912,31.708 56.031,33.727 57.99,34.237 56.105,34.976 56.225,36.996 54.941,35.43 
			53.059,36.17 54.146,34.464 52.861,32.902 54.822,33.413 		"/>
	</g>
</g>
</svg>
