<?xml version="1.0" encoding="utf-8"?>
<!-- Generator: Adobe Illustrator 16.0.0, SVG Export Plug-In . SVG Version: 6.00 Build 0)  -->
<!DOCTYPE svg PUBLIC "-//W3C//DTD SVG 1.1//EN" "http://www.w3.org/Graphics/SVG/1.1/DTD/svg11.dtd">
<svg version="1.1" id="Layer_1" xmlns="http://www.w3.org/2000/svg" xmlns:xlink="http://www.w3.org/1999/xlink" x="0px" y="0px"
	 width="102px" height="181.439px" viewBox="0 0 102 181.439" enable-background="new 0 0 102 181.439" xml:space="preserve">
<g id="Light_Drizzle_day_1_">
	<g id="Condition_2_">
		<g>
			<path fill="none" stroke="#FFFFFF" stroke-miterlimit="10" d="M67.493,44.608H67.49c-0.079-2.952-2.498-5.321-5.471-5.321
				c-0.752,0-1.474,0.153-2.129,0.429c-0.392-2.774-2.779-4.909-5.66-4.909c-1.014,0-1.963,0.264-2.79,0.725
				c-1.277-1.507-3.185-2.465-5.316-2.465c-3.598,0-6.558,2.728-6.927,6.228c-0.086-0.003-0.17-0.006-0.256-0.006
				c-2.974,0-5.391,2.37-5.471,5.321h-0.003c0,0.025,0.001,0.052,0.002,0.077c-0.001,0.025-0.002,0.05-0.002,0.076
				c0,3.023,2.451,5.475,5.475,5.475c0.026,0,0.051-0.001,0.077-0.001c0.024,0,0.049,0.001,0.075,0.001H61.87
				c0.022,0,0.05-0.001,0.075-0.001c0.023,0,0.05,0.001,0.074,0.001c3.022,0,5.474-2.449,5.474-5.475
				c0-0.025-0.001-0.051-0.001-0.076C67.492,44.659,67.493,44.634,67.493,44.608z"/>
		</g>
	</g>
	<g>
		<g>
			<path fill="#FFFFFF" d="M47.562,51.013c0,0-1.769,1.246-1.156,1.259C47.072,52.285,47.562,51.013,47.562,51.013z"/>
			<path fill="#FFFFFF" d="M45.609,53.103c0,0-1.77,1.244-1.157,1.257C45.119,54.374,45.609,53.103,45.609,53.103z"/>
			<path fill="#FFFFFF" d="M42.865,52.995c0,0-1.769,1.245-1.157,1.258C42.375,54.267,42.865,52.995,42.865,52.995z"/>
			<path fill="#FFFFFF" d="M44.247,51.094c0,0-1.769,1.246-1.157,1.258C43.757,52.366,44.247,51.094,44.247,51.094z"/>
		</g>
		<g>
			<path fill="#FFFFFF" d="M50.58,51.075c0,0-1.769,1.245-1.156,1.257C50.091,52.345,50.58,51.075,50.58,51.075z"/>
			<path fill="#FFFFFF" d="M48.627,53.163c0,0-1.77,1.246-1.157,1.257C48.138,54.434,48.627,53.163,48.627,53.163z"/>
		</g>
		<g>
			<path fill="#FFFFFF" d="M53.598,51.135c0,0-1.768,1.245-1.154,1.259C53.107,52.406,53.598,51.135,53.598,51.135z"/>
			<path fill="#FFFFFF" d="M56.426,51.068c0,0-1.768,1.245-1.156,1.258C55.936,52.339,56.426,51.068,56.426,51.068z"/>
			<path fill="#FFFFFF" d="M51.646,53.224c0,0-1.771,1.245-1.158,1.258C51.155,54.495,51.646,53.224,51.646,53.224z"/>
			<path fill="#FFFFFF" d="M54.559,53.155c0,0-1.77,1.246-1.156,1.258C54.068,54.426,54.559,53.155,54.559,53.155z"/>
		</g>
	</g>
</g>
</svg>
