<?xml version="1.0" encoding="utf-8"?>
<!-- Generator: Adobe Illustrator 16.0.0, SVG Export Plug-In . SVG Version: 6.00 Build 0)  -->
<!DOCTYPE svg PUBLIC "-//W3C//DTD SVG 1.1//EN" "http://www.w3.org/Graphics/SVG/1.1/DTD/svg11.dtd">
<svg version="1.1" id="Layer_1" xmlns="http://www.w3.org/2000/svg" xmlns:xlink="http://www.w3.org/1999/xlink" x="0px" y="0px"
	 width="102px" height="181.439px" viewBox="0 0 102 181.439" enable-background="new 0 0 102 181.439" xml:space="preserve">
<g id="Feels_like_smiley_1_">
	<path id="Feels_like_smiley" fill="#FFFFFF" d="M51.518,5.135c-2.614,0-4.73,2.118-4.73,4.731s2.118,4.73,4.73,4.73
		c2.613,0,4.73-2.117,4.73-4.73S54.131,5.135,51.518,5.135z M53.305,8.641c0,0.403-0.23,0.729-0.513,0.729s-0.513-0.326-0.513-0.729
		c0-0.402,0.23-0.729,0.513-0.729S53.305,8.239,53.305,8.641z M50.4,8.641c0,0.403-0.23,0.729-0.513,0.729
		c-0.283,0-0.513-0.326-0.513-0.729c0-0.402,0.23-0.729,0.513-0.729C50.17,7.912,50.4,8.239,50.4,8.641z M53.305,11.62l-1.833,1.208
		l-1.833-1.208H53.305z"/>
</g>
</svg>
