<?xml version="1.0" encoding="utf-8"?>
<!-- Generator: Adobe Illustrator 16.0.0, SVG Export Plug-In . SVG Version: 6.00 Build 0)  -->
<!DOCTYPE svg PUBLIC "-//W3C//DTD SVG 1.1//EN" "http://www.w3.org/Graphics/SVG/1.1/DTD/svg11.dtd">
<svg version="1.1" id="Layer_1" xmlns="http://www.w3.org/2000/svg" xmlns:xlink="http://www.w3.org/1999/xlink" x="0px" y="0px"
	 width="102px" height="181.439px" viewBox="0 0 102 181.439" enable-background="new 0 0 102 181.439" xml:space="preserve">
<g id="Fog_day">
	<g id="Condition_6_">
		<g>
			<path opacity="0.3" fill="#FFFFFF" stroke="#FFFFFF" stroke-miterlimit="10" enable-background="new    " d="M67.807,44.584
				h-0.004c-0.08-2.953-2.498-5.323-5.472-5.323c-0.753,0-1.474,0.154-2.127,0.43c-0.396-2.775-2.781-4.908-5.664-4.908
				c-1.013,0-1.963,0.263-2.788,0.723c-1.278-1.508-3.184-2.467-5.316-2.467c-3.598,0-6.559,2.729-6.928,6.229
				c-0.084-0.005-0.17-0.007-0.256-0.007c-2.973,0-5.39,2.37-5.471,5.323h-0.004c0,0.026,0.001,0.052,0.002,0.077
				c-0.001,0.026-0.002,0.05-0.002,0.077c0,3.022,2.45,5.475,5.474,5.475c0.026,0,0.052-0.002,0.077-0.002s0.05,0.002,0.076,0.002
				h22.778c0.023,0,0.051-0.002,0.075-0.002c0.022,0,0.052,0.002,0.075,0.002c3.021,0,5.475-2.451,5.475-5.475
				c0-0.027-0.002-0.051-0.002-0.077C67.805,44.635,67.807,44.61,67.807,44.584z"/>
			<path fill="none" stroke="#FFFFFF" stroke-miterlimit="10" d="M67.807,44.584h-0.004c-0.08-2.953-2.498-5.323-5.472-5.323
				c-0.753,0-1.474,0.154-2.127,0.43c-0.396-2.775-2.781-4.908-5.664-4.908c-1.013,0-1.963,0.263-2.788,0.723
				c-1.278-1.508-3.184-2.467-5.316-2.467c-3.598,0-6.559,2.729-6.928,6.229c-0.084-0.005-0.17-0.007-0.256-0.007
				c-2.973,0-5.39,2.37-5.471,5.323h-0.004c0,0.026,0.001,0.052,0.002,0.077c-0.001,0.026-0.002,0.05-0.002,0.077
				c0,3.022,2.45,5.475,5.474,5.475c0.026,0,0.052-0.002,0.077-0.002s0.05,0.002,0.076,0.002h22.778
				c0.023,0,0.051-0.002,0.075-0.002c0.022,0,0.052,0.002,0.075,0.002c3.021,0,5.475-2.451,5.475-5.475
				c0-0.027-0.002-0.051-0.002-0.077C67.805,44.635,67.807,44.61,67.807,44.584z"/>
		</g>
	</g>
	<g>
		<polygon fill="#FFFFFF" points="51.042,52.845 62.822,41.789 51.766,53.568 		"/>
	</g>
	<circle fill="none" stroke="#FFFFFF" stroke-width="0.5" stroke-miterlimit="10" cx="51.403" cy="53.206" r="1.786"/>
	<polygon fill="#FFFFFF" points="56.706,47.273 62.273,41.96 62.141,41.521 56.148,47.214 	"/>
</g>
</svg>
