<?xml version="1.0" encoding="utf-8"?>
<!-- Generator: Adobe Illustrator 16.0.0, SVG Export Plug-In . SVG Version: 6.00 Build 0)  -->
<!DOCTYPE svg PUBLIC "-//W3C//DTD SVG 1.1//EN" "http://www.w3.org/Graphics/SVG/1.1/DTD/svg11.dtd">
<svg version="1.1" id="Layer_1" xmlns="http://www.w3.org/2000/svg" xmlns:xlink="http://www.w3.org/1999/xlink" x="0px" y="0px"
	 width="102px" height="181.439px" viewBox="0 0 102 181.439" enable-background="new 0 0 102 181.439" xml:space="preserve">
<g id="Haze_Night">
	<g id="Condition_15_">
		<g>
			<path fill="none" stroke="#FFFFFF" stroke-miterlimit="10" d="M67.203,44.771h-0.006c-0.078-2.938-2.48-5.288-5.434-5.288
				c-0.75,0-1.468,0.149-2.115,0.427c-0.394-2.758-2.762-4.876-5.625-4.876c-1.008,0-1.953,0.261-2.772,0.72
				c-1.269-1.498-3.163-2.449-5.282-2.449c-3.574,0-6.515,2.71-6.883,6.188c-0.084-0.003-0.167-0.007-0.254-0.007
				c-2.953,0-5.356,2.354-5.436,5.288h-0.003c0,0.022,0.001,0.05,0.002,0.076c-0.001,0.021-0.002,0.049-0.002,0.071
				c0,3.004,2.435,5.439,5.44,5.439c0.026,0,0.05-0.002,0.075-0.002c0.025,0,0.05,0.002,0.074,0.002h22.629
				c0.023,0,0.049-0.002,0.074-0.002c0.021,0,0.051,0.002,0.076,0.002c3.002,0,5.438-2.438,5.438-5.439
				c0-0.022-0.002-0.051-0.002-0.071C67.197,44.823,67.203,44.798,67.203,44.771z"/>
		</g>
	</g>
	<g>
		<path fill="#FFFFFF" d="M72.197,50.998h0.004v0.03c0,0-0.504,0.083-1.17,0.104c-0.168,0.005-0.408,0.011-0.602,0.005
			c-0.193-0.007-0.395-0.027-0.602-0.049c-0.209-0.019-0.424-0.034-0.643-0.032c-0.222-0.002-0.439,0.017-0.664,0.034
			c-0.221,0.022-0.441,0.042-0.66,0.049c-0.219,0.005-0.43,0.015-0.639,0.021c-0.416,0.01-0.795-0.001-1.129-0.021
			c-0.332-0.018-0.589-0.048-0.783-0.068c-0.197-0.024-0.265-0.043-0.265-0.043v-0.028c0,0,0.071-0.019,0.265-0.043
			c0.195-0.021,0.43-0.05,0.764-0.071c0.334-0.019,0.725-0.035,1.141-0.02c0.209,0.005,0.426,0.012,0.646,0.021
			c0.222,0.006,0.439,0.027,0.666,0.048c0.226,0.017,0.447,0.036,0.668,0.034c0.215,0.002,0.438-0.012,0.646-0.033
			c0.209-0.019,0.426-0.043,0.615-0.048c0.191-0.008,0.4,0,0.568,0.003c0.666,0.022,1.172,0.106,1.172,0.106V50.998z"/>
	</g>
	<g>
		<path fill="#FFFFFF" d="M69.131,50.945c0.043,0.008,0.094,0.012,0.158,0.004c0.066-0.005,0.137-0.007,0.213-0.035
			c0.157-0.033,0.336-0.134,0.489-0.295c0.151-0.164,0.274-0.397,0.276-0.678c0.004-0.272-0.127-0.572-0.377-0.762
			c-0.248-0.18-0.621-0.254-0.924-0.084c-0.303,0.147-0.502,0.509-0.443,0.86c0.061,0.353,0.391,0.634,0.752,0.626
			c0.357,0.002,0.682-0.318,0.678-0.677c0-0.169-0.076-0.347-0.203-0.458c-0.125-0.117-0.297-0.182-0.466-0.165
			c-0.163,0.01-0.319,0.098-0.413,0.229c-0.049,0.068-0.08,0.145-0.1,0.217c-0.017,0.081-0.019,0.155,0.002,0.229
			c0.062,0.309,0.414,0.483,0.666,0.379c0.258-0.092,0.375-0.393,0.291-0.596c-0.078-0.212-0.289-0.313-0.446-0.291
			c-0.164,0.014-0.265,0.12-0.31,0.188c-0.049,0.072-0.051,0.123-0.056,0.12c0.005,0.003,0.007-0.048,0.052-0.122
			c0.045-0.068,0.143-0.177,0.312-0.195c0.163-0.024,0.388,0.067,0.476,0.293c0.092,0.219-0.025,0.537-0.303,0.642
			c-0.281,0.114-0.65-0.071-0.727-0.405c-0.024-0.081-0.021-0.172-0.004-0.249c0.02-0.088,0.053-0.163,0.104-0.234
			c0.098-0.146,0.266-0.24,0.453-0.259c0.367-0.036,0.736,0.287,0.729,0.686c0.008,0.384-0.338,0.744-0.738,0.742
			c-0.393,0.004-0.754-0.306-0.813-0.688c-0.061-0.378,0.156-0.768,0.48-0.92c0.326-0.174,0.717-0.091,0.977,0.097
			c0.258,0.203,0.395,0.515,0.389,0.802c-0.004,0.277-0.141,0.531-0.299,0.688c-0.162,0.162-0.346,0.26-0.506,0.29
			c-0.078,0.026-0.152,0.027-0.215,0.029c-0.063,0.008-0.117,0.002-0.16-0.007c-0.086-0.014-0.133-0.021-0.133-0.021
			S69.039,50.93,69.131,50.945z"/>
	</g>
	<g>
		<path fill="#FFFFFF" d="M74.529,47.793h0.004v0.03c0,0-0.504,0.083-1.17,0.104c-0.168,0.005-0.408,0.011-0.602,0.005
			c-0.193-0.007-0.395-0.027-0.602-0.049c-0.209-0.019-0.424-0.034-0.643-0.032c-0.222-0.002-0.439,0.017-0.664,0.034
			c-0.221,0.022-0.441,0.042-0.66,0.049c-0.219,0.005-0.43,0.015-0.639,0.021c-0.416,0.01-0.795-0.001-1.129-0.021
			c-0.332-0.018-0.589-0.048-0.783-0.068c-0.197-0.024-0.265-0.043-0.265-0.043v-0.028c0,0,0.071-0.019,0.265-0.043
			c0.195-0.021,0.43-0.05,0.764-0.071c0.334-0.019,0.725-0.035,1.141-0.02c0.209,0.005,0.426,0.012,0.646,0.021
			c0.222,0.006,0.439,0.027,0.666,0.048c0.226,0.017,0.447,0.036,0.668,0.034c0.215,0.002,0.438-0.012,0.646-0.033
			c0.209-0.019,0.426-0.043,0.615-0.048c0.191-0.008,0.4,0,0.568,0.003c0.666,0.022,1.172,0.106,1.172,0.106V47.793z"/>
	</g>
	<g>
		<path fill="#FFFFFF" d="M71.463,47.74c0.043,0.008,0.094,0.012,0.158,0.004c0.066-0.005,0.137-0.007,0.213-0.035
			c0.157-0.033,0.336-0.134,0.489-0.295c0.151-0.164,0.274-0.397,0.276-0.678c0.004-0.272-0.127-0.572-0.377-0.762
			c-0.248-0.18-0.621-0.254-0.924-0.084c-0.303,0.147-0.502,0.509-0.443,0.86c0.061,0.353,0.391,0.634,0.752,0.626
			c0.357,0.002,0.682-0.318,0.678-0.677c0-0.169-0.076-0.347-0.203-0.458c-0.125-0.117-0.297-0.182-0.466-0.165
			c-0.163,0.01-0.319,0.098-0.413,0.229c-0.049,0.068-0.08,0.145-0.1,0.217c-0.017,0.081-0.019,0.155,0.002,0.229
			c0.062,0.309,0.414,0.483,0.666,0.379c0.258-0.092,0.375-0.393,0.291-0.596c-0.078-0.212-0.289-0.313-0.446-0.291
			c-0.164,0.014-0.265,0.12-0.31,0.188c-0.049,0.072-0.051,0.123-0.056,0.12c0.005,0.003,0.007-0.048,0.052-0.122
			c0.045-0.068,0.143-0.177,0.312-0.195c0.163-0.024,0.388,0.067,0.476,0.293c0.092,0.219-0.025,0.537-0.303,0.642
			c-0.281,0.114-0.65-0.071-0.727-0.405c-0.024-0.081-0.021-0.172-0.004-0.249c0.02-0.088,0.053-0.163,0.104-0.234
			c0.098-0.146,0.266-0.24,0.453-0.259c0.367-0.036,0.736,0.287,0.729,0.686c0.008,0.384-0.338,0.744-0.738,0.742
			c-0.393,0.004-0.754-0.306-0.813-0.688c-0.061-0.378,0.156-0.768,0.48-0.92c0.326-0.174,0.717-0.091,0.977,0.097
			c0.258,0.203,0.395,0.515,0.389,0.802c-0.004,0.277-0.141,0.531-0.299,0.688c-0.162,0.162-0.346,0.26-0.506,0.29
			c-0.078,0.026-0.152,0.027-0.215,0.029c-0.063,0.008-0.117,0.002-0.16-0.007c-0.086-0.014-0.133-0.021-0.133-0.021
			S71.371,47.725,71.463,47.74z"/>
	</g>
	<g>
		<path fill="#FFFFFF" d="M25.763,47.896c0,0,0.504-0.084,1.171-0.107c0.167-0.003,0.377-0.01,0.568-0.003
			c0.191,0.005,0.407,0.03,0.616,0.048c0.208,0.022,0.431,0.035,0.649,0.034c0.22,0.001,0.445-0.018,0.668-0.035
			c0.223-0.02,0.447-0.042,0.666-0.048c0.219-0.008,0.435-0.015,0.644-0.021c0.416-0.016,0.807,0.001,1.14,0.021
			c0.334,0.021,0.568,0.05,0.764,0.071c0.194,0.021,0.263,0.043,0.263,0.043v0.027c0,0-0.067,0.02-0.263,0.043
			c-0.195,0.021-0.451,0.052-0.784,0.068c-0.334,0.021-0.712,0.032-1.129,0.021c-0.208-0.008-0.419-0.019-0.638-0.022
			c-0.219-0.007-0.439-0.026-0.661-0.048c-0.223-0.019-0.443-0.037-0.663-0.035c-0.219-0.002-0.434,0.013-0.642,0.033
			c-0.208,0.02-0.409,0.042-0.601,0.048c-0.192,0.006-0.432,0-0.599-0.004c-0.666-0.021-1.17-0.104-1.17-0.104L25.763,47.896
			L25.763,47.896z"/>
	</g>
	<g>
		<path fill="#FFFFFF" d="M28.966,47.823c0,0-0.046,0.007-0.132,0.021c-0.044,0.01-0.096,0.016-0.16,0.008
			c-0.063-0.002-0.137-0.004-0.215-0.029c-0.161-0.031-0.345-0.128-0.507-0.29c-0.158-0.158-0.295-0.412-0.297-0.689
			c-0.006-0.287,0.129-0.599,0.388-0.802c0.259-0.188,0.651-0.271,0.975-0.096c0.325,0.151,0.542,0.542,0.481,0.92
			c-0.058,0.382-0.421,0.691-0.811,0.688c-0.402,0.002-0.747-0.357-0.741-0.741c-0.006-0.399,0.365-0.725,0.732-0.687
			c0.184,0.02,0.352,0.113,0.453,0.259c0.049,0.071,0.084,0.147,0.104,0.234c0.015,0.078,0.018,0.168-0.005,0.249
			c-0.076,0.334-0.446,0.52-0.724,0.406c-0.279-0.105-0.397-0.423-0.303-0.644c0.088-0.224,0.314-0.315,0.475-0.293
			c0.167,0.021,0.265,0.127,0.309,0.196c0.046,0.075,0.048,0.125,0.052,0.123c-0.004,0.002-0.007-0.048-0.054-0.121
			c-0.045-0.067-0.145-0.173-0.309-0.188c-0.158-0.021-0.369,0.079-0.448,0.291c-0.083,0.203,0.034,0.505,0.292,0.597
			c0.251,0.104,0.603-0.071,0.666-0.379c0.019-0.074,0.017-0.149,0.002-0.232c-0.019-0.07-0.052-0.146-0.098-0.215
			c-0.094-0.13-0.25-0.218-0.414-0.229c-0.168-0.017-0.34,0.049-0.465,0.165c-0.127,0.111-0.203,0.289-0.203,0.458
			c-0.004,0.358,0.32,0.68,0.675,0.678c0.363,0.008,0.694-0.274,0.753-0.626c0.057-0.354-0.14-0.714-0.445-0.861
			c-0.302-0.169-0.674-0.095-0.923,0.084c-0.249,0.19-0.38,0.49-0.377,0.761c0.003,0.281,0.126,0.516,0.278,0.68
			c0.153,0.16,0.332,0.262,0.49,0.295c0.076,0.026,0.148,0.029,0.212,0.034c0.063,0.009,0.116,0.005,0.159-0.004
			C28.921,47.829,28.966,47.823,28.966,47.823z"/>
	</g>
	<g>
		<path fill="#FFFFFF" d="M28.31,51.302c0,0,0.504-0.084,1.171-0.106c0.167-0.003,0.377-0.01,0.568-0.003
			c0.191,0.005,0.407,0.029,0.616,0.048c0.208,0.021,0.431,0.035,0.649,0.034c0.22,0.001,0.445-0.019,0.668-0.035
			c0.223-0.021,0.447-0.042,0.666-0.048c0.219-0.008,0.435-0.016,0.644-0.021c0.416-0.016,0.807,0.001,1.14,0.021
			c0.334,0.021,0.568,0.05,0.764,0.07c0.194,0.021,0.263,0.043,0.263,0.043v0.028c0,0-0.067,0.02-0.263,0.043
			c-0.195,0.021-0.451,0.051-0.784,0.068c-0.334,0.021-0.712,0.032-1.129,0.021c-0.208-0.007-0.419-0.018-0.638-0.021
			c-0.219-0.007-0.439-0.026-0.661-0.048c-0.223-0.019-0.443-0.037-0.663-0.035c-0.219-0.002-0.434,0.013-0.642,0.033
			c-0.208,0.02-0.409,0.042-0.601,0.048s-0.432,0-0.599-0.004c-0.666-0.021-1.17-0.104-1.17-0.104L28.31,51.302L28.31,51.302z"/>
	</g>
	<g>
		<path fill="#FFFFFF" d="M31.513,51.229c0,0-0.046,0.007-0.132,0.021c-0.044,0.009-0.096,0.015-0.16,0.007
			c-0.063-0.002-0.137-0.003-0.215-0.028c-0.161-0.031-0.345-0.128-0.507-0.29c-0.158-0.158-0.295-0.412-0.297-0.689
			c-0.006-0.287,0.129-0.599,0.388-0.802c0.259-0.188,0.651-0.271,0.975-0.096c0.325,0.151,0.542,0.542,0.481,0.92
			c-0.058,0.382-0.421,0.691-0.811,0.688c-0.402,0.002-0.747-0.357-0.741-0.742c-0.006-0.398,0.365-0.724,0.732-0.686
			c0.184,0.019,0.352,0.113,0.453,0.259c0.049,0.071,0.084,0.147,0.104,0.234c0.015,0.078,0.019,0.168-0.005,0.249
			c-0.076,0.334-0.446,0.52-0.724,0.405c-0.279-0.104-0.397-0.423-0.303-0.643c0.088-0.224,0.314-0.316,0.475-0.293
			c0.167,0.02,0.265,0.127,0.309,0.196c0.046,0.074,0.048,0.125,0.052,0.123c-0.004,0.002-0.007-0.049-0.054-0.121
			c-0.045-0.067-0.145-0.173-0.309-0.188c-0.158-0.021-0.369,0.079-0.448,0.291c-0.083,0.203,0.034,0.504,0.292,0.596
			c0.251,0.104,0.603-0.07,0.666-0.379c0.019-0.073,0.017-0.148,0.002-0.231c-0.019-0.07-0.052-0.146-0.098-0.215
			c-0.094-0.13-0.25-0.219-0.414-0.229c-0.168-0.017-0.34,0.048-0.465,0.165c-0.127,0.111-0.203,0.289-0.203,0.458
			c-0.004,0.358,0.32,0.679,0.675,0.677c0.363,0.009,0.694-0.273,0.753-0.626c0.057-0.354-0.14-0.713-0.445-0.86
			c-0.302-0.169-0.674-0.096-0.923,0.084c-0.249,0.189-0.38,0.489-0.377,0.761c0.003,0.281,0.126,0.515,0.278,0.679
			c0.153,0.161,0.332,0.263,0.49,0.295c0.076,0.027,0.148,0.03,0.212,0.035c0.063,0.008,0.116,0.004,0.159-0.004
			C31.468,51.235,31.513,51.229,31.513,51.229z"/>
	</g>
</g>
</svg>
