<?xml version="1.0" encoding="utf-8"?>
<!-- Generator: Adobe Illustrator 16.0.0, SVG Export Plug-In . SVG Version: 6.00 Build 0)  -->
<!DOCTYPE svg PUBLIC "-//W3C//DTD SVG 1.1//EN" "http://www.w3.org/Graphics/SVG/1.1/DTD/svg11.dtd">
<svg version="1.1" id="Layer_1" xmlns="http://www.w3.org/2000/svg" xmlns:xlink="http://www.w3.org/1999/xlink" x="0px" y="0px"
	 width="102px" height="181.439px" viewBox="0 0 102 181.439" enable-background="new 0 0 102 181.439" xml:space="preserve">
<g id="Mostly_cloudy_day">
	<g id="Condition_4_">
		<g>
			<path fill="none" stroke="#FFFFFF" stroke-miterlimit="10" d="M66.873,44.845h-0.004c-0.078-2.896-2.451-5.223-5.368-5.223
				c-0.739,0-1.444,0.151-2.087,0.421c-0.389-2.723-2.729-4.815-5.559-4.815c-0.994,0-1.926,0.258-2.736,0.71
				c-1.253-1.48-3.125-2.421-5.217-2.421c-3.53,0-6.436,2.677-6.798,6.11c-0.083-0.004-0.167-0.006-0.251-0.006
				c-2.917,0-5.29,2.326-5.369,5.223H33.48c0,0.025,0.001,0.052,0.002,0.076c-0.001,0.025-0.002,0.049-0.002,0.075
				c0,2.966,2.405,5.373,5.372,5.373c0.025,0,0.05-0.002,0.076-0.002c0.024,0,0.049,0.002,0.074,0.002h22.352
				c0.022,0,0.049-0.002,0.074-0.002c0.021,0,0.049,0.002,0.073,0.002c2.966,0,5.372-2.405,5.372-5.373
				c0-0.026-0.002-0.05-0.002-0.075C66.871,44.896,66.873,44.872,66.873,44.845z"/>
		</g>
	</g>
	<path fill="none" stroke="#FFFFFF" stroke-miterlimit="10" d="M59.863,32.763c-0.647-0.23-1.313-0.279-1.944-0.174
		c-0.472-1.253-1.47-2.3-2.83-2.787"/>
	<path fill="none" stroke="#FFFFFF" stroke-miterlimit="10" d="M63.813,37.398c-0.48-0.172-0.976-0.238-1.457-0.211
		c0.383-1.861-0.651-3.766-2.49-4.424"/>
	<path fill="none" stroke="#FFFFFF" stroke-miterlimit="10" d="M66.086,42.04c0.622-1.901-0.379-3.965-2.273-4.643"/>
	<path fill="none" stroke="#FFFFFF" stroke-miterlimit="10" d="M55.089,29.802c-2.295-0.82-4.807,0.245-5.84,2.394
		c-2.296-0.82-5.003-0.247-6.038,1.901"/>
</g>
</svg>
