<?xml version="1.0" encoding="utf-8"?>
<!-- Generator: Adobe Illustrator 16.0.0, SVG Export Plug-In . SVG Version: 6.00 Build 0)  -->
<!DOCTYPE svg PUBLIC "-//W3C//DTD SVG 1.1//EN" "http://www.w3.org/Graphics/SVG/1.1/DTD/svg11.dtd">
<svg version="1.1" id="Layer_1" xmlns="http://www.w3.org/2000/svg" xmlns:xlink="http://www.w3.org/1999/xlink" x="0px" y="0px"
	 width="102px" height="181.439px" viewBox="0 0 102 181.439" enable-background="new 0 0 102 181.439" xml:space="preserve">
<g id="Mostly_Cloudy_night">
	<g id="Condition_12_">
		<g>
			<path fill="none" stroke="#FFFFFF" stroke-miterlimit="10" d="M66.611,44.823h-0.004c-0.078-2.894-2.446-5.215-5.358-5.215
				c-0.737,0-1.442,0.149-2.084,0.42c-0.388-2.719-2.726-4.81-5.55-4.81c-0.991,0-1.924,0.259-2.731,0.709
				c-1.252-1.478-3.12-2.417-5.209-2.417c-3.525,0-6.426,2.674-6.789,6.103c-0.083-0.004-0.167-0.006-0.251-0.006
				c-2.913,0-5.281,2.321-5.36,5.215h-0.004c0,0.024,0.001,0.051,0.002,0.075c-0.001,0.024-0.002,0.049-0.002,0.074
				c0,2.963,2.401,5.364,5.364,5.364c0.025,0,0.05-0.002,0.075-0.002c0.024,0,0.049,0.002,0.074,0.002h22.317
				c0.021,0,0.049-0.002,0.072-0.002s0.051,0.002,0.074,0.002c2.961,0,5.361-2.4,5.361-5.364c0-0.025-0.002-0.05-0.002-0.074
				C66.609,44.872,66.611,44.847,66.611,44.823z"/>
		</g>
	</g>
	<path fill="none" stroke="#FFFFFF" stroke-miterlimit="10" d="M59.613,32.759c-0.646-0.23-1.313-0.279-1.941-0.174
		c-0.47-1.251-1.467-2.296-2.824-2.782"/>
	<path fill="none" stroke="#FFFFFF" stroke-miterlimit="10" d="M63.557,37.385c-0.479-0.172-0.975-0.237-1.453-0.211
		c0.381-1.857-0.652-3.759-2.49-4.416"/>
	<path fill="none" stroke="#FFFFFF" stroke-miterlimit="10" d="M65.827,42.021c0.62-1.898-0.38-3.959-2.271-4.637"/>
	<path fill="none" stroke="#FFFFFF" stroke-miterlimit="10" d="M54.848,29.802c-2.291-0.818-4.8,0.244-5.832,2.39
		c-2.292-0.818-4.995-0.246-6.028,1.898"/>
	<path fill="#FFFFFF" d="M63.057,35.551c0.268,0.005,0.535,0.021,0.807,0.072c0.986,0.189,1.844,0.662,2.5,1.322
		c0.549-0.077,1.078-0.232,1.572-0.458c-1.233-1.286-1.85-3.129-1.488-5.016c0.359-1.884,1.609-3.371,3.23-4.108
		c-0.787-0.82-1.828-1.415-3.029-1.646c-3.088-0.59-6.066,1.437-6.656,4.522c-0.1,0.516-0.123,1.025-0.084,1.523
		C61.551,32.378,62.749,33.836,63.057,35.551z"/>
</g>
</svg>
