<?xml version="1.0" encoding="utf-8"?>
<!-- Generator: Adobe Illustrator 16.0.0, SVG Export Plug-In . SVG Version: 6.00 Build 0)  -->
<!DOCTYPE svg PUBLIC "-//W3C//DTD SVG 1.1//EN" "http://www.w3.org/Graphics/SVG/1.1/DTD/svg11.dtd">
<svg version="1.1" id="Layer_1" xmlns="http://www.w3.org/2000/svg" xmlns:xlink="http://www.w3.org/1999/xlink" x="0px" y="0px"
	 width="102px" height="181.439px" viewBox="0 0 102 181.439" enable-background="new 0 0 102 181.439" xml:space="preserve">
<g id="Overcast">
	<g id="Condition_5_">
		
			<linearGradient id="SVGID_1_" gradientUnits="userSpaceOnUse" x1="-1014.2524" y1="2913.6062" x2="-990.2095" y2="2913.6062" gradientTransform="matrix(1 0 0 1 1057.4097 -2878.1506)">
			<stop  offset="0" style="stop-color:#FFFFFF"/>
			<stop  offset="0.4266" style="stop-color:#FDFDFD"/>
			<stop  offset="0.5803" style="stop-color:#F6F6F6"/>
			<stop  offset="0.6899" style="stop-color:#EBEBEB"/>
			<stop  offset="0.7784" style="stop-color:#DADADA"/>
			<stop  offset="0.8543" style="stop-color:#C4C4C4"/>
			<stop  offset="0.9214" style="stop-color:#A8A8A8"/>
			<stop  offset="0.9808" style="stop-color:#898989"/>
			<stop  offset="1" style="stop-color:#7D7D7D"/>
		</linearGradient>
		<path fill="none" stroke="url(#SVGID_1_)" stroke-miterlimit="10" d="M66.516,41.895c0.623-1.904-0.381-3.972-2.279-4.649
			c-0.481-0.173-0.975-0.239-1.457-0.211c0.382-1.864-0.654-3.771-2.495-4.43c-0.647-0.232-1.315-0.281-1.947-0.175
			c-0.472-1.255-1.472-2.303-2.835-2.791c-2.298-0.821-4.812,0.245-5.848,2.396c-2.299-0.82-5.01-0.247-6.046,1.905"/>
		<g>
			
				<linearGradient id="SVGID_2_" gradientUnits="userSpaceOnUse" x1="-1024.0479" y1="2919.946" x2="-989.6089" y2="2919.946" gradientTransform="matrix(1 0 0 1 1057.4097 -2878.1506)">
				<stop  offset="0" style="stop-color:#FFFFFF"/>
				<stop  offset="0.2893" style="stop-color:#FDFDFD"/>
				<stop  offset="0.4449" style="stop-color:#F5F5F5"/>
				<stop  offset="0.5688" style="stop-color:#E7E7E7"/>
				<stop  offset="0.676" style="stop-color:#D4D4D4"/>
				<stop  offset="0.7724" style="stop-color:#BBBBBB"/>
				<stop  offset="0.861" style="stop-color:#9C9C9C"/>
				<stop  offset="0.942" style="stop-color:#787878"/>
				<stop  offset="1" style="stop-color:#595959"/>
			</linearGradient>
			<path fill="none" stroke="url(#SVGID_2_)" stroke-miterlimit="10" d="M67.301,44.705h-0.005
				c-0.077-2.901-2.452-5.229-5.373-5.229c-0.741,0-1.446,0.15-2.091,0.421c-0.391-2.728-2.734-4.823-5.564-4.823
				c-0.996,0-1.933,0.259-2.742,0.711c-1.254-1.483-3.127-2.425-5.224-2.425c-3.535,0-6.444,2.681-6.808,6.12
				c-0.083-0.004-0.167-0.007-0.251-0.007c-2.922,0-5.297,2.329-5.376,5.23h-0.004c0,0.025,0.001,0.051,0.002,0.076
				c-0.001,0.024-0.002,0.048-0.002,0.075c0,2.971,2.408,5.38,5.38,5.38c0.025,0,0.049-0.002,0.075-0.002
				c0.024,0,0.05,0.002,0.075,0.002h22.381c0.023,0,0.049-0.002,0.076-0.002c0.021,0,0.047,0.002,0.073,0.002
				c2.97,0,5.378-2.409,5.378-5.38c0-0.027-0.003-0.051-0.003-0.075S67.301,44.73,67.301,44.705z"/>
		</g>
	</g>
</g>
</svg>
