<?xml version="1.0" encoding="utf-8"?>
<!-- Generator: Adobe Illustrator 16.0.0, SVG Export Plug-In . SVG Version: 6.00 Build 0)  -->
<!DOCTYPE svg PUBLIC "-//W3C//DTD SVG 1.1//EN" "http://www.w3.org/Graphics/SVG/1.1/DTD/svg11.dtd">
<svg version="1.1" id="Layer_1" xmlns="http://www.w3.org/2000/svg" xmlns:xlink="http://www.w3.org/1999/xlink" x="0px" y="0px"
	 width="102px" height="181.439px" viewBox="0 0 102 181.439" enable-background="new 0 0 102 181.439" xml:space="preserve">
<g id="Partly_Cloudy_night">
	<g id="Condition_11_">
		<g>
			<path fill="none" stroke="#FFFFFF" stroke-miterlimit="10" d="M67.367,44.721h-0.004c-0.08-2.946-2.493-5.312-5.459-5.312
				c-0.752,0-1.471,0.152-2.121,0.428c-0.395-2.77-2.773-4.896-5.651-4.896c-1.011,0-1.959,0.264-2.782,0.723
				c-1.275-1.504-3.178-2.46-5.305-2.46c-3.589,0-6.544,2.722-6.913,6.214c-0.084-0.004-0.17-0.006-0.255-0.006
				c-2.966,0-5.378,2.364-5.458,5.313h-0.004c0,0.024,0.001,0.05,0.003,0.075c-0.001,0.026-0.003,0.051-0.003,0.077
				c0,3.017,2.446,5.462,5.463,5.462c0.025,0,0.051-0.003,0.076-0.003s0.05,0.003,0.075,0.003h22.726
				c0.024,0,0.052-0.003,0.076-0.003s0.05,0.003,0.075,0.003c3.017,0,5.463-2.445,5.463-5.462c0-0.025-0.002-0.051-0.002-0.077
				C67.365,44.772,67.367,44.747,67.367,44.721z"/>
		</g>
	</g>
	<g>
		<path fill="#FFFFFF" d="M59.885,37.362c0.266-0.045,0.532-0.08,0.807-0.08c1.006,0,1.938,0.306,2.705,0.829
			c0.525-0.18,1.02-0.432,1.465-0.744c-1.457-1.034-2.407-2.73-2.407-4.652c0-1.92,0.95-3.618,2.407-4.649
			c-0.93-0.659-2.064-1.048-3.289-1.048c-3.146,0-5.7,2.552-5.7,5.697c0,0.526,0.071,1.034,0.206,1.518
			C57.809,34.525,59.26,35.734,59.885,37.362z"/>
	</g>
	<polygon fill="#FFFFFF" points="50.832,26.958 52.667,26.844 53.125,25.062 53.803,26.772 55.637,26.658 54.221,27.829 
		54.896,29.541 53.346,28.553 51.926,29.726 52.385,27.944 	"/>
	<polygon fill="#FFFFFF" points="47.575,29.589 48.825,29.51 49.139,28.296 49.6,29.463 50.85,29.385 49.884,30.184 50.346,31.35 
		49.287,30.677 48.32,31.476 48.634,30.26 	"/>
</g>
</svg>
