<?xml version="1.0" encoding="utf-8"?>
<!-- Generator: Adobe Illustrator 16.0.0, SVG Export Plug-In . SVG Version: 6.00 Build 0)  -->
<!DOCTYPE svg PUBLIC "-//W3C//DTD SVG 1.1//EN" "http://www.w3.org/Graphics/SVG/1.1/DTD/svg11.dtd">
<svg version="1.1" id="Layer_1" xmlns="http://www.w3.org/2000/svg" xmlns:xlink="http://www.w3.org/1999/xlink" x="0px" y="0px"
	 width="102px" height="181.439px" viewBox="0 0 102 181.439" enable-background="new 0 0 102 181.439" xml:space="preserve">
<g id="Partly_cloudy_day">
	<g>
		<g id="Condition_28_">
			<g>
				<path fill="none" stroke="#FFFFFF" stroke-miterlimit="10" d="M67.488,44.712h-0.004c-0.08-2.951-2.496-5.319-5.467-5.319
					c-0.754,0-1.474,0.152-2.127,0.429c-0.395-2.772-2.777-4.904-5.658-4.904c-1.014,0-1.963,0.263-2.789,0.725
					c-1.277-1.508-3.183-2.466-5.314-2.466c-3.596,0-6.555,2.728-6.924,6.225c-0.084-0.004-0.17-0.006-0.256-0.006
					c-2.971,0-5.387,2.368-5.468,5.319h-0.004c0,0.024,0.001,0.051,0.002,0.076c-0.001,0.025-0.002,0.05-0.002,0.075
					c0,3.021,2.449,5.472,5.472,5.472c0.026,0,0.051-0.002,0.076-0.002c0.025,0,0.05,0.002,0.075,0.002h22.764
					c0.023,0,0.05-0.002,0.074-0.002c0.023,0,0.051,0.002,0.076,0.002c3.021,0,5.471-2.449,5.471-5.472
					c0-0.025-0.002-0.05-0.002-0.075S67.488,44.738,67.488,44.712z"/>
			</g>
		</g>
		<path fill="#FFFFFF" d="M57.105,28.139l-1.922-2.129l0.146,2.865C55.867,28.531,56.465,28.28,57.105,28.139z M65.824,30.417
			l-2.864,0.146c0.343,0.536,0.595,1.135,0.735,1.774L65.824,30.417z M61.418,26.01l-1.923,2.129
			c0.642,0.142,1.239,0.394,1.776,0.736L61.418,26.01z M62.96,36.505l2.864,0.146l-2.129-1.923
			C63.555,35.37,63.303,35.968,62.96,36.505z M52.904,32.34c0.143-0.64,0.396-1.238,0.736-1.774l-2.866-0.146L52.904,32.34z
			 M58.301,29.091c-2.453,0-4.441,1.989-4.441,4.443c0,0.201,0.016,0.399,0.039,0.595c0.469-0.143,0.951-0.225,1.44-0.225
			c2.089,0,3.918,1.329,4.642,3.216c0.268-0.044,0.535-0.08,0.811-0.08c0.077,0,0.152,0.002,0.229,0.006
			c1.049-0.813,1.728-2.083,1.728-3.512C62.744,31.081,60.755,29.091,58.301,29.091z"/>
	</g>
</g>
</svg>
