<?xml version="1.0" encoding="utf-8"?>
<!-- Generator: Adobe Illustrator 16.0.0, SVG Export Plug-In . SVG Version: 6.00 Build 0)  -->
<!DOCTYPE svg PUBLIC "-//W3C//DTD SVG 1.1//EN" "http://www.w3.org/Graphics/SVG/1.1/DTD/svg11.dtd">
<svg version="1.1" id="Layer_1" xmlns="http://www.w3.org/2000/svg" xmlns:xlink="http://www.w3.org/1999/xlink" x="0px" y="0px"
	 width="102px" height="181.439px" viewBox="0 0 102 181.439" enable-background="new 0 0 102 181.439" xml:space="preserve">
<g id="Heavy_Rain_day">
	<g id="Condition_1_">
		<g>
			<path fill="none" stroke="#FFFFFF" stroke-miterlimit="10" d="M67.303,44.586h-0.002c-0.08-2.918-2.472-5.26-5.408-5.26
				c-0.746,0-1.457,0.151-2.104,0.424c-0.388-2.744-2.747-4.853-5.597-4.853c-1,0-1.94,0.26-2.756,0.715
				c-1.263-1.49-3.149-2.438-5.256-2.438c-3.556,0-6.482,2.696-6.848,6.156c-0.084-0.004-0.167-0.006-0.253-0.006
				c-2.939,0-5.329,2.342-5.408,5.26h-0.003c0,0.025,0.001,0.051,0.002,0.076c-0.001,0.025-0.002,0.05-0.002,0.075
				c0,2.989,2.422,5.412,5.413,5.412c0.025,0,0.05-0.001,0.075-0.001c0.023,0,0.049,0.001,0.074,0.001h22.514
				c0.022,0,0.049-0.001,0.075-0.001c0.021,0,0.047,0.001,0.072,0.001c2.987,0,5.41-2.421,5.41-5.412c0-0.025,0-0.05,0-0.075
				C67.301,44.636,67.303,44.611,67.303,44.586z"/>
		</g>
	</g>
	<g>
		<path fill="#FFFFFF" d="M41.541,50.995c0,0-0.771,1.751,0.02,1.753C42.423,52.749,41.541,50.995,41.541,50.995z"/>
		<path fill="#FFFFFF" d="M41.534,53.905c0,0-0.771,1.751,0.02,1.753C42.416,55.66,41.534,53.905,41.534,53.905z"/>
	</g>
	<g>
		<path fill="#FFFFFF" d="M45.444,51.004c0,0-0.771,1.751,0.02,1.753C46.327,52.759,45.444,51.004,45.444,51.004z"/>
		<path fill="#FFFFFF" d="M45.437,53.915c0,0-0.771,1.75,0.021,1.753C46.32,55.67,45.437,53.915,45.437,53.915z"/>
	</g>
	<g>
		<path fill="#FFFFFF" d="M49.346,51.013c0,0-0.771,1.75,0.022,1.754C50.23,52.768,49.346,51.013,49.346,51.013z"/>
		<path fill="#FFFFFF" d="M49.339,53.925c0,0-0.771,1.751,0.022,1.753C50.223,55.678,49.339,53.925,49.339,53.925z"/>
	</g>
	<g>
		<path fill="#FFFFFF" d="M52.791,50.995c0,0-0.771,1.751,0.02,1.753C53.672,52.749,52.791,50.995,52.791,50.995z"/>
		<path fill="#FFFFFF" d="M52.783,53.905c0,0-0.771,1.751,0.02,1.753C53.666,55.66,52.783,53.905,52.783,53.905z"/>
	</g>
	<g>
		<path fill="#FFFFFF" d="M56.693,51.004c0,0-0.771,1.751,0.021,1.753C57.576,52.759,56.693,51.004,56.693,51.004z"/>
		<path fill="#FFFFFF" d="M56.688,53.915c0,0-0.771,1.75,0.021,1.753C57.568,55.67,56.688,53.915,56.688,53.915z"/>
	</g>
	<g>
		<path fill="#FFFFFF" d="M60.596,51.013c0,0-0.771,1.75,0.022,1.754C61.479,52.768,60.596,51.013,60.596,51.013z"/>
		<path fill="#FFFFFF" d="M60.589,53.925c0,0-0.771,1.751,0.022,1.753C61.473,55.678,60.589,53.925,60.589,53.925z"/>
	</g>
</g>
</svg>
