<?xml version="1.0" encoding="utf-8"?>
<!-- Generator: Adobe Illustrator 16.0.0, SVG Export Plug-In . SVG Version: 6.00 Build 0)  -->
<!DOCTYPE svg PUBLIC "-//W3C//DTD SVG 1.1//EN" "http://www.w3.org/Graphics/SVG/1.1/DTD/svg11.dtd">
<svg version="1.1" id="Layer_1" xmlns="http://www.w3.org/2000/svg" xmlns:xlink="http://www.w3.org/1999/xlink" x="0px" y="0px"
	 width="102px" height="181.439px" viewBox="0 0 102 181.439" enable-background="new 0 0 102 181.439" xml:space="preserve">
<g id="Snowing_Night">
	<g id="Condition_13_">
		<g>
			<path fill="none" stroke="#FFFFFF" stroke-miterlimit="10" d="M67.057,44.826h-0.006c-0.078-2.977-2.516-5.366-5.513-5.366
				c-0.761,0-1.483,0.153-2.146,0.434c-0.399-2.799-2.803-4.949-5.709-4.949c-1.021,0-1.979,0.266-2.812,0.729
				c-1.288-1.519-3.209-2.484-5.359-2.484c-3.626,0-6.611,2.75-6.984,6.276c-0.084-0.003-0.17-0.005-0.258-0.005
				c-2.995,0-5.432,2.389-5.514,5.366h-0.004c0,0.026,0.001,0.051,0.002,0.077c-0.001,0.024-0.002,0.05-0.002,0.076
				c0,3.047,2.471,5.52,5.518,5.52c0.026,0,0.052-0.002,0.078-0.002c0.024,0,0.05,0.002,0.075,0.002h22.963
				c0.022,0,0.049-0.002,0.074-0.002c0.023,0,0.049,0.002,0.076,0.002c3.045,0,5.516-2.472,5.516-5.52c0-0.026,0-0.052,0-0.076
				C67.055,44.878,67.057,44.853,67.057,44.826z"/>
		</g>
	</g>
	<g>
		<path fill="#FFFFFF" d="M50.1,51.333c0.008,0,0.01,0,0.014,0.004c0.002,0.032,0.004,0.064,0.006,0.097c0,0,0,0,0.002,0
			c0-0.002,0.002-0.004,0.003-0.005c0.032-0.015,0.049-0.053,0.075-0.073c0.001,0,0.002,0,0.002,0.001
			c0.022,0.016,0.005,0.042-0.004,0.058c-0.012,0.022-0.025,0.045-0.037,0.068c-0.012,0.015-0.023,0.028-0.035,0.043
			c-0.003,0.007,0,0.027,0.003,0.033c0.044-0.024,0.076-0.064,0.11-0.1c0.008,0,0.008,0.002,0.013,0.005
			c0.012,0.028-0.005,0.046-0.018,0.067c-0.028,0.048-0.063,0.09-0.102,0.129c0.001,0.015,0.001,0.029,0.003,0.043
			c0.049-0.012,0.111-0.083,0.146-0.116c0.014,0.001,0.015,0.008,0.022,0.016c-0.001,0.04-0.103,0.147-0.127,0.175
			c-0.013,0.01-0.024,0.021-0.036,0.031c0.001,0.012,0.002,0.022,0.003,0.033c0.051-0.011,0.138-0.09,0.172-0.125
			c0.015-0.015,0.023-0.045,0.051-0.049c0.006,0.006,0.012,0.011,0.019,0.017c0,0.036-0.03,0.063-0.046,0.088
			c-0.05,0.08-0.117,0.154-0.188,0.215c0.007,0.101,0.012,0.203,0.018,0.304c0.076-0.068,0.153-0.136,0.229-0.204
			c-0.011-0.104-0.001-0.229,0.024-0.311c0.006-0.022,0.007-0.059,0.027-0.067c0.008-0.002,0.02,0,0.022,0.006
			c0.011,0.018-0.007,0.091-0.001,0.125c0.006,0.041,0.008,0.074,0.018,0.11c0.004,0.015,0.01,0.028,0.013,0.042
			c0.002,0,0.004-0.001,0.006-0.002c0.008-0.007,0.016-0.014,0.021-0.022c-0.016-0.06,0-0.152,0.012-0.204
			c0.006-0.02,0.004-0.045,0.02-0.054c0.008-0.003,0.018-0.003,0.023,0.004c0,0.02,0,0.038,0,0.057c0,0.042,0.004,0.104,0.023,0.131
			c0.01-0.01,0.02-0.02,0.031-0.028c-0.002-0.063,0.012-0.184,0.037-0.215c0.01-0.003,0.018-0.006,0.027-0.01
			c0.004,0.002,0.004,0.002,0.006,0.005c-0.002,0.024-0.002,0.051-0.004,0.076c0.004,0.024,0.006,0.05,0.01,0.074
			c0.002,0,0.002,0,0.004,0c0.008-0.006,0.014-0.012,0.02-0.019c0.002-0.013,0.002-0.025,0.004-0.038
			c0.008-0.031,0.027-0.121,0.047-0.134c0.008-0.003,0.016-0.006,0.025-0.009c0.01,0.017-0.014,0.085,0,0.115
			c0.002-0.003,0.006-0.006,0.008-0.009c0.027-0.013,0.041-0.051,0.07-0.059c0.002,0.002,0.006,0.005,0.008,0.008c0,0,0,0,0,0.001
			c-0.021,0.025-0.043,0.05-0.066,0.076c0.02,0,0.109,0,0.113,0.005c-0.027,0.073-0.166,0.034-0.197,0.088c0,0,0,0,0,0.001
			c0.016,0.002,0.029,0.005,0.045,0.007c0.031,0.005,0.086-0.008,0.107,0.004c0,0.006,0,0.014,0,0.021
			c-0.023,0.028-0.125,0.037-0.172,0.043c-0.018,0-0.033,0-0.049,0c-0.01,0.011-0.021,0.021-0.029,0.033c0,0,0,0.001,0,0.002
			c0.033,0.005,0.076,0.013,0.115,0.02c0.021,0,0.047,0,0.07,0c0,0.002,0.002,0.004,0.006,0.006
			c-0.002,0.007-0.004,0.015-0.004,0.022c-0.049,0.034-0.182,0.028-0.258,0.027c-0.008,0.01-0.016,0.019-0.021,0.027
			c0.035,0.005,0.076,0.021,0.115,0.027c0.025,0.001,0.053,0.003,0.078,0.004c0.027,0.004,0.064-0.015,0.082,0
			c0.004,0.003,0.008,0.016,0.004,0.023c-0.01,0.022-0.055,0.022-0.082,0.029c-0.09,0.023-0.189,0.022-0.295,0.021
			c-0.067,0.076-0.135,0.15-0.202,0.227v0.001c0.102,0.005,0.201,0.011,0.302,0.017c0.023-0.023,0.047-0.048,0.072-0.071
			c0.041-0.043,0.09-0.083,0.143-0.117c0.02-0.012,0.063-0.048,0.092-0.043c0.004,0.005,0.008,0.009,0.012,0.014
			c0,0.003,0,0.006-0.002,0.011c-0.008,0.02-0.035,0.028-0.049,0.044c-0.039,0.042-0.107,0.111-0.121,0.172
			c0.01,0,0.021,0.001,0.033,0.002c0.037-0.052,0.088-0.094,0.144-0.129c0.012-0.009,0.041-0.041,0.061-0.033
			c0.008,0.002,0.02,0.01,0.014,0.021c-0.006,0.014-0.021,0.021-0.031,0.032c-0.025,0.023-0.072,0.079-0.082,0.116
			c0.014,0,0.027,0.001,0.039,0.002c0.014-0.014,0.027-0.028,0.043-0.042c0.025-0.019,0.055-0.039,0.082-0.058
			c0.027-0.017,0.055-0.036,0.084-0.014c0,0.001,0,0.001,0,0.002c-0.014,0.013-0.027,0.024-0.041,0.037
			c-0.023,0.021-0.043,0.05-0.063,0.077c0,0.001,0,0.002,0.002,0.002c0.012,0.001,0.021,0.004,0.029-0.001
			c0.045-0.021,0.121-0.107,0.182-0.072c0,0.001,0,0.002,0,0.004c-0.021,0.014-0.076,0.056-0.084,0.078
			c0.035,0.001,0.068,0.004,0.104,0.005c0,0.005,0,0.01,0,0.014c-0.033,0.003-0.066,0.005-0.102,0.008
			c0.023,0.03,0.057,0.05,0.078,0.079c0,0.002-0.002,0.005-0.004,0.007c-0.074,0.023-0.127-0.088-0.201-0.08v0.001
			c0.02,0.027,0.039,0.051,0.063,0.075c0.012,0.012,0.023,0.025,0.037,0.037c0.002,0.011-0.01,0.015-0.019,0.019
			c-0.049-0.007-0.109-0.061-0.145-0.087c-0.014-0.014-0.027-0.026-0.041-0.04c-0.014,0.001-0.027,0.002-0.041,0.004
			c0.018,0.038,0.045,0.068,0.07,0.101c0.014,0.018,0.033,0.027,0.047,0.048c-0.002,0.003-0.002,0.005-0.002,0.008
			c-0.008,0.005-0.012,0.01-0.023,0.011c-0.061-0.024-0.107-0.078-0.154-0.117c-0.014-0.016-0.027-0.029-0.041-0.045
			c-0.012,0.001-0.023,0.001-0.035,0.003c0,0.001,0,0.001,0,0.001c0.039,0.063,0.072,0.117,0.123,0.167
			c0.012,0.012,0.053,0.032,0.049,0.053c-0.002,0.009-0.008,0.012-0.014,0.018c-0.039,0-0.064-0.029-0.09-0.045
			c-0.049-0.032-0.096-0.07-0.139-0.11c-0.023-0.025-0.049-0.051-0.072-0.075c-0.014-0.01-0.071,0.005-0.093,0.004
			c-0.071,0.004-0.142,0.007-0.212,0.011c0.009,0.026,0.044,0.049,0.062,0.069c0.046,0.053,0.093,0.105,0.139,0.159
			c0.111-0.001,0.318-0.004,0.38,0.05c-0.002,0.008-0.004,0.016-0.004,0.022c-0.027,0.011-0.07-0.001-0.107,0
			c-0.055,0.002-0.141,0.012-0.174,0.034c0.008,0.009,0.018,0.018,0.025,0.025c0.066-0.004,0.139-0.003,0.195,0.01
			c0.02,0.005,0.053,0.003,0.061,0.019c0.004,0.006,0.004,0.017,0.002,0.023c-0.016,0.006-0.039,0.001-0.059,0.001
			c-0.033,0-0.117,0.009-0.133,0.025c0.01,0.009,0.02,0.02,0.027,0.028c0.07-0.001,0.129,0.007,0.182,0.025
			c0.02,0.007,0.055,0.016,0.043,0.046c-0.051,0-0.107-0.003-0.154,0.006v0.001c0.029,0.049,0.195,0.022,0.201,0.1
			c-0.002,0-0.002,0-0.004,0c-0.014,0.005-0.1-0.018-0.111,0c0.023,0.024,0.045,0.051,0.068,0.075
			c-0.002,0.002-0.004,0.005-0.008,0.008c0,0-0.002,0-0.004,0c-0.023-0.021-0.049-0.044-0.072-0.064c-0.002,0-0.002,0-0.002,0.001
			c-0.002,0.021-0.002,0.042-0.004,0.063c0.002,0.014,0.006,0.037,0.002,0.049c-0.045-0.004-0.055-0.091-0.064-0.133
			c-0.002-0.016-0.002-0.03-0.004-0.045c-0.008-0.006-0.016-0.013-0.023-0.02H50.72c-0.002,0.034-0.008,0.071-0.01,0.109
			c0,0.017,0.006,0.036-0.004,0.043c-0.006-0.001-0.014-0.001-0.02-0.002c-0.029-0.04-0.031-0.107-0.041-0.165
			c-0.006-0.038,0.008-0.044-0.016-0.067c-0.006-0.005-0.01-0.013-0.02-0.015c-0.012,0.034-0.014,0.079-0.02,0.12
			c0,0.021,0,0.042,0,0.062c-0.002,0.002-0.004,0.004-0.006,0.006c-0.037,0-0.029-0.021-0.037-0.052
			c-0.016-0.061-0.016-0.138-0.012-0.207c-0.01-0.008-0.02-0.016-0.027-0.023c-0.002,0-0.002,0-0.004,0.001
			c-0.004,0.015-0.007,0.028-0.011,0.042c-0.006,0.031-0.01,0.063-0.016,0.094c-0.004,0.042,0.008,0.112-0.002,0.142
			c-0.006,0.003-0.018,0.007-0.025,0.003c-0.02-0.01-0.021-0.051-0.027-0.075c-0.011-0.047-0.012-0.104-0.021-0.158
			c0-0.026,0-0.053,0-0.077c-0.004-0.02-0.006-0.046,0-0.063c-0.004-0.013-0.043-0.04-0.055-0.049
			c-0.039-0.035-0.08-0.071-0.118-0.106c-0.017-0.016-0.034-0.041-0.056-0.05c0,0.001-0.001,0.002-0.002,0.003
			c-0.005,0.101-0.01,0.2-0.014,0.301c0.017,0.017,0.035,0.034,0.053,0.052c0.017,0.017,0.033,0.035,0.051,0.052
			c0.027,0.034,0.053,0.066,0.078,0.103c0.018,0.026,0.049,0.06,0.049,0.1c-0.008,0.006-0.011,0.011-0.021,0.013
			c-0.019-0.012-0.028-0.029-0.041-0.045c-0.022-0.021-0.047-0.044-0.07-0.066c-0.033-0.023-0.07-0.042-0.105-0.063
			c-0.002,0-0.002,0-0.003,0.001c-0.001,0.012-0.001,0.023-0.001,0.035c0.053,0.036,0.142,0.134,0.163,0.199
			c-0.003,0.01-0.009,0.019-0.021,0.02c-0.016-0.012-0.025-0.03-0.04-0.043c-0.033-0.029-0.067-0.05-0.106-0.074
			c-0.001,0.001-0.002,0.002-0.002,0.003c-0.001,0.014-0.001,0.025-0.002,0.038c0.015,0.015,0.029,0.029,0.043,0.044
			c0.024,0.031,0.073,0.092,0.082,0.132c0.003,0.015-0.008,0.024-0.014,0.032c0,0-0.002,0-0.004,0
			c-0.029-0.028-0.072-0.092-0.115-0.103c-0.001,0.07,0.115,0.142,0.074,0.21c-0.002,0-0.004-0.001-0.006-0.001
			c-0.015-0.034-0.051-0.053-0.072-0.081c-0.001,0-0.002,0-0.003,0.001c-0.003,0.033-0.005,0.066-0.007,0.101
			c-0.005,0.002-0.01,0.001-0.014-0.001c-0.002-0.031-0.004-0.064-0.006-0.098c-0.001,0-0.002,0-0.002,0
			c-0.018,0.014-0.066,0.073-0.08,0.078c-0.026-0.039,0.033-0.117,0.057-0.148c0.007-0.008,0.014-0.016,0.021-0.023
			c-0.001-0.011-0.001-0.021-0.001-0.032c-0.039,0.012-0.086,0.071-0.113,0.099c-0.006,0-0.007,0-0.01-0.002
			c-0.026-0.058,0.086-0.159,0.116-0.199c-0.001-0.015-0.002-0.028-0.003-0.043c0,0,0,0-0.001,0
			c-0.038,0.016-0.072,0.046-0.101,0.071c-0.016,0.013-0.027,0.041-0.049,0.044c-0.008-0.004-0.011-0.01-0.017-0.016
			c0.001-0.041,0.099-0.146,0.126-0.171c0.012-0.012,0.023-0.021,0.035-0.032c0-0.012,0-0.023-0.001-0.036
			c-0.054,0.014-0.134,0.086-0.169,0.122c-0.012,0.011-0.033,0.057-0.056,0.049c-0.008-0.004-0.012-0.009-0.017-0.015
			c0.006-0.031,0.023-0.052,0.039-0.077c0.055-0.087,0.125-0.154,0.194-0.225c-0.006-0.102-0.011-0.202-0.018-0.304
			c-0.001,0.001-0.002,0.002-0.003,0.003c-0.074,0.066-0.149,0.134-0.225,0.199c0.002,0.106,0.003,0.221-0.022,0.304
			c-0.007,0.024-0.008,0.073-0.036,0.076c-0.026-0.008-0.021-0.035-0.016-0.064c0.014-0.083-0.016-0.159-0.032-0.22
			c-0.011,0.004-0.021,0.016-0.026,0.023c0.002,0.078,0.008,0.202-0.027,0.257c-0.006,0.001-0.016,0.005-0.021,0.003
			c-0.002-0.002-0.005-0.004-0.007-0.007c0.001-0.038-0.001-0.174-0.025-0.184c-0.008,0.01-0.021,0.016-0.026,0.026
			c-0.001,0.022-0.001,0.045-0.002,0.067c-0.008,0.046-0.017,0.164-0.068,0.157c-0.006-0.021,0-0.074,0.002-0.101
			c-0.003-0.018-0.006-0.037-0.01-0.054c-0.008,0.002-0.02,0.011-0.021,0.018c-0.003,0.019-0.006,0.036-0.008,0.055
			c-0.008,0.03-0.018,0.058-0.027,0.085c-0.006,0.019-0.02,0.05-0.044,0.041c0.001-0.035,0.013-0.076,0.003-0.113
			c0,0-0.002,0.001-0.003,0.001c-0.024,0.022-0.05,0.044-0.073,0.066c-0.002,0-0.002,0-0.003,0
			c-0.003-0.002-0.005-0.005-0.007-0.008c0.009-0.031,0.054-0.046,0.064-0.077c-0.021,0-0.102,0.003-0.111-0.002
			c0.006-0.074,0.179-0.037,0.195-0.093h-0.002c-0.027-0.011-0.069-0.009-0.105-0.009c-0.015,0-0.038,0.005-0.045-0.003
			c-0.002-0.006,0.002-0.016,0.003-0.021c0.042-0.029,0.118-0.033,0.177-0.041c0.014,0,0.027,0,0.041,0
			c0.01-0.003,0.027-0.024,0.029-0.034c-0.034-0.008-0.076-0.015-0.115-0.021c-0.021,0-0.045,0-0.068,0
			c-0.002-0.002-0.004-0.004-0.005-0.006c-0.002-0.008,0.001-0.019,0.005-0.024c0.076-0.023,0.161-0.024,0.255-0.023
			c0.007-0.009,0.019-0.017,0.021-0.028c-0.044-0.011-0.094-0.021-0.144-0.029c-0.047-0.007-0.09,0.009-0.129,0
			c-0.002-0.002-0.006-0.006-0.008-0.008c-0.001-0.043,0.047-0.039,0.084-0.048c0.047-0.012,0.104-0.015,0.158-0.021
			c0.045,0,0.092-0.001,0.137-0.001c0.066-0.075,0.135-0.15,0.201-0.227l0,0c-0.103-0.006-0.203-0.011-0.305-0.017
			c-0.018,0.019-0.035,0.036-0.053,0.055c-0.055,0.043-0.1,0.093-0.158,0.132c-0.02,0.013-0.067,0.05-0.094,0.044
			c-0.007-0.005-0.012-0.011-0.014-0.021c0.012-0.018,0.03-0.028,0.047-0.041c0.033-0.027,0.119-0.132,0.127-0.179
			c-0.006,0-0.01,0-0.017-0.001c-0.005,0.001-0.011,0.001-0.017,0.001c-0.013,0.016-0.027,0.03-0.04,0.046
			c-0.036,0.028-0.066,0.06-0.107,0.086c-0.017,0.01-0.034,0.033-0.059,0.028c-0.007-0.005-0.013-0.008-0.015-0.019
			c0.033-0.04,0.105-0.092,0.116-0.15c-0.004,0-0.007,0-0.011,0c-0.01,0-0.019-0.001-0.027-0.002
			c-0.012,0.003-0.023,0.024-0.032,0.032c-0.031,0.025-0.065,0.055-0.101,0.074c-0.021,0.011-0.059,0.033-0.076,0.006
			c0.004-0.014,0.024-0.026,0.035-0.034c0.025-0.021,0.051-0.052,0.066-0.081c0-0.001,0-0.002-0.001-0.002
			c-0.009,0-0.018-0.001-0.026-0.001c-0.014,0.01-0.026,0.021-0.039,0.03c-0.022,0.016-0.048,0.026-0.074,0.039
			c-0.021,0.011-0.048,0.027-0.069,0.005c0-0.001,0-0.002,0-0.004c0.026-0.02,0.067-0.046,0.081-0.076c-0.001,0-0.001,0-0.002,0
			c-0.034-0.002-0.066-0.004-0.101-0.007c0-0.003,0-0.007,0-0.01c0-0.001,0.001-0.003,0.002-0.004
			c0.032-0.001,0.064-0.005,0.098-0.006v-0.001c-0.011-0.012-0.021-0.023-0.031-0.035c-0.016-0.015-0.031-0.028-0.047-0.042
			c0.006-0.016,0.031-0.018,0.045-0.009c0.045,0.025,0.088,0.054,0.128,0.082c0.011,0,0.021,0,0.032-0.001
			c-0.012-0.036-0.099-0.099-0.1-0.12c0.007-0.004,0.014-0.013,0.024-0.011c0.033,0.004,0.116,0.07,0.142,0.091
			c0.012,0.012,0.023,0.023,0.035,0.034c0.015,0,0.028-0.001,0.043-0.001c0-0.001,0-0.002,0.001-0.002
			c-0.021-0.038-0.046-0.071-0.073-0.103c-0.012-0.016-0.041-0.024-0.043-0.049c0.006-0.007,0.012-0.011,0.02-0.016
			c0.02,0.002,0.029,0.016,0.043,0.024c0.047,0.029,0.087,0.065,0.127,0.103c0.01,0.012,0.021,0.023,0.03,0.036
			c0.011,0,0.029,0.001,0.036-0.004c-0.034-0.065-0.076-0.121-0.126-0.171c-0.011-0.011-0.054-0.029-0.046-0.052
			c0.004-0.006,0.01-0.011,0.013-0.016c0.038,0,0.063,0.029,0.088,0.044c0.05,0.031,0.097,0.069,0.137,0.109
			c0.025,0.026,0.051,0.052,0.076,0.078c0.029,0,0.059-0.001,0.087-0.002c0.073-0.004,0.146-0.01,0.219-0.014
			c-0.008-0.021-0.035-0.04-0.05-0.057c-0.051-0.057-0.102-0.114-0.152-0.171c-0.104,0.001-0.197,0.005-0.29-0.02
			c-0.031-0.008-0.068-0.012-0.088-0.032c-0.001-0.013,0.002-0.019,0.006-0.024c0.031-0.008,0.072,0.008,0.112,0.002
			c0.061-0.007,0.116-0.015,0.165-0.033v-0.001c-0.008-0.009-0.015-0.017-0.021-0.024c-0.067,0.004-0.146,0.003-0.203-0.012
			c-0.02-0.005-0.048-0.002-0.056-0.019c-0.002-0.003-0.004-0.012-0.001-0.018c0.003-0.005,0.003-0.005,0.007-0.007
			c0.021,0,0.041,0.001,0.062,0.001c0.044-0.007,0.085-0.014,0.122-0.021c-0.004-0.011-0.018-0.025-0.027-0.032
			c-0.071,0.002-0.22-0.01-0.225-0.066c0-0.001,0.002-0.003,0.003-0.005c0.037,0.001,0.128,0.012,0.152-0.007
			c-0.006-0.007-0.012-0.014-0.019-0.021c-0.043-0.001-0.148-0.028-0.171-0.047c-0.006-0.005-0.011-0.021-0.012-0.029
			c0.006-0.003,0.092,0.002,0.113,0.003c-0.007-0.024-0.05-0.056-0.065-0.078c0-0.001,0-0.002,0-0.004
			c0.002-0.002,0.005-0.004,0.007-0.006c0.021,0.008,0.059,0.048,0.075,0.064c0.001,0,0.002-0.001,0.003-0.001
			c0-0.021-0.002-0.103,0.002-0.11c0.045,0.006,0.056,0.095,0.064,0.138c0,0.012,0.002,0.025,0.003,0.038
			c0.008,0.008,0.015,0.015,0.022,0.022c0,0,0.001-0.002,0.002-0.002c0.003-0.025,0.005-0.055,0.009-0.085c0-0.021,0-0.043,0-0.064
			c0.03-0.011,0.035,0.02,0.042,0.042c0.011,0.036,0.017,0.081,0.022,0.122c0.001,0.019,0.002,0.038,0.002,0.057
			c0.01,0.009,0.02,0.02,0.029,0.028c0.016-0.009,0.021-0.093,0.024-0.118c0.004-0.023-0.007-0.051,0.003-0.069
			c0.006-0.001,0.014-0.001,0.022,0c0.026,0.025,0.044,0.2,0.029,0.256c0.006,0.012,0.018,0.019,0.026,0.025
			c0.001,0,0.002-0.001,0.003-0.001c0.009-0.039,0.023-0.084,0.028-0.127c0.006-0.045-0.008-0.11,0.001-0.146
			c0.002-0.002,0.005-0.005,0.008-0.006c0.006,0,0.013,0,0.02,0c0.021,0.011,0.021,0.049,0.027,0.072
			c0.014,0.058,0.014,0.124,0.023,0.19c0,0.038,0,0.077,0,0.114c0.076,0.067,0.151,0.136,0.227,0.203c0,0,0-0.001,0-0.002
			c0.006-0.101,0.012-0.202,0.018-0.303c-0.02-0.014-0.035-0.034-0.053-0.052c-0.05-0.05-0.097-0.102-0.136-0.161
			c-0.013-0.021-0.048-0.059-0.042-0.091c0.006-0.004,0.011-0.008,0.016-0.014c0.027,0.006,0.036,0.038,0.053,0.054
			c0.049,0.045,0.104,0.099,0.172,0.122v-0.001c0-0.012,0-0.021,0.001-0.031c-0.007-0.014-0.028-0.022-0.039-0.034
			c-0.035-0.035-0.065-0.072-0.093-0.114c-0.008-0.013-0.037-0.039-0.029-0.059c0.004-0.007,0.011-0.016,0.018-0.014
			c0.02,0.007,0.03,0.033,0.046,0.045c0.033,0.025,0.063,0.05,0.103,0.069c0.002,0,0.002-0.001,0.003-0.001
			c0.001-0.014,0.001-0.026,0.001-0.041c-0.043-0.032-0.082-0.088-0.106-0.139c-0.01-0.019-0.029-0.05-0.004-0.066
			c0.012-0.002,0.023,0.021,0.031,0.029c0.021,0.023,0.055,0.063,0.087,0.072c0-0.001,0-0.002,0-0.003
			c0.013-0.028-0.017-0.048-0.026-0.063c-0.023-0.032-0.071-0.104-0.048-0.146c0.003,0.001,0.006,0.001,0.008,0.003
			c0.013,0.026,0.048,0.064,0.073,0.08C50.096,51.403,50.098,51.368,50.1,51.333z"/>
	</g>
	<g>
		<path fill="#FFFFFF" d="M47.709,51.786c0.004,0,0.006,0,0.008,0.002c0.001,0.019,0.002,0.038,0.004,0.057l0,0
			c0.002,0,0.002-0.002,0.003-0.002c0.019-0.009,0.028-0.03,0.044-0.044L47.77,51.8c0.013,0.01,0.002,0.025-0.002,0.035
			c-0.008,0.013-0.016,0.027-0.023,0.04c-0.006,0.009-0.014,0.019-0.02,0.026c-0.002,0.004-0.001,0.017,0.002,0.019
			c0.025-0.014,0.045-0.038,0.064-0.059c0.006,0,0.006,0.001,0.008,0.003c0.006,0.017-0.003,0.027-0.01,0.04
			c-0.018,0.029-0.038,0.054-0.061,0.077c0,0.009,0,0.017,0.001,0.025c0.028-0.007,0.066-0.05,0.087-0.067
			c0.008,0,0.009,0.004,0.013,0.009c0,0.023-0.06,0.088-0.075,0.104c-0.008,0.007-0.014,0.013-0.021,0.019
			c0,0.007,0.002,0.014,0.002,0.021c0.029-0.006,0.082-0.054,0.102-0.073c0.01-0.01,0.015-0.027,0.03-0.029
			c0.004,0.003,0.007,0.006,0.011,0.009c0,0.022-0.018,0.038-0.027,0.052c-0.029,0.047-0.069,0.093-0.111,0.127
			c0.004,0.062,0.008,0.121,0.011,0.182c0.046-0.041,0.091-0.081,0.136-0.121c-0.006-0.063-0.001-0.137,0.014-0.186
			c0.005-0.013,0.005-0.033,0.017-0.04c0.005-0.002,0.012,0,0.015,0.004c0.006,0.011-0.005,0.055-0.002,0.074
			c0.004,0.024,0.006,0.043,0.012,0.065c0.002,0.008,0.005,0.017,0.008,0.024c0.001,0,0.002-0.001,0.003-0.001
			c0.005-0.004,0.009-0.008,0.014-0.013c-0.011-0.035-0.001-0.09,0.007-0.121c0.002-0.012,0.001-0.026,0.011-0.031
			c0.005-0.003,0.011-0.003,0.014,0.001c0,0.012,0,0.022,0,0.034c0.001,0.025,0.003,0.062,0.015,0.077
			c0.006-0.005,0.012-0.011,0.018-0.017c0-0.038,0.007-0.109,0.022-0.127c0.005-0.002,0.011-0.004,0.016-0.006
			c0.002,0.001,0.002,0,0.003,0.003c0,0.015,0,0.029-0.001,0.045c0.002,0.015,0.003,0.029,0.005,0.044c0.002,0,0.002,0,0.004,0
			c0.003-0.004,0.007-0.007,0.011-0.012c0.001-0.007,0.001-0.015,0.002-0.021c0.005-0.018,0.017-0.072,0.027-0.08
			c0.005-0.002,0.011-0.003,0.015-0.005c0.007,0.01-0.006,0.05,0,0.068c0.002-0.001,0.004-0.004,0.006-0.006
			c0.016-0.008,0.025-0.029,0.042-0.034c0.001,0.002,0.003,0.003,0.004,0.005l0,0c-0.013,0.015-0.025,0.029-0.038,0.045
			c0.01,0,0.064,0,0.066,0.003c-0.018,0.043-0.099,0.02-0.117,0.053l0,0c0.009,0.001,0.018,0.003,0.027,0.004
			c0.018,0.003,0.05-0.005,0.064,0.002c-0.001,0.004-0.002,0.008-0.002,0.013c-0.014,0.017-0.073,0.021-0.102,0.024
			c-0.01,0-0.02,0-0.028,0c-0.006,0.007-0.011,0.013-0.017,0.021l0,0c0.02,0.003,0.044,0.008,0.066,0.012c0.015,0,0.028,0,0.043,0
			c0.001,0.001,0.002,0.002,0.003,0.004c-0.001,0.004-0.001,0.009-0.002,0.013c-0.028,0.021-0.108,0.018-0.153,0.018
			c-0.004,0.005-0.008,0.011-0.013,0.017c0.021,0.004,0.046,0.012,0.069,0.018c0.015,0,0.03,0.001,0.046,0.002
			c0.017,0.002,0.038-0.01,0.048,0c0.004,0.002,0.006,0.01,0.004,0.014c-0.007,0.013-0.033,0.013-0.049,0.017
			c-0.054,0.015-0.112,0.014-0.176,0.014c-0.04,0.045-0.08,0.089-0.12,0.134v0.001c0.06,0.003,0.12,0.007,0.18,0.01
			c0.014-0.014,0.028-0.028,0.042-0.042c0.025-0.026,0.054-0.05,0.085-0.069c0.011-0.007,0.038-0.027,0.054-0.024
			c0.003,0.002,0.006,0.005,0.008,0.008c0,0.002-0.001,0.004-0.001,0.006c-0.005,0.012-0.021,0.018-0.03,0.026
			c-0.021,0.024-0.063,0.065-0.072,0.103c0.008,0,0.014,0,0.021,0c0.022-0.03,0.052-0.055,0.085-0.077
			c0.008-0.005,0.024-0.022,0.036-0.02c0.005,0.002,0.011,0.007,0.009,0.013c-0.004,0.008-0.014,0.014-0.02,0.02
			c-0.016,0.014-0.043,0.047-0.049,0.068c0.008,0,0.016,0.001,0.023,0.001c0.009-0.008,0.018-0.016,0.025-0.023
			c0.017-0.011,0.032-0.022,0.049-0.034c0.016-0.01,0.033-0.021,0.051-0.007l0,0c-0.008,0.007-0.017,0.015-0.024,0.021
			c-0.015,0.014-0.026,0.03-0.038,0.045c0.001,0.001,0.001,0.001,0.001,0.001c0.008,0,0.015,0.003,0.018,0
			c0.026-0.013,0.073-0.063,0.107-0.043c0,0,0,0.001,0,0.003c-0.013,0.008-0.044,0.032-0.049,0.046
			c0.021,0.001,0.04,0.002,0.062,0.004c0,0.002,0,0.005,0,0.007c-0.021,0.001-0.041,0.003-0.061,0.004
			c0.014,0.018,0.033,0.03,0.047,0.047c-0.001,0.001-0.002,0.003-0.002,0.004c-0.045,0.015-0.076-0.053-0.119-0.047l0,0
			c0.011,0.017,0.023,0.031,0.036,0.045c0.007,0.007,0.015,0.014,0.022,0.022c0.001,0.006-0.007,0.009-0.012,0.011
			c-0.027-0.003-0.064-0.036-0.084-0.052c-0.008-0.008-0.018-0.017-0.025-0.023c-0.008,0-0.017,0.001-0.024,0.002
			c0.011,0.022,0.026,0.041,0.042,0.061c0.008,0.01,0.02,0.016,0.027,0.027c-0.001,0.001-0.002,0.003-0.002,0.005
			c-0.004,0.003-0.006,0.007-0.012,0.007c-0.037-0.016-0.064-0.047-0.094-0.07c-0.008-0.009-0.016-0.019-0.023-0.026
			c-0.008,0-0.014,0.001-0.021,0.001l0,0c0.023,0.037,0.043,0.07,0.072,0.101c0.008,0.007,0.033,0.019,0.03,0.031
			c-0.001,0.006-0.005,0.008-0.009,0.012c-0.021,0-0.037-0.019-0.053-0.028c-0.029-0.019-0.057-0.041-0.082-0.065
			c-0.014-0.015-0.028-0.028-0.043-0.044c-0.008-0.005-0.042,0.004-0.056,0.002c-0.042,0.004-0.083,0.006-0.126,0.008
			c0.006,0.016,0.026,0.028,0.037,0.042c0.027,0.03,0.055,0.063,0.083,0.094c0.065,0,0.188-0.001,0.225,0.03
			c-0.001,0.004-0.001,0.009-0.002,0.013c-0.017,0.006-0.042,0-0.064,0c-0.032,0.001-0.083,0.007-0.103,0.021
			c0.006,0.006,0.01,0.011,0.015,0.016c0.04-0.002,0.083-0.002,0.116,0.006c0.012,0.003,0.031,0.002,0.036,0.011
			c0.002,0.003,0.002,0.009,0.001,0.015c-0.01,0.004-0.023,0-0.035,0c-0.02,0-0.068,0.006-0.078,0.015
			c0.006,0.006,0.011,0.012,0.016,0.017c0.041-0.001,0.076,0.004,0.107,0.016c0.012,0.004,0.033,0.009,0.025,0.026
			c-0.03,0-0.064-0.001-0.092,0.004v0.001c0.018,0.029,0.116,0.014,0.119,0.059c0,0-0.001,0-0.002,0
			c-0.008,0.003-0.059-0.009-0.066,0c0.014,0.015,0.027,0.03,0.04,0.045c-0.001,0.001-0.002,0.003-0.003,0.005
			c-0.001,0-0.002,0-0.004,0c-0.014-0.013-0.028-0.025-0.043-0.039c0,0,0,0.001-0.001,0.001c-0.001,0.013-0.002,0.026-0.002,0.038
			c0.001,0.008,0.003,0.022,0.001,0.029c-0.027-0.002-0.033-0.055-0.038-0.079c-0.001-0.009-0.001-0.019-0.003-0.027
			c-0.004-0.004-0.009-0.008-0.014-0.012c0,0,0,0.001-0.001,0.001c-0.001,0.02-0.005,0.042-0.005,0.063
			c-0.001,0.011,0.004,0.022-0.003,0.025c-0.004,0-0.008,0-0.013-0.001c-0.016-0.023-0.018-0.063-0.023-0.098
			c-0.004-0.022,0.006-0.026-0.009-0.04c-0.003-0.003-0.006-0.008-0.011-0.009c-0.008,0.021-0.01,0.047-0.014,0.07
			c0,0.013,0,0.025,0.001,0.037c-0.001,0.001-0.002,0.002-0.003,0.004c-0.023,0-0.019-0.014-0.022-0.031
			c-0.009-0.035-0.009-0.082-0.008-0.122c-0.005-0.005-0.011-0.01-0.016-0.015c-0.001,0-0.001,0-0.001,0
			c-0.003,0.009-0.006,0.018-0.008,0.025c-0.004,0.019-0.006,0.037-0.01,0.055c-0.002,0.025,0.005,0.067-0.001,0.084
			c-0.003,0.001-0.011,0.004-0.016,0.001c-0.012-0.006-0.012-0.029-0.016-0.044c-0.007-0.028-0.008-0.063-0.013-0.094
			c0-0.016,0-0.031,0-0.046c-0.002-0.011-0.004-0.027,0-0.037c-0.003-0.008-0.025-0.024-0.032-0.029
			c-0.024-0.021-0.048-0.042-0.07-0.063c-0.011-0.01-0.021-0.024-0.034-0.029v0.001c-0.003,0.06-0.006,0.119-0.01,0.178
			c0.012,0.011,0.021,0.021,0.031,0.031c0.012,0.01,0.021,0.021,0.031,0.031c0.016,0.02,0.031,0.039,0.046,0.061
			c0.011,0.017,0.028,0.035,0.028,0.06c-0.004,0.003-0.006,0.007-0.012,0.007c-0.011-0.007-0.017-0.018-0.023-0.027
			c-0.014-0.013-0.027-0.026-0.042-0.039c-0.021-0.014-0.041-0.023-0.063-0.037c0,0-0.001,0-0.002,0c0,0.007,0,0.014,0,0.021
			c0.031,0.021,0.084,0.08,0.096,0.118c-0.001,0.006-0.004,0.011-0.012,0.012c-0.009-0.007-0.015-0.019-0.023-0.025
			c-0.02-0.017-0.041-0.029-0.063-0.043c-0.001,0-0.002,0.001-0.002,0.002c0,0.007-0.001,0.015-0.001,0.022
			c0.009,0.008,0.017,0.017,0.025,0.025c0.015,0.02,0.043,0.055,0.048,0.078c0.002,0.009-0.004,0.015-0.007,0.02
			c-0.001,0-0.003,0-0.003,0c-0.018-0.018-0.043-0.056-0.068-0.062c0,0.042,0.068,0.083,0.045,0.125c-0.002,0-0.004,0-0.004,0
			c-0.01-0.021-0.031-0.031-0.043-0.049c-0.001,0-0.002,0-0.002,0c-0.001,0.021-0.003,0.041-0.004,0.062
			c-0.003,0.001-0.006,0-0.008,0c-0.002-0.021-0.003-0.039-0.004-0.059h-0.001c-0.011,0.008-0.04,0.043-0.048,0.046
			c-0.016-0.022,0.021-0.068,0.033-0.088c0.004-0.004,0.008-0.009,0.012-0.014c0-0.006,0-0.013,0-0.02
			c-0.023,0.008-0.051,0.042-0.066,0.06c-0.004,0-0.005,0-0.007-0.001c-0.015-0.034,0.052-0.094,0.069-0.118
			c0-0.008-0.001-0.017-0.002-0.025l0,0c-0.022,0.01-0.043,0.027-0.061,0.042c-0.009,0.009-0.016,0.024-0.029,0.026
			c-0.004-0.002-0.006-0.006-0.01-0.01c0.002-0.024,0.06-0.085,0.075-0.103c0.007-0.006,0.015-0.012,0.021-0.019
			c0-0.007,0-0.014,0-0.021c-0.031,0.01-0.078,0.052-0.1,0.072c-0.007,0.007-0.021,0.034-0.033,0.029
			c-0.005-0.002-0.007-0.005-0.01-0.009c0.003-0.019,0.014-0.03,0.022-0.044c0.032-0.052,0.073-0.093,0.115-0.135
			c-0.004-0.06-0.008-0.12-0.012-0.18c0,0,0,0.001-0.001,0.001c-0.044,0.039-0.089,0.078-0.134,0.118
			c0.002,0.063,0.002,0.13-0.014,0.18c-0.004,0.016-0.004,0.043-0.021,0.045c-0.016-0.005-0.012-0.021-0.009-0.039
			c0.008-0.05-0.009-0.094-0.019-0.13c-0.006,0.002-0.012,0.009-0.016,0.015c0,0.046,0.004,0.119-0.016,0.152
			c-0.004,0.001-0.01,0.003-0.014,0.001c-0.001-0.001-0.002-0.002-0.004-0.004c0-0.021,0-0.104-0.016-0.109
			c-0.004,0.006-0.012,0.01-0.016,0.017c0,0.013,0,0.026-0.001,0.04c-0.005,0.026-0.01,0.097-0.04,0.093
			c-0.004-0.013,0-0.044,0-0.059c-0.001-0.012-0.003-0.021-0.005-0.033c-0.005,0.001-0.011,0.007-0.014,0.011
			c-0.001,0.011-0.003,0.021-0.005,0.032c-0.004,0.018-0.01,0.034-0.016,0.05c-0.004,0.011-0.012,0.03-0.025,0.024
			c0-0.021,0.008-0.045,0.002-0.067c-0.001,0-0.002,0-0.002,0c-0.016,0.014-0.029,0.026-0.045,0.04c0,0,0,0-0.001,0
			c-0.001-0.001-0.003-0.003-0.004-0.004c0.005-0.021,0.032-0.028,0.038-0.046c-0.013,0-0.06,0.002-0.066-0.001
			c0.004-0.044,0.106-0.022,0.117-0.056c-0.001,0-0.002,0-0.002,0c-0.017-0.006-0.041-0.005-0.063-0.005
			c-0.009,0-0.022,0.002-0.025-0.002c-0.002-0.004,0-0.009,0-0.013c0.025-0.017,0.07-0.02,0.105-0.025c0.008,0,0.017,0,0.024,0
			c0.005-0.001,0.016-0.015,0.018-0.02c-0.021-0.005-0.046-0.008-0.068-0.013c-0.014,0-0.027,0-0.04,0
			c-0.002-0.001-0.003-0.002-0.004-0.003c-0.001-0.006,0.001-0.012,0.004-0.016c0.045-0.014,0.095-0.014,0.15-0.014
			c0.004-0.005,0.011-0.01,0.013-0.018c-0.026-0.006-0.056-0.013-0.085-0.017c-0.027-0.004-0.053,0.005-0.076,0
			c-0.002-0.002-0.004-0.003-0.005-0.005c-0.001-0.026,0.028-0.023,0.05-0.028c0.027-0.007,0.063-0.009,0.094-0.013
			c0.027,0,0.054-0.001,0.081-0.001c0.04-0.044,0.079-0.089,0.119-0.134l0,0c-0.06-0.003-0.12-0.007-0.179-0.011
			c-0.012,0.012-0.021,0.021-0.032,0.032c-0.032,0.025-0.059,0.056-0.094,0.078c-0.011,0.007-0.04,0.029-0.056,0.026
			c-0.004-0.003-0.008-0.006-0.008-0.014c0.007-0.01,0.018-0.016,0.027-0.023c0.02-0.017,0.071-0.078,0.076-0.105
			c-0.004,0-0.007-0.001-0.01-0.001c-0.004,0-0.007,0-0.01,0.001c-0.008,0.01-0.017,0.019-0.024,0.027
			c-0.022,0.018-0.04,0.036-0.063,0.051c-0.01,0.005-0.021,0.021-0.035,0.018c-0.004-0.002-0.008-0.005-0.008-0.012
			c0.02-0.022,0.063-0.054,0.068-0.088c-0.002,0-0.005,0-0.006,0c-0.006,0-0.012-0.001-0.018-0.002
			c-0.006,0.002-0.013,0.016-0.019,0.02c-0.019,0.015-0.038,0.031-0.06,0.044c-0.014,0.006-0.035,0.02-0.045,0.003
			c0.002-0.008,0.014-0.016,0.021-0.021c0.015-0.012,0.03-0.031,0.04-0.048l-0.001-0.001c-0.005,0-0.011,0-0.017-0.001
			c-0.008,0.006-0.016,0.012-0.022,0.018c-0.014,0.01-0.028,0.017-0.044,0.023c-0.013,0.007-0.028,0.016-0.041,0.003
			c0,0,0-0.001,0-0.002c0.016-0.011,0.039-0.027,0.048-0.045c-0.001,0-0.001,0-0.001,0c-0.021-0.001-0.04-0.003-0.06-0.004
			c0-0.001,0-0.004,0-0.005c0.001-0.001,0.001-0.002,0.001-0.002c0.02-0.001,0.039-0.002,0.059-0.004l0,0
			c-0.007-0.008-0.013-0.015-0.018-0.021c-0.01-0.008-0.02-0.016-0.029-0.023c0.004-0.01,0.019-0.011,0.027-0.006
			c0.027,0.017,0.051,0.032,0.076,0.05c0.006,0,0.012-0.001,0.018-0.001c-0.006-0.021-0.059-0.06-0.059-0.072
			c0.004-0.002,0.009-0.007,0.015-0.006c0.021,0.002,0.069,0.041,0.084,0.054c0.007,0.007,0.015,0.014,0.021,0.021
			c0.009,0,0.017,0,0.024,0c0-0.001,0-0.001,0.001-0.001c-0.012-0.021-0.026-0.042-0.043-0.061
			c-0.007-0.009-0.024-0.015-0.025-0.029c0.003-0.004,0.007-0.006,0.011-0.009c0.012,0.001,0.018,0.01,0.026,0.015
			c0.028,0.019,0.051,0.039,0.075,0.062c0.006,0.007,0.012,0.014,0.018,0.021c0.007,0,0.018,0,0.021-0.002
			c-0.021-0.039-0.045-0.071-0.074-0.102c-0.007-0.007-0.033-0.017-0.027-0.031c0.002-0.003,0.005-0.006,0.008-0.009
			c0.021,0,0.037,0.018,0.051,0.026c0.03,0.018,0.059,0.041,0.082,0.063c0.015,0.017,0.029,0.031,0.045,0.046
			c0.017,0,0.034-0.001,0.052-0.001c0.043-0.002,0.086-0.005,0.129-0.008c-0.004-0.013-0.021-0.023-0.029-0.033
			c-0.03-0.034-0.06-0.067-0.09-0.102c-0.062,0-0.117,0.003-0.172-0.013c-0.019-0.004-0.041-0.007-0.053-0.019
			c0-0.007,0.001-0.011,0.004-0.014c0.019-0.005,0.043,0.005,0.066,0.001c0.036-0.005,0.069-0.01,0.098-0.021v-0.001
			c-0.005-0.005-0.009-0.01-0.013-0.014c-0.04,0.002-0.086,0.001-0.12-0.007c-0.013-0.003-0.028-0.001-0.034-0.012
			c-0.001-0.002-0.002-0.007,0-0.011c0.001-0.003,0.001-0.003,0.004-0.004c0.012,0,0.024,0.001,0.037,0.001
			c0.025-0.004,0.05-0.008,0.072-0.014c-0.003-0.006-0.011-0.016-0.016-0.02c-0.043,0.001-0.131-0.006-0.135-0.04
			c0.002-0.001,0.002-0.001,0.002-0.002c0.023,0,0.076,0.006,0.091-0.005c-0.003-0.004-0.007-0.008-0.011-0.013
			c-0.025,0-0.088-0.017-0.102-0.027c-0.004-0.003-0.006-0.012-0.006-0.017c0.004-0.002,0.055,0.001,0.067,0.001
			c-0.005-0.015-0.03-0.033-0.04-0.046v-0.001c0.002-0.001,0.004-0.002,0.006-0.004c0.012,0.004,0.033,0.027,0.044,0.038
			c0.001,0,0.001,0,0.001,0c0-0.014,0-0.062,0.002-0.066c0.026,0.003,0.032,0.056,0.037,0.082c0.001,0.007,0.002,0.015,0.003,0.021
			c0.005,0.006,0.009,0.01,0.013,0.014c0.001,0,0.002,0,0.002,0c0.002-0.017,0.003-0.033,0.006-0.051c0-0.014,0-0.026,0-0.039
			c0.018-0.007,0.021,0.012,0.024,0.024c0.007,0.021,0.009,0.048,0.014,0.072c0.001,0.012,0.001,0.022,0.001,0.034
			c0.006,0.006,0.012,0.011,0.018,0.017c0.01-0.006,0.012-0.055,0.014-0.07c0.003-0.013-0.004-0.029,0.002-0.041
			c0.004,0,0.008,0,0.014,0c0.016,0.016,0.025,0.119,0.018,0.151c0.004,0.007,0.01,0.011,0.016,0.016c0,0,0.001,0,0.002,0
			c0.005-0.022,0.014-0.051,0.016-0.074c0.004-0.027-0.004-0.065,0.001-0.087c0.002,0,0.003-0.001,0.005-0.003
			c0.004,0,0.008,0,0.011,0c0.013,0.006,0.013,0.028,0.017,0.043c0.008,0.033,0.008,0.072,0.014,0.111c0,0.023,0,0.045,0,0.068
			c0.045,0.04,0.09,0.08,0.135,0.12v-0.001c0.004-0.061,0.007-0.12,0.01-0.18c-0.012-0.008-0.021-0.021-0.031-0.03
			c-0.029-0.029-0.057-0.061-0.08-0.096C47.56,52.041,47.54,52.019,47.544,52c0.003-0.002,0.006-0.005,0.009-0.008
			c0.017,0.003,0.021,0.021,0.031,0.032c0.029,0.026,0.061,0.059,0.102,0.071v-0.001c0-0.006,0.001-0.012,0.002-0.018
			c-0.006-0.009-0.018-0.014-0.024-0.021c-0.021-0.021-0.038-0.042-0.055-0.067c-0.005-0.007-0.021-0.022-0.018-0.034
			c0.002-0.004,0.007-0.01,0.011-0.009c0.012,0.004,0.018,0.021,0.027,0.027c0.02,0.016,0.037,0.029,0.061,0.041
			c0.001,0,0.002,0,0.002,0c0-0.008,0-0.016,0-0.023c-0.025-0.02-0.049-0.052-0.063-0.082c-0.006-0.011-0.017-0.03-0.002-0.04
			c0.007-0.001,0.014,0.012,0.018,0.017c0.013,0.015,0.032,0.037,0.052,0.043v-0.001c0.007-0.017-0.01-0.028-0.016-0.037
			c-0.014-0.019-0.042-0.062-0.027-0.086c0.001,0,0.002,0.001,0.004,0.002c0.008,0.017,0.029,0.038,0.044,0.048
			C47.707,51.827,47.708,51.806,47.709,51.786z"/>
	</g>
	<g>
		<path fill="#FFFFFF" d="M52.453,51.786c0.004,0,0.006,0,0.006,0.002c0.002,0.019,0.004,0.038,0.006,0.057l0,0l0.002-0.002
			c0.018-0.009,0.029-0.03,0.045-0.044c0,0,0,0.001,0.002,0.001c0.012,0.01,0.002,0.025-0.004,0.035
			c-0.006,0.013-0.014,0.027-0.021,0.04c-0.008,0.009-0.014,0.019-0.02,0.026c-0.003,0.004,0,0.017,0.002,0.019
			c0.026-0.014,0.047-0.038,0.065-0.059c0.004,0,0.004,0.001,0.006,0.003c0.009,0.017-0.002,0.027-0.011,0.04
			c-0.016,0.029-0.036,0.054-0.061,0.077c0.002,0.009,0.002,0.017,0.002,0.025c0.027-0.007,0.066-0.05,0.088-0.067
			c0.006,0,0.008,0.004,0.012,0.009c0,0.023-0.061,0.088-0.075,0.104c-0.007,0.007-0.015,0.013-0.021,0.019c0,0.007,0,0.014,0,0.021
			c0.031-0.006,0.084-0.054,0.104-0.073c0.008-0.01,0.015-0.027,0.028-0.029c0.004,0.003,0.006,0.006,0.013,0.009
			c0,0.022-0.021,0.038-0.026,0.052c-0.029,0.047-0.07,0.093-0.111,0.127c0.002,0.062,0.006,0.121,0.01,0.182
			c0.045-0.041,0.09-0.081,0.135-0.121c-0.006-0.063,0-0.137,0.016-0.186c0.004-0.013,0.004-0.033,0.017-0.04
			c0.006-0.002,0.012,0,0.015,0.004c0.006,0.011-0.005,0.055,0,0.074c0.004,0.024,0.004,0.043,0.01,0.065
			c0.004,0.008,0.006,0.017,0.008,0.024c0.002,0,0.002-0.001,0.004-0.001c0.004-0.004,0.008-0.008,0.014-0.013
			c-0.01-0.035,0-0.09,0.006-0.121c0.004-0.012,0.002-0.026,0.012-0.031c0.004-0.003,0.012-0.003,0.015,0.001
			c0,0.012,0,0.022,0,0.034c0,0.025,0.002,0.062,0.017,0.077c0.006-0.005,0.01-0.011,0.018-0.017
			c-0.002-0.038,0.006-0.109,0.021-0.127c0.007-0.002,0.013-0.004,0.017-0.006c0.002,0.001,0.002,0,0.004,0.003
			c0,0.015-0.002,0.029-0.002,0.045c0.002,0.015,0.004,0.029,0.006,0.044h0.002c0.004-0.004,0.008-0.007,0.012-0.012
			c0-0.007,0.002-0.015,0.002-0.021c0.004-0.018,0.016-0.072,0.027-0.08c0.006-0.002,0.01-0.003,0.016-0.005
			c0.006,0.01-0.008,0.05,0,0.068c0.002-0.001,0.004-0.004,0.006-0.006c0.016-0.008,0.025-0.029,0.041-0.034
			c0.002,0.002,0.004,0.003,0.004,0.005l0,0c-0.014,0.015-0.025,0.029-0.039,0.045c0.012,0,0.064,0,0.068,0.003
			c-0.018,0.043-0.1,0.02-0.117,0.053l0,0c0.008,0.001,0.018,0.003,0.025,0.004c0.018,0.003,0.051-0.005,0.064,0.002
			c0,0.004,0,0.008-0.002,0.013c-0.013,0.017-0.072,0.021-0.101,0.024c-0.011,0-0.021,0-0.028,0
			c-0.007,0.007-0.013,0.013-0.02,0.021l0,0c0.021,0.003,0.046,0.008,0.068,0.012c0.014,0,0.027,0,0.041,0
			c0.002,0.001,0.002,0.002,0.004,0.004c0,0.004-0.002,0.009-0.002,0.013c-0.029,0.021-0.106,0.018-0.151,0.018
			c-0.007,0.005-0.011,0.011-0.015,0.017c0.021,0.004,0.047,0.012,0.068,0.018c0.016,0,0.031,0.001,0.047,0.002
			c0.016,0.002,0.037-0.01,0.049,0c0.002,0.002,0.006,0.01,0.002,0.014c-0.006,0.013-0.033,0.013-0.049,0.017
			c-0.053,0.015-0.113,0.014-0.176,0.014c-0.039,0.045-0.078,0.089-0.119,0.134v0.001c0.061,0.003,0.119,0.007,0.18,0.01
			c0.015-0.014,0.027-0.028,0.041-0.042c0.027-0.026,0.056-0.05,0.086-0.069c0.013-0.007,0.039-0.027,0.056-0.024
			c0.002,0.002,0.004,0.005,0.008,0.008c-0.002,0.002-0.002,0.004-0.002,0.006c-0.006,0.012-0.021,0.018-0.03,0.026
			c-0.021,0.024-0.064,0.065-0.07,0.103c0.006,0,0.014,0,0.02,0c0.023-0.03,0.053-0.055,0.084-0.077
			c0.008-0.005,0.025-0.022,0.037-0.02c0.004,0.002,0.012,0.007,0.008,0.013c-0.004,0.008-0.014,0.014-0.02,0.02
			c-0.016,0.014-0.043,0.047-0.047,0.068c0.006,0,0.016,0.001,0.022,0.001c0.009-0.008,0.017-0.016,0.022-0.023
			c0.017-0.011,0.033-0.022,0.05-0.034c0.019-0.01,0.032-0.021,0.051-0.007l0,0c-0.008,0.007-0.017,0.015-0.022,0.021
			c-0.017,0.014-0.027,0.03-0.039,0.045c0,0.001,0.002,0.001,0.002,0.001c0.006,0,0.014,0.003,0.016,0
			c0.027-0.013,0.074-0.063,0.107-0.043c0,0,0,0.001,0,0.003c-0.012,0.008-0.043,0.032-0.049,0.046
			c0.021,0.001,0.041,0.002,0.063,0.004c0,0.002,0,0.005,0,0.007c-0.02,0.001-0.041,0.003-0.061,0.004
			c0.014,0.018,0.033,0.03,0.047,0.047c-0.002,0.001-0.002,0.003-0.004,0.004c-0.043,0.015-0.076-0.053-0.117-0.047l0,0
			c0.01,0.017,0.023,0.031,0.035,0.045c0.008,0.007,0.016,0.014,0.022,0.022c0.002,0.006-0.006,0.009-0.013,0.011
			c-0.026-0.003-0.063-0.036-0.084-0.052c-0.008-0.008-0.018-0.017-0.023-0.023c-0.009,0-0.018,0.001-0.025,0.002
			c0.012,0.022,0.027,0.041,0.043,0.061c0.008,0.01,0.02,0.016,0.027,0.027c0,0.001-0.002,0.003-0.002,0.005
			c-0.005,0.003-0.007,0.007-0.015,0.007c-0.037-0.016-0.063-0.047-0.093-0.07c-0.008-0.009-0.016-0.019-0.022-0.026
			c-0.008,0-0.017,0.001-0.021,0.001l0,0c0.022,0.037,0.043,0.07,0.072,0.101c0.008,0.007,0.032,0.019,0.03,0.031
			c-0.004,0.006-0.006,0.008-0.01,0.012c-0.022,0-0.037-0.019-0.054-0.028c-0.028-0.019-0.057-0.041-0.082-0.065
			c-0.014-0.015-0.028-0.028-0.043-0.044c-0.008-0.005-0.043,0.004-0.055,0.002c-0.043,0.004-0.086,0.006-0.127,0.008
			c0.004,0.016,0.025,0.028,0.037,0.042c0.027,0.03,0.055,0.063,0.082,0.094c0.066,0,0.189-0.001,0.227,0.03
			c-0.002,0.004-0.002,0.009-0.002,0.013c-0.016,0.006-0.043,0-0.063,0c-0.033,0.001-0.084,0.007-0.104,0.021
			c0.006,0.006,0.01,0.011,0.017,0.016c0.038-0.002,0.081-0.002,0.114,0.006c0.013,0.003,0.031,0.002,0.037,0.011
			c0.002,0.003,0.002,0.009,0,0.015c-0.01,0.004-0.022,0-0.035,0c-0.02,0-0.067,0.006-0.076,0.015
			c0.005,0.006,0.011,0.012,0.018,0.017c0.038-0.001,0.073,0.004,0.104,0.016c0.013,0.004,0.033,0.009,0.025,0.026
			c-0.029,0-0.063-0.001-0.09,0.004v0.001c0.018,0.029,0.115,0.014,0.117,0.059l0,0c-0.01,0.003-0.061-0.009-0.066,0
			c0.014,0.015,0.025,0.03,0.039,0.045c-0.002,0.001-0.002,0.003-0.004,0.005c-0.002,0-0.002,0-0.004,0
			c-0.014-0.013-0.027-0.025-0.043-0.039v0.001c0,0.013-0.002,0.024-0.002,0.037c0.002,0.008,0.002,0.022,0.002,0.029
			c-0.027-0.002-0.033-0.055-0.039-0.079c0-0.008-0.002-0.019-0.002-0.026c-0.006-0.004-0.01-0.008-0.016-0.012l0,0
			c0,0.02-0.006,0.042-0.006,0.063c0,0.011,0.004,0.022-0.002,0.025c-0.004,0-0.008-0.001-0.012-0.001
			c-0.02-0.024-0.021-0.064-0.025-0.098c-0.002-0.022,0.006-0.026-0.008-0.04c-0.004-0.003-0.006-0.008-0.013-0.01
			c-0.006,0.021-0.01,0.048-0.014,0.072c0.002,0.013,0.002,0.024,0.002,0.037c-0.002,0.001-0.002,0.002-0.005,0.004
			c-0.02,0-0.018-0.014-0.02-0.031c-0.011-0.035-0.011-0.082-0.009-0.124c-0.006-0.004-0.013-0.009-0.017-0.014l-0.002,0.001
			c-0.002,0.008-0.006,0.018-0.008,0.024c-0.002,0.019-0.006,0.037-0.008,0.055c-0.004,0.025,0.004,0.067-0.002,0.084
			c-0.004,0.001-0.01,0.004-0.016,0.001c-0.012-0.006-0.012-0.03-0.016-0.044c-0.008-0.028-0.008-0.063-0.015-0.094
			c0-0.016,0-0.03,0-0.046c-0.002-0.012-0.004-0.027,0-0.038c-0.002-0.008-0.024-0.023-0.03-0.029
			c-0.023-0.021-0.049-0.042-0.07-0.063c-0.01-0.01-0.021-0.024-0.033-0.029c0,0,0,0.001-0.002,0.002
			c-0.002,0.059-0.006,0.119-0.008,0.177c0.01,0.011,0.02,0.021,0.031,0.031c0.01,0.01,0.02,0.021,0.028,0.031
			c0.019,0.02,0.031,0.04,0.048,0.061c0.01,0.015,0.028,0.035,0.028,0.06c-0.007,0.003-0.007,0.006-0.015,0.007
			c-0.012-0.007-0.016-0.019-0.022-0.027c-0.015-0.013-0.028-0.026-0.041-0.039c-0.021-0.015-0.043-0.024-0.063-0.038
			c0,0-0.002,0-0.002,0.001c0,0.006,0,0.014,0,0.021c0.031,0.021,0.084,0.08,0.098,0.118c-0.002,0.006-0.006,0.011-0.012,0.012
			c-0.01-0.007-0.017-0.019-0.025-0.025c-0.02-0.017-0.039-0.028-0.063-0.043c0,0,0,0.001-0.002,0.002c0,0.007,0,0.016,0,0.022
			c0.008,0.009,0.016,0.017,0.024,0.025c0.015,0.019,0.043,0.055,0.049,0.078c0.003,0.008-0.006,0.015-0.008,0.02
			c-0.002,0-0.002,0-0.004,0c-0.017-0.018-0.043-0.056-0.067-0.062c0,0.042,0.067,0.083,0.045,0.125c-0.002,0-0.002,0-0.004,0
			c-0.011-0.021-0.031-0.032-0.044-0.048c0,0,0,0-0.002,0c-0.002,0.021-0.002,0.04-0.004,0.062c-0.004,0-0.006,0-0.008-0.001
			c-0.003-0.02-0.003-0.039-0.005-0.059l0,0c-0.012,0.008-0.041,0.043-0.049,0.046c-0.016-0.022,0.021-0.068,0.033-0.088
			c0.004-0.004,0.008-0.009,0.014-0.014c-0.002-0.006-0.002-0.012-0.002-0.02c-0.022,0.008-0.051,0.042-0.065,0.059
			c-0.004,0-0.006,0-0.006-0.001c-0.017-0.034,0.051-0.095,0.067-0.118c0-0.008,0-0.018-0.002-0.025l0,0
			c-0.021,0.009-0.043,0.027-0.061,0.042c-0.008,0.008-0.016,0.024-0.029,0.026c-0.004-0.002-0.006-0.006-0.008-0.01
			c0-0.024,0.059-0.085,0.074-0.103c0.006-0.006,0.014-0.012,0.02-0.018c0-0.007,0-0.016,0-0.021
			c-0.031,0.008-0.078,0.052-0.1,0.072c-0.006,0.007-0.02,0.034-0.033,0.03c-0.004-0.002-0.008-0.006-0.01-0.011
			c0.004-0.018,0.014-0.029,0.023-0.044c0.031-0.052,0.074-0.091,0.115-0.134c-0.004-0.06-0.009-0.12-0.011-0.18
			c-0.002,0-0.002,0.001-0.002,0.001c-0.045,0.04-0.09,0.079-0.136,0.119c0.002,0.063,0.002,0.13-0.012,0.18
			c-0.006,0.015-0.006,0.043-0.021,0.045c-0.019-0.005-0.013-0.021-0.011-0.039c0.009-0.049-0.01-0.094-0.02-0.13
			c-0.006,0.001-0.012,0.009-0.016,0.014c0.002,0.047,0.006,0.12-0.016,0.153c-0.004,0.001-0.01,0.002-0.015,0.001
			c0-0.001-0.002-0.002-0.004-0.004c0.002-0.021,0-0.104-0.017-0.108c-0.004,0.006-0.012,0.01-0.016,0.017c0,0.013,0,0.026,0,0.04
			c-0.006,0.026-0.012,0.097-0.041,0.093c-0.004-0.012,0-0.044,0-0.059c0-0.012-0.002-0.022-0.004-0.033
			c-0.006,0.001-0.012,0.006-0.014,0.01c-0.002,0.011-0.004,0.022-0.006,0.032c-0.004,0.018-0.01,0.034-0.016,0.05
			c-0.004,0.011-0.013,0.03-0.025,0.024c0-0.021,0.008-0.045,0.002-0.067h-0.002c-0.016,0.013-0.029,0.026-0.045,0.039l0,0
			c-0.002-0.001-0.004-0.003-0.004-0.004c0.004-0.02,0.031-0.027,0.037-0.046c-0.015,0-0.062,0.002-0.066-0.001
			c0.004-0.044,0.105-0.022,0.117-0.056h-0.002c-0.016-0.006-0.041-0.005-0.063-0.005c-0.008,0-0.022,0.002-0.024-0.002
			s0-0.009,0-0.013c0.024-0.017,0.07-0.021,0.104-0.024c0.009,0,0.017,0,0.024,0c0.004-0.001,0.017-0.015,0.017-0.02
			c-0.021-0.005-0.045-0.008-0.067-0.012c-0.015,0-0.025,0-0.039,0c-0.002-0.001-0.002-0.002-0.004-0.005
			c-0.002-0.005,0.002-0.011,0.004-0.015c0.045-0.014,0.094-0.014,0.149-0.014c0.004-0.005,0.013-0.01,0.013-0.018
			c-0.025-0.006-0.056-0.013-0.084-0.017c-0.027-0.004-0.054,0.005-0.076,0c-0.002-0.001-0.004-0.003-0.004-0.004
			c-0.002-0.026,0.026-0.023,0.049-0.029c0.029-0.006,0.063-0.008,0.094-0.013c0.027,0,0.055,0,0.082-0.001
			c0.039-0.044,0.078-0.089,0.119-0.133c0,0,0,0,0-0.001c-0.061-0.003-0.119-0.007-0.18-0.011c-0.013,0.012-0.021,0.021-0.031,0.032
			c-0.033,0.026-0.06,0.055-0.094,0.078c-0.013,0.007-0.041,0.029-0.058,0.026c-0.004-0.003-0.006-0.006-0.009-0.014
			c0.009-0.01,0.02-0.016,0.027-0.023c0.021-0.017,0.072-0.078,0.076-0.105c-0.004,0-0.006,0-0.01-0.001
			c-0.004,0-0.006,0-0.01,0.001c-0.008,0.009-0.016,0.019-0.023,0.027c-0.021,0.018-0.039,0.036-0.064,0.051
			c-0.01,0.006-0.02,0.021-0.032,0.018c-0.007-0.004-0.009-0.006-0.009-0.012c0.021-0.022,0.062-0.055,0.066-0.089
			c-0.002,0-0.004,0-0.006,0c-0.004,0-0.01-0.001-0.016-0.001c-0.008,0.002-0.014,0.014-0.02,0.02
			c-0.019,0.015-0.039,0.031-0.06,0.044c-0.015,0.006-0.035,0.02-0.048,0.004c0.005-0.008,0.017-0.016,0.021-0.021
			c0.016-0.012,0.029-0.03,0.039-0.048v-0.001c-0.006,0-0.01,0-0.016,0c-0.008,0.006-0.016,0.012-0.023,0.018
			c-0.014,0.01-0.029,0.017-0.043,0.023s-0.029,0.016-0.043,0.003c0,0,0-0.001,0-0.002c0.018-0.011,0.041-0.027,0.049-0.045
			c0,0,0,0-0.002,0c-0.02-0.001-0.039-0.003-0.059-0.004c0-0.001,0-0.003,0-0.006c0,0,0-0.001,0.002-0.002
			c0.02-0.001,0.037-0.002,0.057-0.003l0,0c-0.006-0.009-0.012-0.015-0.018-0.021c-0.008-0.008-0.018-0.017-0.027-0.025
			c0.004-0.009,0.018-0.01,0.025-0.005c0.027,0.016,0.053,0.031,0.076,0.05c0.008,0,0.014,0,0.02-0.001
			c-0.006-0.021-0.059-0.06-0.059-0.071c0.004-0.002,0.008-0.008,0.014-0.007c0.021,0.003,0.07,0.041,0.084,0.054
			c0.008,0.007,0.014,0.014,0.021,0.021c0.008,0,0.018,0,0.024,0v-0.001c-0.012-0.021-0.026-0.042-0.043-0.061
			c-0.008-0.009-0.022-0.015-0.024-0.028c0.004-0.004,0.006-0.007,0.012-0.009c0.012,0.001,0.018,0.009,0.025,0.015
			c0.026,0.018,0.051,0.039,0.076,0.062c0.006,0.007,0.012,0.014,0.018,0.021c0.006,0,0.018,0,0.021-0.002
			c-0.021-0.039-0.046-0.071-0.076-0.101c-0.006-0.007-0.031-0.019-0.027-0.031c0.004-0.003,0.006-0.006,0.008-0.009
			c0.023,0,0.039,0.018,0.053,0.026c0.029,0.019,0.057,0.041,0.08,0.064c0.016,0.017,0.031,0.03,0.045,0.045
			c0.018,0,0.035-0.001,0.053-0.001c0.043-0.002,0.086-0.005,0.129-0.008c-0.004-0.013-0.021-0.023-0.028-0.033
			c-0.029-0.034-0.062-0.067-0.091-0.102c-0.063,0-0.116,0.003-0.172-0.011c-0.02-0.006-0.041-0.008-0.053-0.02
			c0-0.007,0.002-0.011,0.004-0.015c0.021-0.005,0.043,0.005,0.066,0.001c0.037-0.005,0.068-0.009,0.098-0.021c0,0,0,0,0-0.001
			c-0.004-0.005-0.008-0.009-0.014-0.014c-0.039,0.002-0.086,0.001-0.119-0.007c-0.012-0.003-0.029-0.001-0.033-0.012
			c-0.002-0.002-0.002-0.007-0.002-0.011c0.002-0.002,0.002-0.002,0.004-0.004c0.014,0,0.025,0,0.039,0
			c0.025-0.004,0.049-0.008,0.07-0.013c-0.002-0.007-0.01-0.016-0.016-0.02c-0.041,0.001-0.131-0.006-0.133-0.04
			c0,0,0-0.001,0.002-0.002c0.021,0.001,0.076,0.006,0.09-0.004c-0.004-0.004-0.008-0.008-0.01-0.013
			c-0.027,0-0.09-0.018-0.104-0.027c-0.002-0.003-0.004-0.012-0.007-0.018c0.005-0.001,0.056,0.001,0.068,0.001
			c-0.004-0.014-0.029-0.033-0.039-0.045c0-0.001,0-0.001,0-0.002c0.002-0.001,0.004-0.002,0.004-0.003
			c0.015,0.005,0.035,0.027,0.045,0.038h0.002c0-0.014-0.002-0.062,0-0.066c0.027,0.003,0.033,0.056,0.039,0.082
			c0,0.008,0,0.015,0.002,0.021c0.007,0.005,0.011,0.01,0.015,0.014l0.002-0.001c0.002-0.017,0.002-0.033,0.007-0.05
			c0-0.014,0-0.026,0-0.04c0.018-0.007,0.02,0.012,0.021,0.024c0.007,0.021,0.011,0.047,0.015,0.072
			c0.002,0.011,0.002,0.021,0.002,0.034c0.007,0.006,0.013,0.011,0.019,0.017c0.01-0.006,0.012-0.056,0.014-0.07
			c0.004-0.014-0.004-0.029,0.002-0.041c0.004-0.001,0.008-0.001,0.014,0c0.016,0.016,0.027,0.118,0.018,0.151
			c0.002,0.007,0.011,0.011,0.017,0.016c0,0,0,0,0.002,0c0.005-0.022,0.015-0.051,0.017-0.074c0.004-0.027-0.004-0.066,0.002-0.087
			c0-0.001,0.002-0.002,0.004-0.003c0.004,0,0.008,0,0.012,0c0.012,0.006,0.012,0.027,0.016,0.043
			c0.008,0.033,0.008,0.072,0.014,0.112c0,0.022,0,0.045,0,0.068c0.045,0.041,0.091,0.08,0.136,0.121v-0.001
			c0.004-0.061,0.008-0.12,0.013-0.181c-0.015-0.008-0.021-0.021-0.033-0.03c-0.029-0.03-0.058-0.061-0.08-0.097
			c-0.008-0.012-0.027-0.034-0.023-0.054c0.002-0.002,0.004-0.005,0.008-0.008c0.016,0.003,0.021,0.021,0.031,0.032
			c0.029,0.025,0.061,0.059,0.102,0.071v-0.001c0-0.006,0-0.012,0-0.018c-0.004-0.009-0.016-0.013-0.023-0.021
			c-0.02-0.021-0.036-0.043-0.053-0.067c-0.006-0.007-0.022-0.022-0.018-0.035c0-0.004,0.004-0.01,0.01-0.008
			c0.012,0.004,0.018,0.02,0.027,0.026c0.02,0.016,0.039,0.029,0.061,0.041h0.002c0-0.008,0-0.016,0.002-0.023
			c-0.026-0.02-0.051-0.052-0.063-0.082c-0.006-0.011-0.019-0.03-0.004-0.04c0.008-0.001,0.015,0.013,0.021,0.018
			c0.012,0.014,0.03,0.037,0.051,0.042c0,0,0,0,0-0.001c0.008-0.017-0.01-0.028-0.016-0.037c-0.015-0.02-0.041-0.062-0.027-0.087
			c0.002,0,0.004,0.001,0.004,0.002c0.008,0.017,0.029,0.039,0.045,0.048C52.449,51.827,52.451,51.806,52.453,51.786z"/>
	</g>
	<polygon fill="#FFFFFF" points="65.695,36.071 64.671,36.434 64.699,37.521 64.038,36.657 63.014,37.021 63.626,36.125 
		62.967,35.262 64.008,35.571 64.624,34.675 64.652,35.76 	"/>
	<polygon fill="#FFFFFF" points="67.253,34.173 66.557,34.421 66.574,35.161 66.124,34.575 65.426,34.822 65.844,34.21 
		65.393,33.623 66.102,33.832 66.521,33.221 66.54,33.963 	"/>
	<path fill="#FFFFFF" d="M59.77,37.806c0.223-0.018,0.449-0.027,0.674-0.008c0.84,0.074,1.576,0.104,2.175,0.595
		c0.452-0.109,0.896,0.01,1.282-0.219c-1.131-0.963-1.801-2.442-1.655-4.038c0.142-1.593,1.054-2.934,2.337-3.684
		c-0.725-0.615-1.639-1.021-2.654-1.111c-2.615-0.231-4.916,1.7-5.148,4.313c-0.037,0.437-0.016,0.864,0.061,1.274
		C58.251,35.3,59.371,36.408,59.77,37.806z"/>
</g>
</svg>
