<?xml version="1.0" encoding="utf-8"?>
<!-- Generator: Adobe Illustrator 16.0.0, SVG Export Plug-In . SVG Version: 6.00 Build 0)  -->
<!DOCTYPE svg PUBLIC "-//W3C//DTD SVG 1.1//EN" "http://www.w3.org/Graphics/SVG/1.1/DTD/svg11.dtd">
<svg version="1.1" id="Layer_1" xmlns="http://www.w3.org/2000/svg" xmlns:xlink="http://www.w3.org/1999/xlink" x="0px" y="0px"
	 width="102px" height="181.439px" viewBox="0 0 102 181.439" enable-background="new 0 0 102 181.439" xml:space="preserve">
<g id="Snowing_Day">
	<g id="Condition_7_">
		<g>
			<path fill="none" stroke="#FFFFFF" stroke-miterlimit="10" d="M67.208,44.594h-0.004c-0.078-2.901-2.455-5.232-5.377-5.232
				c-0.74,0-1.447,0.149-2.093,0.421c-0.389-2.729-2.733-4.825-5.567-4.825c-0.996,0-1.931,0.259-2.741,0.711
				c-1.256-1.48-3.13-2.424-5.225-2.424c-3.537,0-6.449,2.682-6.813,6.123c-0.083-0.004-0.167-0.006-0.251-0.006
				c-2.924,0-5.299,2.331-5.378,5.232h-0.007c0,0.024,0.002,0.052,0.003,0.076c-0.001,0.024-0.003,0.05-0.003,0.075
				c0,2.973,2.411,5.383,5.384,5.383c0.026,0,0.049-0.002,0.074-0.002c0.024,0,0.049,0.002,0.074,0.002h22.394
				c0.021,0,0.049-0.002,0.073-0.002c0.022,0,0.05,0.002,0.073,0.002c2.97,0,5.382-2.41,5.382-5.383c0-0.025-0.002-0.05-0.002-0.075
				C67.204,44.646,67.208,44.62,67.208,44.594z"/>
		</g>
	</g>
	<g>
		<path fill="#FFFFFF" d="M50.768,51.292c0.006,0,0.008,0,0.011,0.003c0.002,0.028,0.004,0.057,0.006,0.084h0.001
			c0.001-0.001,0.002-0.002,0.004-0.003c0.026-0.013,0.041-0.045,0.064-0.063l0.002,0.001c0.02,0.014,0.004,0.037-0.004,0.051
			c-0.01,0.02-0.021,0.04-0.032,0.059c-0.011,0.014-0.021,0.025-0.03,0.038c-0.003,0.005,0,0.024,0.002,0.028
			c0.038-0.021,0.066-0.056,0.096-0.086c0.008,0,0.008,0.002,0.012,0.005c0.01,0.023-0.004,0.04-0.016,0.058
			c-0.025,0.042-0.055,0.079-0.088,0.112c0,0.012,0.002,0.025,0.002,0.038c0.042-0.01,0.098-0.073,0.127-0.102
			c0.012,0,0.014,0.008,0.019,0.014c0,0.036-0.087,0.129-0.11,0.151c-0.01,0.01-0.02,0.019-0.03,0.027
			c0.001,0.01,0.001,0.021,0.003,0.03c0.043-0.01,0.119-0.079,0.148-0.108c0.014-0.013,0.021-0.04,0.045-0.042
			c0.005,0.004,0.01,0.009,0.014,0.014c0.001,0.031-0.025,0.055-0.039,0.075c-0.043,0.069-0.102,0.135-0.162,0.188
			c0.005,0.088,0.01,0.176,0.016,0.264c0.065-0.059,0.131-0.118,0.197-0.178c-0.009-0.089,0-0.199,0.021-0.271
			c0.006-0.02,0.006-0.05,0.024-0.058c0.007-0.003,0.016,0,0.019,0.005c0.01,0.014-0.004,0.079,0,0.108
			c0.006,0.035,0.007,0.063,0.015,0.095c0.004,0.012,0.009,0.024,0.013,0.037c0.001-0.001,0.003-0.002,0.004-0.003
			c0.007-0.006,0.014-0.012,0.021-0.02c-0.015-0.052-0.001-0.133,0.01-0.177c0.004-0.017,0.002-0.039,0.017-0.046
			c0.006-0.003,0.016-0.003,0.02,0.004c0,0.017,0,0.032,0,0.048c0,0.037,0.005,0.09,0.021,0.113
			c0.009-0.008,0.018-0.016,0.025-0.024c-0.001-0.055,0.011-0.159,0.033-0.187c0.008-0.003,0.016-0.006,0.023-0.009
			c0.003,0.002,0.003,0.002,0.005,0.004c0,0.021-0.002,0.044-0.002,0.065c0.002,0.021,0.005,0.043,0.007,0.065
			c0.002,0,0.003,0,0.005,0c0.006-0.005,0.011-0.011,0.017-0.017c0.002-0.012,0.002-0.022,0.003-0.033
			c0.006-0.027,0.023-0.104,0.04-0.117c0.008-0.002,0.015-0.005,0.021-0.008c0.01,0.015-0.01,0.074,0,0.1
			c0.003-0.002,0.006-0.005,0.009-0.008c0.022-0.011,0.035-0.043,0.061-0.051c0.003,0.002,0.005,0.005,0.007,0.007l0,0
			c-0.02,0.021-0.039,0.044-0.057,0.065c0.015,0.002,0.094,0,0.097,0.005c-0.025,0.063-0.144,0.029-0.17,0.077v0.001
			c0.013,0.003,0.024,0.005,0.037,0.007c0.027,0.004,0.075-0.008,0.096,0.003c-0.001,0.005-0.002,0.012-0.003,0.018
			c-0.019,0.025-0.107,0.032-0.148,0.037c-0.014,0-0.027,0-0.042,0c-0.008,0.01-0.017,0.02-0.025,0.029v0.001
			c0.03,0.005,0.065,0.012,0.1,0.018c0.02,0,0.041,0,0.062,0c0.001,0.002,0.003,0.004,0.004,0.005c0,0.007-0.001,0.014-0.002,0.02
			c-0.042,0.029-0.158,0.023-0.225,0.023c-0.006,0.009-0.012,0.017-0.019,0.024c0.031,0.005,0.066,0.018,0.101,0.023
			c0.022,0.001,0.045,0.003,0.067,0.004c0.024,0.003,0.056-0.014,0.071,0c0.005,0.003,0.007,0.014,0.005,0.021
			c-0.011,0.02-0.049,0.02-0.072,0.025c-0.078,0.02-0.164,0.019-0.257,0.019c-0.059,0.066-0.117,0.131-0.176,0.197l0,0
			c0.088,0.005,0.176,0.01,0.264,0.015c0.021-0.021,0.041-0.041,0.062-0.062c0.037-0.038,0.078-0.072,0.124-0.103
			c0.017-0.01,0.057-0.042,0.08-0.038c0.003,0.005,0.007,0.01,0.011,0.014c-0.001,0.003-0.001,0.005-0.001,0.009
			c-0.008,0.017-0.032,0.024-0.045,0.039c-0.032,0.036-0.093,0.097-0.104,0.148c0.011,0,0.021,0.001,0.03,0.001
			c0.032-0.045,0.076-0.081,0.123-0.111c0.012-0.007,0.037-0.035,0.053-0.028c0.009,0.002,0.017,0.009,0.015,0.018
			c-0.006,0.013-0.021,0.02-0.03,0.027c-0.021,0.021-0.063,0.069-0.071,0.103c0.012,0,0.023,0.001,0.034,0.002
			c0.012-0.013,0.024-0.024,0.036-0.036c0.025-0.018,0.047-0.033,0.072-0.05c0.024-0.015,0.049-0.031,0.074-0.012v0.001
			c-0.013,0.012-0.023,0.021-0.035,0.032c-0.021,0.02-0.039,0.043-0.056,0.067c0,0.001,0,0.002,0.002,0.002
			c0.011,0,0.021,0.002,0.024-0.001c0.039-0.02,0.105-0.095,0.156-0.063c0,0.001,0,0.002,0,0.003
			c-0.018,0.012-0.063,0.047-0.07,0.067c0.029,0.002,0.061,0.004,0.089,0.005c0,0.004,0,0.007,0,0.011
			c-0.028,0.002-0.06,0.005-0.086,0.007c0.021,0.026,0.047,0.043,0.065,0.068c0,0.002-0.002,0.004-0.004,0.007
			c-0.064,0.021-0.111-0.077-0.174-0.069v0.001c0.016,0.022,0.033,0.044,0.053,0.064c0.012,0.011,0.021,0.021,0.033,0.032
			c0.002,0.01-0.01,0.013-0.016,0.017c-0.041-0.005-0.096-0.053-0.124-0.076c-0.013-0.012-0.024-0.022-0.037-0.033
			c-0.012,0.001-0.024,0.002-0.036,0.003c0.017,0.033,0.039,0.06,0.061,0.087c0.013,0.016,0.031,0.023,0.041,0.042
			c0,0.002-0.002,0.005-0.002,0.007c-0.006,0.004-0.008,0.009-0.019,0.01c-0.053-0.021-0.093-0.066-0.135-0.103
			c-0.012-0.014-0.022-0.025-0.035-0.038c-0.011,0-0.021,0.001-0.031,0.002c0,0,0,0,0,0.001c0.034,0.054,0.063,0.102,0.106,0.146
			c0.01,0.011,0.047,0.028,0.042,0.047c-0.001,0.008-0.007,0.011-0.012,0.016c-0.032,0-0.056-0.026-0.077-0.04
			c-0.043-0.027-0.084-0.061-0.119-0.096c-0.021-0.021-0.043-0.043-0.063-0.065c-0.012-0.008-0.063,0.004-0.08,0.003
			c-0.063,0.004-0.123,0.007-0.185,0.01c0.007,0.023,0.038,0.042,0.053,0.062c0.04,0.046,0.081,0.092,0.121,0.138
			c0.096-0.001,0.276-0.003,0.33,0.044c-0.001,0.007-0.002,0.014-0.002,0.021c-0.024,0.009-0.063-0.001-0.095,0
			c-0.048,0.002-0.121,0.01-0.15,0.029c0.008,0.008,0.014,0.016,0.021,0.022c0.059-0.004,0.121-0.003,0.17,0.008
			c0.018,0.004,0.045,0.003,0.054,0.018c0.002,0.005,0.002,0.014,0,0.02c-0.013,0.005-0.034,0.001-0.052,0.001
			c-0.028,0-0.1,0.008-0.112,0.021c0.007,0.009,0.015,0.017,0.022,0.024c0.061-0.001,0.111,0.005,0.156,0.022
			c0.018,0.006,0.05,0.013,0.037,0.04c-0.043,0-0.093-0.002-0.133,0.005v0.001c0.025,0.042,0.169,0.02,0.173,0.086c0,0,0,0-0.002,0
			c-0.013,0.004-0.087-0.015-0.097,0c0.021,0.021,0.039,0.043,0.059,0.065c-0.002,0.003-0.004,0.005-0.006,0.008
			c-0.001,0-0.002,0-0.004,0c-0.021-0.02-0.042-0.038-0.063-0.058c-0.001,0-0.001,0.001-0.003,0.001
			c0,0.019-0.001,0.036-0.001,0.055c0.001,0.012,0.004,0.032,0,0.043c-0.038-0.004-0.047-0.079-0.054-0.116
			c-0.002-0.013-0.003-0.026-0.006-0.039c-0.006-0.006-0.013-0.012-0.02-0.019c-0.001,0-0.001,0-0.002,0.001
			c-0.001,0.029-0.007,0.063-0.008,0.096c0,0.014,0.006,0.032-0.004,0.038c-0.006-0.001-0.011-0.001-0.017-0.002
			c-0.024-0.034-0.027-0.094-0.035-0.144c-0.006-0.034,0.007-0.039-0.013-0.059c-0.006-0.004-0.009-0.011-0.017-0.014
			c-0.011,0.031-0.014,0.069-0.02,0.105c0,0.018,0.001,0.036,0.001,0.054c-0.002,0.002-0.003,0.004-0.004,0.005
			c-0.033,0-0.026-0.02-0.033-0.045c-0.014-0.052-0.013-0.12-0.012-0.18c-0.007-0.007-0.015-0.014-0.022-0.02
			c-0.001,0-0.002,0-0.002,0.001c-0.005,0.012-0.008,0.023-0.012,0.035c-0.004,0.027-0.01,0.055-0.014,0.081
			c-0.004,0.036,0.008,0.1-0.002,0.123c-0.004,0.003-0.015,0.006-0.021,0.002c-0.018-0.009-0.018-0.044-0.023-0.064
			c-0.01-0.041-0.012-0.091-0.02-0.137c0-0.022,0-0.046,0-0.067c-0.003-0.016-0.005-0.04,0-0.055
			c-0.003-0.012-0.037-0.035-0.047-0.043c-0.035-0.029-0.069-0.062-0.104-0.093c-0.014-0.014-0.029-0.034-0.048-0.043
			c0,0.001-0.001,0.001-0.001,0.002c-0.005,0.087-0.009,0.175-0.014,0.262c0.016,0.015,0.031,0.029,0.047,0.045
			c0.014,0.015,0.029,0.029,0.043,0.045c0.023,0.03,0.047,0.058,0.068,0.09c0.016,0.021,0.043,0.051,0.043,0.085
			c-0.006,0.004-0.01,0.009-0.02,0.011c-0.016-0.01-0.023-0.024-0.035-0.04c-0.02-0.019-0.04-0.038-0.061-0.057
			c-0.028-0.022-0.061-0.036-0.092-0.056c-0.002,0-0.002,0.001-0.002,0.001c-0.001,0.01-0.002,0.02-0.002,0.028
			c0.046,0.032,0.123,0.117,0.143,0.173c-0.004,0.01-0.008,0.018-0.018,0.019c-0.014-0.011-0.022-0.026-0.035-0.037
			c-0.029-0.025-0.06-0.043-0.093-0.064c-0.001,0.001-0.001,0.003-0.002,0.004c-0.001,0.01-0.001,0.021-0.001,0.031
			c0.012,0.014,0.025,0.025,0.037,0.038c0.021,0.027,0.063,0.079,0.07,0.115c0.003,0.012-0.006,0.021-0.011,0.028
			c-0.001,0-0.003,0-0.005,0c-0.023-0.025-0.063-0.08-0.099-0.089c-0.001,0.061,0.1,0.122,0.063,0.183
			c-0.002,0-0.004-0.001-0.005-0.001c-0.013-0.029-0.044-0.046-0.063-0.07c0,0,0,0.001-0.002,0.001
			c-0.002,0.029-0.004,0.06-0.005,0.087c-0.005,0.002-0.009,0.001-0.013,0c-0.002-0.027-0.004-0.057-0.005-0.085
			c-0.001,0-0.001,0-0.001,0c-0.016,0.013-0.06,0.063-0.071,0.067c-0.022-0.034,0.03-0.103,0.05-0.128
			c0.006-0.007,0.012-0.015,0.018-0.021c0-0.009,0-0.019,0-0.026c-0.034,0.01-0.074,0.062-0.099,0.086
			c-0.005,0-0.007-0.001-0.009-0.002c-0.023-0.051,0.074-0.139,0.102-0.173c-0.001-0.013-0.002-0.025-0.003-0.038h-0.001
			c-0.032,0.013-0.063,0.04-0.088,0.062c-0.013,0.011-0.021,0.035-0.042,0.038c-0.007-0.003-0.009-0.008-0.015-0.014
			c0.002-0.035,0.086-0.125,0.109-0.149c0.011-0.009,0.021-0.018,0.031-0.027c0-0.01-0.001-0.021-0.001-0.03
			c-0.046,0.012-0.115,0.075-0.146,0.104c-0.01,0.01-0.03,0.05-0.049,0.043c-0.007-0.003-0.01-0.008-0.015-0.013
			c0.006-0.026,0.021-0.045,0.035-0.066c0.047-0.074,0.107-0.134,0.168-0.195c-0.006-0.088-0.01-0.176-0.016-0.264
			c0,0-0.001,0.001-0.002,0.002c-0.064,0.058-0.13,0.115-0.195,0.174c0.002,0.092,0.002,0.19-0.02,0.264
			c-0.006,0.021-0.007,0.063-0.031,0.065c-0.023-0.007-0.018-0.03-0.014-0.057c0.012-0.072-0.014-0.138-0.027-0.189
			c-0.01,0.002-0.019,0.013-0.023,0.02c0.001,0.068,0.006,0.176-0.023,0.224c-0.004,0.001-0.014,0.004-0.019,0.002
			c-0.002-0.002-0.005-0.004-0.007-0.005c0.001-0.032,0-0.151-0.021-0.16c-0.007,0.01-0.019,0.014-0.023,0.023
			c0,0.019,0,0.039,0,0.058c-0.008,0.04-0.016,0.143-0.061,0.138c-0.005-0.02,0.001-0.064,0.002-0.087
			c-0.003-0.017-0.006-0.032-0.008-0.048c-0.008,0.003-0.018,0.011-0.02,0.017c-0.003,0.016-0.006,0.031-0.008,0.047
			c-0.006,0.027-0.014,0.05-0.023,0.074c-0.005,0.017-0.016,0.044-0.038,0.036c0.001-0.03,0.013-0.066,0.004-0.099
			c-0.001,0-0.003,0.001-0.004,0.001c-0.021,0.02-0.042,0.039-0.063,0.058c-0.001,0-0.002,0-0.002,0
			c-0.002-0.002-0.004-0.004-0.006-0.007c0.007-0.027,0.047-0.04,0.055-0.067c-0.018,0-0.087,0.002-0.096-0.002
			c0.006-0.064,0.155-0.031,0.17-0.08h-0.002c-0.023-0.009-0.061-0.007-0.091-0.007c-0.013,0-0.034,0.003-0.039-0.003
			c-0.002-0.005,0-0.014,0.002-0.02c0.036-0.024,0.102-0.028,0.153-0.036c0.012,0,0.023,0,0.037,0
			c0.007-0.003,0.021-0.021,0.024-0.029c-0.03-0.008-0.065-0.013-0.101-0.019c-0.02,0-0.039,0-0.059,0
			c-0.002-0.002-0.003-0.003-0.005-0.005c-0.002-0.008,0.001-0.017,0.005-0.021c0.066-0.021,0.139-0.021,0.221-0.021
			c0.006-0.008,0.016-0.014,0.019-0.024c-0.038-0.01-0.081-0.019-0.124-0.024c-0.041-0.006-0.078,0.008-0.112,0
			c-0.002-0.002-0.005-0.005-0.007-0.007c0-0.038,0.041-0.034,0.073-0.042c0.041-0.009,0.091-0.014,0.138-0.02
			c0.039,0,0.079-0.001,0.118-0.001c0.059-0.064,0.116-0.13,0.175-0.195c0,0,0,0,0-0.001c-0.087-0.006-0.175-0.01-0.263-0.015
			c-0.015,0.017-0.031,0.031-0.046,0.047c-0.047,0.038-0.086,0.081-0.138,0.115c-0.017,0.011-0.059,0.043-0.082,0.039
			c-0.006-0.004-0.01-0.009-0.011-0.019c0.01-0.015,0.025-0.023,0.039-0.035c0.029-0.023,0.105-0.114,0.111-0.155
			c-0.004,0-0.009-0.001-0.014-0.001s-0.01,0-0.015,0.001c-0.011,0.014-0.023,0.026-0.035,0.039
			c-0.032,0.026-0.058,0.053-0.093,0.075c-0.014,0.009-0.03,0.028-0.051,0.024c-0.006-0.004-0.011-0.007-0.013-0.017
			c0.029-0.034,0.092-0.08,0.101-0.13c-0.004,0-0.007,0-0.009,0c-0.008-0.001-0.016-0.001-0.024-0.002
			c-0.011,0.003-0.02,0.021-0.028,0.027c-0.027,0.022-0.057,0.048-0.088,0.064c-0.019,0.009-0.05,0.028-0.066,0.005
			c0.003-0.013,0.021-0.022,0.031-0.03c0.021-0.018,0.043-0.045,0.058-0.069c0-0.001,0-0.001-0.001-0.002
			c-0.008,0-0.015-0.001-0.023-0.001c-0.011,0.009-0.022,0.017-0.034,0.025c-0.02,0.014-0.042,0.022-0.064,0.034
			c-0.019,0.01-0.042,0.023-0.061,0.005c0-0.001,0-0.002,0-0.004c0.022-0.016,0.058-0.04,0.07-0.066c-0.001,0-0.001,0-0.002,0
			c-0.029-0.002-0.058-0.004-0.087-0.007c0-0.002,0-0.005,0-0.008c0.001-0.001,0.001-0.002,0.002-0.003
			c0.028-0.001,0.056-0.003,0.085-0.005v-0.001c-0.009-0.01-0.018-0.021-0.027-0.031c-0.013-0.012-0.027-0.023-0.041-0.037
			c0.004-0.013,0.027-0.014,0.039-0.007c0.039,0.022,0.076,0.046,0.111,0.071c0.009,0,0.018,0,0.027-0.001
			c-0.009-0.031-0.085-0.086-0.085-0.104c0.005-0.003,0.012-0.011,0.021-0.01c0.029,0.004,0.102,0.062,0.124,0.08
			c0.01,0.01,0.021,0.02,0.03,0.03c0.012,0,0.025-0.001,0.037-0.001c0.001,0,0.002-0.001,0.002-0.001
			c-0.018-0.033-0.04-0.063-0.063-0.09c-0.011-0.014-0.036-0.021-0.037-0.043c0.004-0.006,0.009-0.01,0.016-0.013
			c0.017,0.001,0.026,0.013,0.038,0.021c0.042,0.025,0.075,0.057,0.109,0.089c0.01,0.01,0.019,0.021,0.027,0.031
			c0.01,0,0.024,0.001,0.031-0.004c-0.03-0.057-0.066-0.104-0.109-0.148c-0.01-0.009-0.047-0.024-0.04-0.045
			c0.004-0.004,0.008-0.009,0.011-0.013c0.033,0,0.055,0.024,0.076,0.038c0.043,0.027,0.084,0.061,0.119,0.095
			c0.022,0.021,0.044,0.045,0.066,0.066c0.025,0,0.051-0.002,0.076-0.002c0.063-0.004,0.125-0.007,0.189-0.011
			c-0.007-0.02-0.031-0.035-0.043-0.05c-0.045-0.049-0.089-0.1-0.133-0.148c-0.092,0.001-0.172,0.004-0.252-0.017
			c-0.027-0.007-0.061-0.011-0.077-0.029c0-0.01,0.002-0.015,0.006-0.021c0.027-0.008,0.063,0.007,0.098,0.002
			c0.052-0.006,0.101-0.014,0.144-0.028c0,0,0-0.001,0-0.002c-0.007-0.007-0.014-0.014-0.02-0.021
			c-0.059,0.004-0.126,0.003-0.177-0.01c-0.017-0.004-0.042-0.002-0.048-0.016c-0.002-0.003-0.004-0.011-0.002-0.017
			c0.002-0.003,0.002-0.003,0.006-0.005c0.018,0,0.036,0,0.055,0.001c0.037-0.006,0.073-0.012,0.105-0.02
			c-0.004-0.01-0.016-0.022-0.023-0.028c-0.063,0.001-0.191-0.009-0.196-0.058c0.001-0.001,0.002-0.002,0.003-0.003
			c0.033,0.001,0.111,0.009,0.132-0.007c-0.005-0.007-0.01-0.013-0.016-0.02c-0.037,0-0.129-0.023-0.149-0.041
			c-0.005-0.004-0.008-0.017-0.009-0.024c0.005-0.002,0.08,0.002,0.1,0.002c-0.007-0.021-0.044-0.05-0.058-0.067
			c0-0.001,0-0.001,0-0.003c0.002-0.002,0.004-0.004,0.006-0.005c0.019,0.007,0.05,0.042,0.065,0.056l0.002-0.001
			c0-0.019-0.001-0.089,0.002-0.097c0.039,0.005,0.049,0.082,0.056,0.12c0.001,0.011,0.002,0.021,0.003,0.032
			c0.008,0.007,0.014,0.014,0.02,0.02c0.002,0,0.002-0.001,0.003-0.001c0.002-0.022,0.004-0.048,0.008-0.074
			c0-0.019,0-0.038,0-0.057c0.026-0.009,0.03,0.018,0.036,0.037c0.01,0.03,0.014,0.069,0.021,0.104
			c0.001,0.018,0.002,0.033,0.002,0.049c0.008,0.009,0.018,0.018,0.025,0.024c0.014-0.008,0.018-0.081,0.021-0.104
			c0.002-0.02-0.007-0.045,0.002-0.061c0.006-0.001,0.012-0.001,0.02,0c0.022,0.022,0.038,0.174,0.025,0.221
			c0.005,0.011,0.016,0.017,0.023,0.023c0,0,0.001,0,0.002-0.001c0.008-0.034,0.02-0.074,0.024-0.11
			c0.005-0.039-0.007-0.096,0.001-0.127c0.002-0.001,0.004-0.003,0.006-0.005c0.006,0,0.012,0,0.018,0
			c0.018,0.009,0.018,0.042,0.022,0.063c0.013,0.05,0.012,0.107,0.021,0.166c0,0.032,0,0.065,0,0.1
			c0.066,0.058,0.132,0.117,0.197,0.176v-0.001c0.006-0.088,0.01-0.176,0.016-0.264c-0.018-0.014-0.031-0.03-0.047-0.045
			c-0.043-0.043-0.084-0.087-0.117-0.141c-0.012-0.019-0.041-0.051-0.037-0.079c0.006-0.004,0.01-0.007,0.014-0.011
			c0.023,0.003,0.031,0.033,0.047,0.046c0.042,0.039,0.089,0.086,0.148,0.105c0,0,0-0.001,0-0.002c0-0.009,0-0.019,0.001-0.026
			c-0.007-0.013-0.024-0.02-0.034-0.03c-0.03-0.029-0.057-0.062-0.08-0.099c-0.007-0.01-0.032-0.033-0.025-0.051
			c0.002-0.005,0.009-0.015,0.016-0.012c0.018,0.005,0.025,0.028,0.039,0.039c0.029,0.022,0.056,0.044,0.09,0.062l0.002-0.001
			c0-0.012,0.001-0.023,0.001-0.035c-0.038-0.028-0.071-0.077-0.094-0.12c-0.009-0.017-0.024-0.044-0.003-0.058
			c0.01-0.001,0.02,0.019,0.026,0.024c0.019,0.021,0.048,0.055,0.075,0.063c0-0.001,0-0.001,0-0.002
			c0.011-0.024-0.014-0.042-0.023-0.053c-0.02-0.028-0.062-0.091-0.04-0.127c0.002,0,0.005,0.001,0.007,0.002
			c0.01,0.022,0.042,0.057,0.063,0.068C50.764,51.353,50.766,51.323,50.768,51.292z"/>
	</g>
	<g>
		<path fill="#FFFFFF" d="M48.691,51.686c0.004,0,0.005,0,0.007,0.002c0.001,0.017,0.002,0.032,0.003,0.05l0,0
			c0-0.001,0.001-0.001,0.002-0.002c0.016-0.008,0.024-0.027,0.038-0.038c0,0.001,0.001,0.001,0.001,0.001
			c0.011,0.008,0.002,0.021-0.002,0.03c-0.006,0.011-0.014,0.022-0.02,0.034c-0.006,0.008-0.012,0.016-0.018,0.022
			c-0.001,0.003,0,0.014,0.001,0.017c0.022-0.013,0.04-0.032,0.057-0.051c0.004,0,0.004,0.001,0.006,0.003
			c0.006,0.016-0.002,0.024-0.009,0.035c-0.015,0.025-0.033,0.046-0.052,0.066c0,0.008,0,0.015,0.001,0.021
			c0.024-0.006,0.057-0.043,0.075-0.06c0.006,0,0.007,0.004,0.011,0.008c0,0.021-0.052,0.076-0.066,0.09
			c-0.006,0.005-0.012,0.01-0.018,0.016c0,0.007,0,0.013,0.001,0.019c0.026-0.005,0.071-0.046,0.089-0.064
			c0.008-0.007,0.012-0.022,0.026-0.023c0.003,0.002,0.006,0.005,0.01,0.008c0,0.019-0.016,0.033-0.024,0.045
			c-0.025,0.041-0.061,0.08-0.096,0.111c0.003,0.052,0.006,0.104,0.009,0.157c0.04-0.035,0.079-0.07,0.118-0.105
			c-0.006-0.053-0.001-0.118,0.012-0.16c0.003-0.012,0.004-0.029,0.014-0.034c0.004-0.001,0.01,0,0.012,0.003
			c0.005,0.009-0.003,0.047-0.001,0.063c0.003,0.021,0.004,0.038,0.009,0.057c0.002,0.007,0.005,0.015,0.007,0.021
			c0,0,0.001-0.001,0.002-0.001c0.004-0.004,0.008-0.007,0.012-0.011c-0.009-0.031,0-0.079,0.005-0.105
			c0.002-0.01,0.002-0.023,0.01-0.027c0.003-0.002,0.009-0.002,0.011,0.002c0,0.01,0,0.02,0,0.029c0,0.021,0.002,0.053,0.013,0.067
			c0.005-0.004,0.011-0.01,0.016-0.015c0-0.032,0.006-0.095,0.02-0.11c0.005-0.002,0.009-0.003,0.014-0.005
			c0.001,0.001,0.001,0.001,0.003,0.003c0,0.013-0.001,0.025-0.001,0.039c0.001,0.013,0.003,0.025,0.005,0.039c0,0,0.001,0,0.002,0
			c0.003-0.004,0.007-0.007,0.01-0.011c0.001-0.006,0.001-0.013,0.002-0.019c0.003-0.017,0.013-0.063,0.023-0.069
			c0.004-0.001,0.009-0.003,0.013-0.005c0.005,0.009-0.006,0.044,0,0.06c0.001-0.002,0.003-0.004,0.005-0.005
			c0.013-0.007,0.021-0.025,0.036-0.029c0.001,0.001,0.002,0.003,0.003,0.004v0.001c-0.011,0.013-0.022,0.025-0.033,0.039
			c0.009,0,0.056,0,0.058,0.003c-0.015,0.038-0.085,0.018-0.102,0.046l0,0c0.007,0.001,0.015,0.002,0.023,0.004
			c0.016,0.002,0.044-0.004,0.056,0.001c-0.001,0.004-0.001,0.007-0.001,0.011c-0.011,0.016-0.064,0.02-0.088,0.022
			c-0.009,0-0.017,0-0.025,0c-0.005,0.005-0.01,0.011-0.015,0.017l0,0c0.018,0.003,0.039,0.006,0.059,0.01c0.013,0,0.024,0,0.037,0
			c0,0.001,0.001,0.002,0.002,0.004c0,0.003-0.001,0.007-0.001,0.011c-0.025,0.018-0.094,0.015-0.133,0.015
			c-0.004,0.004-0.007,0.009-0.011,0.014c0.019,0.004,0.04,0.011,0.059,0.015c0.014,0,0.027,0.001,0.041,0.002
			c0.014,0.002,0.033-0.008,0.042,0c0.002,0.002,0.004,0.009,0.002,0.012c-0.006,0.012-0.029,0.012-0.042,0.017
			c-0.046,0.012-0.098,0.011-0.152,0.011c-0.035,0.039-0.07,0.078-0.104,0.117l0,0c0.052,0.003,0.104,0.006,0.156,0.008
			c0.012-0.013,0.023-0.024,0.037-0.036c0.022-0.022,0.046-0.043,0.074-0.061c0.01-0.006,0.033-0.023,0.047-0.021
			c0.002,0.002,0.004,0.005,0.006,0.007c0,0.002,0,0.003,0,0.005c-0.005,0.01-0.019,0.016-0.026,0.023
			c-0.02,0.021-0.056,0.058-0.063,0.089c0.006,0,0.012,0,0.018,0c0.02-0.027,0.045-0.048,0.073-0.067
			c0.007-0.004,0.021-0.021,0.032-0.017c0.004,0.001,0.009,0.005,0.007,0.011c-0.003,0.007-0.012,0.011-0.017,0.017
			c-0.013,0.013-0.037,0.041-0.042,0.06c0.007,0,0.014,0.001,0.021,0.002c0.007-0.007,0.015-0.015,0.021-0.021
			c0.014-0.011,0.028-0.021,0.042-0.029c0.015-0.009,0.028-0.02,0.043-0.006c0,0,0,0,0,0.001c-0.007,0.006-0.014,0.012-0.021,0.019
			c-0.012,0.011-0.022,0.025-0.033,0.039v0.001c0.006,0.001,0.012,0.002,0.015,0c0.023-0.011,0.063-0.056,0.094-0.038v0.001
			c-0.011,0.007-0.039,0.029-0.043,0.041c0.018,0.001,0.036,0.002,0.053,0.003c0,0.002,0,0.004,0,0.006
			c-0.018,0.001-0.034,0.002-0.052,0.004c0.012,0.016,0.028,0.025,0.04,0.04c0,0.002-0.001,0.003-0.002,0.005
			c-0.038,0.012-0.066-0.045-0.103-0.041l0,0c0.01,0.014,0.021,0.025,0.032,0.039c0.006,0.006,0.013,0.013,0.02,0.019
			c0.001,0.005-0.005,0.008-0.01,0.01c-0.024-0.003-0.056-0.032-0.073-0.045c-0.007-0.007-0.015-0.014-0.021-0.02
			c-0.008,0-0.015,0.001-0.022,0.002c0.009,0.019,0.023,0.035,0.036,0.052c0.008,0.009,0.018,0.014,0.024,0.024
			c0,0.001,0,0.003-0.001,0.004c-0.003,0.003-0.005,0.005-0.011,0.006c-0.032-0.014-0.056-0.04-0.08-0.062
			c-0.007-0.007-0.014-0.015-0.021-0.022c-0.006,0-0.012,0.001-0.019,0.001l0,0c0.021,0.032,0.038,0.061,0.063,0.086
			c0.005,0.006,0.027,0.017,0.025,0.027c-0.001,0.005-0.004,0.006-0.007,0.009c-0.02,0-0.033-0.017-0.045-0.023
			c-0.026-0.017-0.05-0.036-0.071-0.057c-0.013-0.014-0.025-0.026-0.038-0.039c-0.007-0.004-0.037,0.003-0.048,0.002
			c-0.037,0.002-0.073,0.004-0.109,0.005c0.004,0.014,0.022,0.025,0.031,0.036c0.023,0.027,0.048,0.054,0.073,0.082
			c0.056-0.001,0.163-0.001,0.195,0.025c0,0.005,0,0.009-0.001,0.012c-0.014,0.005-0.037,0-0.057,0
			c-0.028,0.001-0.071,0.006-0.088,0.018c0.004,0.004,0.008,0.009,0.012,0.014c0.035-0.003,0.072-0.003,0.102,0.005
			c0.01,0.002,0.026,0.002,0.031,0.01c0.001,0.003,0.001,0.008,0,0.012c-0.008,0.003-0.021,0-0.031,0
			c-0.017,0-0.059,0.005-0.067,0.013c0.005,0.006,0.009,0.011,0.014,0.016c0.035,0,0.066,0.004,0.093,0.013
			c0.01,0.004,0.029,0.008,0.022,0.023c-0.026,0-0.055-0.001-0.079,0.003l0,0c0.015,0.024,0.1,0.012,0.103,0.051h-0.001
			c-0.008,0.003-0.052-0.008-0.058,0c0.012,0.014,0.023,0.026,0.035,0.039c-0.001,0.001-0.002,0.003-0.003,0.004
			c-0.001,0-0.002,0-0.003,0c-0.012-0.011-0.025-0.021-0.037-0.033c0,0,0,0-0.001,0c-0.001,0.011-0.001,0.021-0.001,0.032
			c0.001,0.007,0.002,0.02,0,0.025c-0.023-0.002-0.028-0.047-0.033-0.068c0-0.007-0.001-0.015-0.002-0.023
			c-0.004-0.003-0.008-0.007-0.012-0.01h-0.001c0,0.019-0.004,0.036-0.004,0.057c0,0.009,0.003,0.019-0.002,0.021
			c-0.003,0-0.007,0-0.011-0.001c-0.014-0.021-0.016-0.055-0.021-0.085c-0.003-0.02,0.004-0.023-0.008-0.035
			c-0.003-0.003-0.005-0.006-0.01-0.008c-0.006,0.018-0.008,0.041-0.011,0.062c0,0.011,0,0.021,0,0.032
			c0,0.001-0.001,0.002-0.003,0.003c-0.02,0-0.015-0.012-0.019-0.026c-0.008-0.031-0.008-0.071-0.007-0.107
			c-0.004-0.004-0.009-0.008-0.014-0.012c0,0,0,0-0.001,0c-0.002,0.007-0.005,0.014-0.007,0.021
			c-0.002,0.017-0.005,0.032-0.008,0.048c-0.002,0.021,0.004,0.059-0.001,0.073c-0.003,0.001-0.009,0.004-0.013,0.001
			c-0.011-0.005-0.011-0.025-0.014-0.039c-0.006-0.023-0.007-0.054-0.012-0.081c0-0.014,0-0.026,0-0.04
			c-0.002-0.009-0.003-0.023,0-0.032c-0.002-0.008-0.022-0.021-0.028-0.025c-0.021-0.018-0.042-0.037-0.062-0.055
			c-0.008-0.009-0.018-0.021-0.029-0.026v0.001c-0.002,0.052-0.005,0.104-0.007,0.154c0.009,0.009,0.018,0.018,0.027,0.026
			c0.009,0.01,0.019,0.019,0.026,0.026c0.014,0.018,0.027,0.034,0.041,0.053c0.009,0.014,0.025,0.03,0.025,0.052
			c-0.004,0.003-0.005,0.006-0.011,0.006c-0.01-0.006-0.015-0.016-0.021-0.023c-0.012-0.012-0.024-0.022-0.036-0.034
			c-0.017-0.013-0.036-0.021-0.055-0.033c-0.001,0-0.001,0.002-0.001,0.002c0,0.005,0,0.012,0,0.018
			c0.027,0.019,0.073,0.069,0.084,0.102c-0.002,0.006-0.005,0.01-0.011,0.012c-0.008-0.007-0.013-0.017-0.021-0.022
			c-0.017-0.015-0.036-0.025-0.055-0.038c0,0,0,0.001-0.001,0.002c0,0.006,0,0.013-0.001,0.02c0.008,0.007,0.015,0.015,0.022,0.021
			c0.013,0.017,0.038,0.047,0.042,0.068c0.001,0.007-0.004,0.013-0.007,0.016c0,0-0.001,0-0.002,0
			c-0.015-0.015-0.038-0.047-0.059-0.053c-0.001,0.037,0.059,0.073,0.038,0.108c0,0-0.002,0-0.003,0
			c-0.008-0.018-0.027-0.027-0.038-0.042h-0.001c-0.001,0.018-0.002,0.034-0.003,0.053c-0.003,0-0.005,0-0.007-0.001
			c-0.001-0.018-0.002-0.034-0.003-0.05l0,0c-0.01,0.007-0.035,0.038-0.042,0.04c-0.014-0.021,0.018-0.061,0.029-0.076
			c0.003-0.004,0.007-0.008,0.01-0.014c0-0.005,0-0.01,0-0.016c-0.02,0.006-0.043,0.037-0.058,0.051c-0.003,0-0.003,0-0.005-0.001
			c-0.014-0.029,0.044-0.082,0.06-0.103c0-0.007-0.001-0.016-0.001-0.022l0,0c-0.021,0.008-0.038,0.024-0.052,0.037
			c-0.007,0.007-0.014,0.021-0.025,0.023c-0.004-0.002-0.005-0.005-0.008-0.008c0-0.021,0.051-0.074,0.063-0.089
			c0.006-0.005,0.013-0.011,0.02-0.016c0-0.007,0-0.013,0-0.019c-0.027,0.007-0.068,0.043-0.087,0.063
			c-0.006,0.006-0.017,0.029-0.028,0.025c-0.004-0.002-0.006-0.005-0.009-0.009c0.003-0.016,0.013-0.026,0.021-0.038
			c0.028-0.046,0.064-0.08,0.1-0.117c-0.003-0.052-0.006-0.104-0.009-0.156l-0.001,0.001c-0.039,0.034-0.077,0.068-0.116,0.104
			c0.001,0.055,0.001,0.112-0.012,0.156c-0.004,0.013-0.004,0.038-0.019,0.039c-0.014-0.004-0.011-0.019-0.008-0.034
			c0.006-0.043-0.008-0.082-0.017-0.112c-0.006,0.002-0.011,0.008-0.014,0.012c0.001,0.041,0.004,0.104-0.014,0.133
			c-0.003,0-0.008,0.002-0.011,0.001c-0.001-0.001-0.002-0.002-0.004-0.003c0-0.02,0-0.09-0.013-0.095
			c-0.004,0.005-0.011,0.008-0.014,0.014c0,0.011,0,0.023,0,0.035c-0.004,0.023-0.009,0.084-0.035,0.081
			c-0.003-0.011,0-0.038,0-0.051c-0.001-0.009-0.002-0.02-0.004-0.028c-0.004,0.001-0.01,0.006-0.012,0.009
			c-0.001,0.011-0.002,0.02-0.004,0.028c-0.004,0.016-0.009,0.03-0.014,0.043c-0.003,0.01-0.01,0.026-0.023,0.021
			c0-0.018,0.007-0.039,0.002-0.059h-0.001c-0.013,0.012-0.026,0.023-0.039,0.034h-0.001c-0.001-0.001-0.002-0.002-0.003-0.004
			c0.004-0.017,0.027-0.024,0.033-0.04c-0.011,0-0.051,0.001-0.058-0.001c0.004-0.039,0.092-0.02,0.102-0.048c0,0-0.001,0-0.002,0
			c-0.014-0.005-0.035-0.004-0.054-0.004c-0.008,0-0.02,0.002-0.023-0.002c-0.001-0.004,0-0.009,0.001-0.012
			c0.022-0.015,0.061-0.018,0.091-0.021c0.007,0,0.015,0,0.021,0c0.004-0.001,0.014-0.014,0.015-0.018
			c-0.018-0.004-0.039-0.007-0.059-0.011c-0.012,0-0.023,0-0.035,0c-0.001-0.001-0.002-0.002-0.003-0.003
			c0-0.004,0.001-0.01,0.003-0.013c0.039-0.013,0.083-0.014,0.131-0.014c0.003-0.004,0.009-0.008,0.011-0.014
			c-0.022-0.006-0.048-0.011-0.074-0.015c-0.024-0.003-0.046,0.005-0.066,0c-0.001-0.001-0.002-0.002-0.004-0.004
			c-0.001-0.022,0.024-0.021,0.043-0.024c0.024-0.006,0.054-0.008,0.082-0.011c0.023,0,0.047,0,0.07,0
			c0.035-0.039,0.069-0.078,0.104-0.116l0,0c-0.052-0.003-0.104-0.006-0.156-0.009c-0.009,0.01-0.019,0.019-0.027,0.027
			c-0.028,0.022-0.051,0.049-0.082,0.068c-0.011,0.008-0.036,0.027-0.05,0.024c-0.003-0.002-0.006-0.006-0.006-0.012
			c0.006-0.009,0.015-0.014,0.023-0.021c0.017-0.014,0.062-0.067,0.066-0.092c-0.003,0-0.005,0-0.008,0s-0.006,0-0.008,0
			c-0.007,0.008-0.015,0.016-0.021,0.022c-0.019,0.016-0.034,0.031-0.055,0.044c-0.009,0.005-0.018,0.018-0.03,0.016
			c-0.004-0.002-0.006-0.006-0.007-0.011c0.018-0.02,0.055-0.047,0.06-0.076c-0.001,0-0.004,0-0.005,0c-0.005,0-0.01,0-0.015-0.002
			c-0.006,0.002-0.011,0.014-0.016,0.017c-0.016,0.013-0.034,0.028-0.052,0.038c-0.011,0.005-0.03,0.017-0.04,0.004
			c0.002-0.008,0.013-0.014,0.019-0.019c0.013-0.01,0.026-0.026,0.035-0.042v-0.001c-0.005,0-0.009,0-0.014,0
			c-0.007,0.006-0.013,0.011-0.02,0.017c-0.012,0.008-0.024,0.014-0.038,0.02c-0.011,0.006-0.025,0.015-0.036,0.003V52.3
			c0.014-0.011,0.035-0.023,0.042-0.04c0,0,0,0-0.001,0c-0.017-0.001-0.034-0.002-0.051-0.004c0-0.001,0-0.003,0-0.005
			c0-0.001,0-0.001,0.001-0.002c0.017-0.001,0.033-0.002,0.05-0.003l0,0c-0.005-0.006-0.011-0.012-0.016-0.019
			c-0.008-0.008-0.016-0.015-0.023-0.021c0.002-0.007,0.015-0.009,0.021-0.004c0.024,0.013,0.045,0.026,0.066,0.042
			c0.005,0,0.011,0,0.016,0c-0.006-0.019-0.051-0.051-0.051-0.063c0.003-0.002,0.007-0.006,0.012-0.006
			c0.019,0.002,0.062,0.037,0.073,0.047c0.006,0.007,0.012,0.013,0.019,0.019c0.007,0,0.015,0,0.021,0c0,0,0,0,0-0.001
			c-0.01-0.021-0.023-0.036-0.038-0.053c-0.006-0.008-0.021-0.013-0.022-0.024c0.002-0.004,0.006-0.006,0.01-0.008
			c0.009,0.001,0.015,0.008,0.021,0.013c0.024,0.016,0.044,0.034,0.065,0.053c0.005,0.007,0.011,0.013,0.016,0.019
			c0.005,0,0.015,0,0.019-0.001c-0.019-0.034-0.039-0.063-0.064-0.088c-0.006-0.006-0.028-0.016-0.024-0.026
			c0.002-0.003,0.005-0.005,0.007-0.008c0.019,0,0.033,0.015,0.045,0.021c0.026,0.018,0.05,0.036,0.071,0.058
			c0.013,0.014,0.026,0.026,0.039,0.04c0.015,0,0.03-0.001,0.045-0.001c0.038-0.002,0.075-0.004,0.112-0.006
			c-0.003-0.013-0.018-0.021-0.025-0.029c-0.026-0.029-0.052-0.06-0.079-0.088c-0.054,0.001-0.103,0.003-0.149-0.01
			c-0.016-0.005-0.036-0.007-0.045-0.018c0-0.006,0.001-0.009,0.003-0.013c0.016-0.004,0.037,0.004,0.058,0.001
			c0.031-0.004,0.06-0.007,0.085-0.018c0,0,0,0,0-0.001c-0.004-0.004-0.008-0.008-0.012-0.013c-0.034,0.002-0.074,0.001-0.104-0.005
			c-0.01-0.003-0.024-0.001-0.029-0.01c-0.001-0.002-0.002-0.006,0-0.009c0.001-0.003,0.001-0.003,0.003-0.004
			c0.011,0,0.021,0,0.032,0c0.022-0.004,0.043-0.007,0.063-0.012c-0.002-0.006-0.009-0.013-0.014-0.017
			c-0.037,0.001-0.113-0.004-0.116-0.034c0-0.001,0.001-0.002,0.001-0.002c0.019,0,0.066,0.005,0.079-0.004
			c-0.003-0.003-0.006-0.007-0.009-0.011c-0.022,0-0.077-0.016-0.088-0.024c-0.003-0.002-0.005-0.01-0.006-0.015
			c0.003-0.001,0.047,0.001,0.059,0.001c-0.004-0.013-0.025-0.028-0.034-0.04c0-0.001,0-0.001,0-0.002
			c0.001-0.001,0.002-0.002,0.004-0.003c0.011,0.004,0.03,0.024,0.039,0.033c0,0,0-0.001,0.001-0.001c0-0.011,0-0.053,0.001-0.058
			c0.023,0.003,0.028,0.049,0.033,0.071c0,0.006,0.001,0.013,0.002,0.02c0.004,0.003,0.008,0.007,0.012,0.011c0,0,0,0,0.001-0.001
			c0.001-0.014,0.002-0.027,0.005-0.044c0-0.011,0-0.021,0-0.033c0.016-0.007,0.018,0.01,0.021,0.021
			c0.005,0.019,0.008,0.042,0.011,0.063c0,0.01,0.001,0.02,0.001,0.028c0.005,0.005,0.01,0.01,0.015,0.016
			c0.008-0.005,0.011-0.049,0.013-0.062c0.002-0.012-0.004-0.027,0.001-0.036c0.003-0.001,0.007-0.001,0.011,0
			c0.014,0.014,0.023,0.104,0.015,0.131c0.003,0.006,0.009,0.01,0.014,0.015c0,0,0.001,0,0.001-0.001
			c0.004-0.021,0.012-0.043,0.014-0.065c0.003-0.022-0.003-0.057,0.001-0.076c0.001,0,0.002-0.001,0.004-0.002
			c0.003,0,0.006,0,0.009,0c0.011,0.005,0.011,0.025,0.014,0.038c0.007,0.029,0.007,0.063,0.012,0.099c0,0.02,0,0.039,0,0.06
			c0.039,0.035,0.078,0.07,0.117,0.104c0-0.001,0-0.001,0-0.001c0.002-0.052,0.005-0.104,0.009-0.155
			c-0.011-0.008-0.018-0.019-0.027-0.027c-0.025-0.025-0.049-0.052-0.07-0.083c-0.007-0.011-0.024-0.03-0.021-0.047
			c0.002-0.002,0.005-0.004,0.008-0.007c0.014,0.002,0.019,0.02,0.027,0.027c0.025,0.023,0.053,0.052,0.088,0.063v-0.001
			c0-0.005,0-0.01,0-0.016c-0.004-0.008-0.014-0.013-0.02-0.019c-0.019-0.018-0.033-0.037-0.048-0.059
			c-0.004-0.006-0.019-0.021-0.015-0.03c0.002-0.003,0.005-0.008,0.009-0.007c0.01,0.003,0.016,0.017,0.023,0.022
			c0.017,0.015,0.033,0.026,0.053,0.036h0.001c0-0.007,0-0.015,0.001-0.021c-0.022-0.018-0.042-0.045-0.056-0.071
			c-0.005-0.01-0.015-0.027-0.002-0.035c0.006-0.001,0.012,0.011,0.016,0.017c0.011,0.012,0.028,0.031,0.045,0.036v-0.001
			c0.006-0.014-0.009-0.024-0.014-0.031c-0.012-0.018-0.037-0.055-0.024-0.075c0.001,0,0.003,0.001,0.004,0.001
			c0.006,0.013,0.025,0.033,0.038,0.041C48.689,51.72,48.69,51.704,48.691,51.686z"/>
	</g>
	<g>
		<path fill="#FFFFFF" d="M52.811,51.686c0.004,0,0.006,0,0.008,0.002c0,0.017,0.002,0.032,0.002,0.05c0,0,0,0,0.002,0
			c0-0.001,0.002-0.001,0.002-0.002c0.016-0.008,0.025-0.027,0.039-0.038c0,0.001,0,0.001,0,0.001
			c0.012,0.008,0.004,0.021-0.002,0.03c-0.006,0.011-0.012,0.022-0.021,0.034c-0.006,0.008-0.012,0.016-0.019,0.022
			c-0.002,0.003,0,0.014,0.002,0.017c0.021-0.013,0.039-0.032,0.058-0.051c0.005,0,0.005,0.001,0.007,0.003
			c0.006,0.016-0.002,0.024-0.009,0.035c-0.017,0.025-0.032,0.046-0.053,0.066c0,0.008,0,0.015,0.002,0.021
			c0.022-0.006,0.058-0.043,0.073-0.06c0.006,0,0.009,0.004,0.013,0.008c-0.002,0.021-0.054,0.076-0.065,0.09
			c-0.006,0.005-0.013,0.01-0.019,0.016c0,0.007,0.002,0.013,0.002,0.019c0.024-0.005,0.069-0.046,0.088-0.064
			c0.009-0.007,0.013-0.022,0.024-0.023c0.004,0.002,0.007,0.005,0.011,0.008c0,0.019-0.017,0.033-0.022,0.045
			c-0.025,0.041-0.062,0.08-0.099,0.111c0.004,0.052,0.009,0.104,0.011,0.157c0.039-0.035,0.077-0.07,0.116-0.105
			c-0.004-0.053,0-0.118,0.015-0.16c0.004-0.012,0.004-0.029,0.014-0.034c0.004-0.001,0.01,0,0.012,0.003
			c0.006,0.009-0.004,0.047,0,0.063c0.004,0.021,0.004,0.038,0.01,0.057c0.002,0.007,0.004,0.015,0.006,0.021
			c0.002,0,0.002-0.001,0.004-0.001c0.002-0.004,0.006-0.007,0.012-0.011c-0.01-0.031-0.002-0.079,0.007-0.105
			c0.002-0.01,0-0.023,0.011-0.027c0.004-0.002,0.01-0.002,0.012,0.002c0,0.01,0,0.02,0,0.029c0,0.021,0.002,0.053,0.012,0.067
			c0.006-0.004,0.01-0.01,0.016-0.015c0-0.032,0.006-0.095,0.02-0.11c0.004-0.002,0.011-0.003,0.015-0.005
			c0.002,0.001,0.002,0.001,0.002,0.003c0,0.013,0,0.025,0,0.039c0,0.013,0.002,0.025,0.004,0.039c0,0,0.002,0,0.005,0
			c0.002-0.004,0.006-0.007,0.01-0.011c0-0.006,0-0.013,0-0.019c0.004-0.017,0.016-0.063,0.024-0.069
			c0.004-0.001,0.009-0.003,0.013-0.005c0.006,0.009-0.006,0.044,0,0.06c0.004-0.002,0.004-0.004,0.006-0.005
			c0.014-0.007,0.021-0.025,0.037-0.029c0,0.001,0.002,0.003,0.002,0.004v0.001c-0.011,0.013-0.021,0.025-0.033,0.039
			c0.01,0,0.057,0,0.059,0.003c-0.016,0.038-0.086,0.018-0.102,0.046l0,0c0.008,0.001,0.016,0.002,0.022,0.004
			c0.017,0.002,0.043-0.004,0.056,0.001c0,0.004,0,0.007,0,0.011c-0.013,0.016-0.064,0.02-0.088,0.022c-0.011,0-0.019,0-0.025,0
			c-0.006,0.005-0.01,0.011-0.016,0.017l0,0c0.018,0.003,0.039,0.006,0.059,0.01c0.012,0,0.025,0,0.037,0
			c0,0.001,0.002,0.002,0.002,0.004c0,0.003,0,0.007,0,0.011c-0.025,0.018-0.094,0.015-0.133,0.015
			c-0.004,0.004-0.008,0.009-0.012,0.014c0.018,0.004,0.038,0.011,0.059,0.015c0.014,0,0.027,0.001,0.041,0.002
			c0.014,0.002,0.033-0.008,0.041,0c0.004,0.002,0.006,0.009,0.004,0.012c-0.006,0.012-0.029,0.012-0.043,0.017
			c-0.045,0.012-0.098,0.011-0.152,0.011c-0.035,0.039-0.07,0.078-0.104,0.117l0,0c0.051,0.003,0.104,0.006,0.156,0.008
			c0.012-0.013,0.022-0.024,0.034-0.036c0.022-0.022,0.048-0.043,0.074-0.061c0.01-0.006,0.032-0.023,0.047-0.021
			c0.002,0.002,0.006,0.005,0.006,0.007s0,0.003,0,0.005c-0.004,0.01-0.021,0.016-0.024,0.023c-0.021,0.021-0.057,0.058-0.063,0.089
			c0.007,0,0.013,0,0.017,0c0.021-0.027,0.047-0.048,0.074-0.067c0.008-0.004,0.02-0.021,0.032-0.017
			c0.004,0.001,0.009,0.005,0.006,0.011c-0.002,0.007-0.012,0.011-0.017,0.017c-0.014,0.013-0.036,0.041-0.043,0.06
			c0.009,0,0.015,0.001,0.021,0.002c0.008-0.007,0.016-0.015,0.021-0.021c0.015-0.011,0.027-0.021,0.041-0.029
			c0.017-0.009,0.029-0.02,0.046-0.006c0,0,0,0,0,0.001c-0.009,0.006-0.017,0.012-0.021,0.019c-0.015,0.011-0.023,0.025-0.033,0.039
			c0,0,0,0.001,0.002,0.001c0.006,0,0.012,0.002,0.014,0c0.023-0.011,0.063-0.056,0.094-0.038v0.001
			c-0.01,0.007-0.039,0.029-0.043,0.041c0.018,0.001,0.035,0.002,0.053,0.003c0,0.002,0,0.004,0,0.006
			c-0.018,0.001-0.033,0.002-0.051,0.004c0.012,0.016,0.027,0.025,0.039,0.04c0,0.002,0,0.003-0.002,0.005
			c-0.039,0.012-0.066-0.045-0.104-0.041l0,0c0.01,0.014,0.021,0.025,0.033,0.039c0.006,0.006,0.012,0.013,0.02,0.019
			c0,0.005-0.006,0.008-0.012,0.01c-0.023-0.003-0.055-0.032-0.072-0.045c-0.008-0.007-0.014-0.014-0.021-0.02
			c-0.008,0-0.014,0.001-0.021,0.002c0.01,0.019,0.022,0.035,0.034,0.052c0.009,0.009,0.019,0.014,0.025,0.024
			c-0.002,0.001-0.002,0.003-0.002,0.004c-0.004,0.003-0.006,0.005-0.012,0.006c-0.031-0.014-0.055-0.04-0.08-0.062
			c-0.006-0.007-0.014-0.015-0.02-0.022c-0.006,0-0.014,0.001-0.021,0.001l0,0c0.021,0.032,0.037,0.061,0.063,0.086
			c0.006,0.006,0.029,0.017,0.024,0.027c0,0.005-0.004,0.006-0.006,0.009c-0.021,0-0.032-0.017-0.047-0.023
			c-0.024-0.017-0.05-0.036-0.069-0.057c-0.013-0.014-0.025-0.026-0.037-0.039c-0.009-0.004-0.037,0.003-0.05,0.002
			c-0.036,0.002-0.071,0.004-0.108,0.005c0.004,0.014,0.022,0.025,0.031,0.036c0.022,0.027,0.049,0.054,0.071,0.082
			c0.058-0.001,0.164-0.001,0.194,0.025c0,0.005,0,0.009-0.002,0.012c-0.014,0.005-0.035,0-0.055,0
			c-0.029,0.001-0.072,0.006-0.09,0.018c0.004,0.004,0.01,0.009,0.014,0.014c0.035-0.003,0.07-0.003,0.101,0.005
			c0.013,0.002,0.026,0.002,0.03,0.01c0.002,0.003,0.002,0.008,0.002,0.012c-0.008,0.003-0.02,0-0.03,0
			c-0.019,0-0.06,0.005-0.065,0.013c0.004,0.006,0.008,0.011,0.014,0.016c0.035,0,0.064,0.004,0.092,0.013
			c0.01,0.004,0.029,0.008,0.021,0.023c-0.025,0-0.056-0.001-0.078,0.003l0,0c0.016,0.024,0.1,0.012,0.104,0.051H53.25
			c-0.008,0.003-0.051-0.008-0.057,0c0.012,0.014,0.022,0.026,0.033,0.039c0,0.001-0.002,0.003-0.002,0.004c0,0-0.002,0-0.004,0
			c-0.013-0.011-0.023-0.021-0.035-0.033c-0.002,0-0.002,0-0.002,0c-0.002,0.011-0.002,0.021-0.002,0.032
			c0.002,0.007,0.002,0.02,0,0.025c-0.023-0.002-0.027-0.047-0.033-0.068c0-0.007,0-0.015-0.002-0.023
			c-0.004-0.003-0.008-0.007-0.012-0.01c0,0,0,0-0.003,0c0,0.019-0.004,0.036-0.004,0.057c0,0.009,0.004,0.019-0.002,0.021
			c-0.004,0-0.006,0-0.011-0.001c-0.016-0.021-0.018-0.055-0.02-0.085c-0.005-0.02,0.004-0.023-0.009-0.035
			c-0.004-0.003-0.006-0.006-0.01-0.008c-0.007,0.018-0.009,0.041-0.013,0.062c0,0.011,0,0.021,0,0.032c0,0.001,0,0.002-0.002,0.003
			c-0.02,0-0.016-0.012-0.02-0.026c-0.008-0.031-0.008-0.071-0.006-0.107c-0.004-0.004-0.01-0.008-0.014-0.012
			c-0.002,0-0.002,0-0.002,0c-0.002,0.007-0.004,0.014-0.006,0.021c-0.004,0.017-0.006,0.032-0.009,0.048
			c-0.004,0.021,0.005,0.059-0.002,0.073c-0.002,0.001-0.008,0.004-0.015,0.001c-0.01-0.005-0.01-0.025-0.014-0.039
			c-0.006-0.023-0.006-0.054-0.012-0.081c0-0.014,0-0.026,0-0.04c-0.002-0.009-0.002-0.023,0-0.032
			c-0.002-0.008-0.021-0.021-0.027-0.025c-0.02-0.018-0.041-0.037-0.061-0.055c-0.01-0.009-0.018-0.021-0.029-0.026v0.001
			c-0.004,0.052-0.006,0.104-0.008,0.154c0.01,0.009,0.018,0.018,0.027,0.026c0.008,0.01,0.018,0.019,0.025,0.026
			c0.014,0.018,0.026,0.034,0.041,0.053c0.008,0.014,0.022,0.03,0.022,0.052c-0.002,0.003-0.004,0.006-0.011,0.006
			c-0.01-0.006-0.014-0.016-0.02-0.023c-0.013-0.012-0.023-0.022-0.035-0.034c-0.019-0.013-0.037-0.021-0.056-0.033l-0.002,0.002
			c0,0.005,0,0.012,0,0.018c0.024,0.019,0.071,0.069,0.084,0.102c-0.002,0.006-0.006,0.01-0.013,0.012
			c-0.008-0.007-0.012-0.017-0.02-0.022c-0.018-0.015-0.035-0.025-0.055-0.038c-0.002,0-0.002,0.001-0.002,0.002
			c0,0.006,0,0.013,0,0.02c0.006,0.007,0.014,0.015,0.021,0.021c0.012,0.017,0.037,0.047,0.041,0.068
			c0.002,0.007-0.004,0.013-0.006,0.016h-0.003c-0.014-0.015-0.036-0.047-0.06-0.053c-0.002,0.037,0.06,0.073,0.037,0.108
			c0,0-0.002,0-0.004,0c-0.006-0.018-0.024-0.027-0.037-0.042c0,0,0,0-0.002,0.001c0,0.018,0,0.034-0.002,0.052
			c-0.004,0-0.006,0-0.008-0.001c0-0.018-0.002-0.034-0.004-0.05l0,0c-0.01,0.007-0.033,0.038-0.041,0.04
			c-0.014-0.021,0.018-0.061,0.029-0.076c0.004-0.004,0.006-0.008,0.01-0.014c0-0.005,0-0.01,0-0.016
			c-0.02,0.006-0.045,0.037-0.059,0.051c-0.004,0-0.004,0-0.004-0.001c-0.014-0.029,0.043-0.082,0.059-0.103
			c0-0.007,0-0.016-0.002-0.022l0,0c-0.02,0.008-0.037,0.024-0.051,0.037c-0.008,0.007-0.014,0.021-0.025,0.023
			c-0.004-0.002-0.006-0.005-0.01-0.008c0.002-0.021,0.053-0.074,0.064-0.089c0.008-0.005,0.014-0.011,0.02-0.016
			c0-0.007,0-0.013,0-0.019c-0.029,0.007-0.068,0.043-0.088,0.063c-0.006,0.006-0.016,0.029-0.027,0.025
			c-0.006-0.002-0.008-0.005-0.01-0.009c0.004-0.016,0.014-0.026,0.021-0.038c0.026-0.046,0.063-0.08,0.1-0.117
			c-0.004-0.052-0.008-0.104-0.01-0.156l-0.002,0.001c-0.039,0.034-0.076,0.068-0.115,0.104c0.002,0.055,0.002,0.112-0.012,0.156
			c-0.004,0.013-0.004,0.038-0.021,0.039c-0.015-0.004-0.01-0.019-0.008-0.034c0.008-0.043-0.009-0.082-0.017-0.112
			c-0.006,0.002-0.012,0.008-0.014,0.012c0.002,0.041,0.004,0.104-0.014,0.133c-0.004,0-0.008,0.002-0.012,0.001
			c-0.002-0.001-0.002-0.002-0.004-0.003c0-0.02,0-0.09-0.015-0.095c-0.004,0.005-0.01,0.008-0.015,0.014c0,0.011,0,0.023,0,0.035
			c-0.004,0.023-0.01,0.084-0.034,0.081c-0.004-0.011,0-0.038,0-0.051c0-0.009-0.002-0.02-0.004-0.028
			c-0.005,0.001-0.011,0.006-0.013,0.009c-0.002,0.011-0.004,0.02-0.004,0.028c-0.004,0.016-0.01,0.03-0.014,0.043
			c-0.004,0.01-0.01,0.026-0.023,0.021c0-0.018,0.006-0.039,0.002-0.059h-0.002c-0.014,0.012-0.024,0.023-0.039,0.034l0,0
			c-0.002-0.001-0.002-0.002-0.004-0.004c0.004-0.017,0.027-0.024,0.033-0.04c-0.012,0-0.051,0.001-0.057-0.001
			c0.004-0.039,0.092-0.02,0.1-0.048l0,0c-0.014-0.005-0.035-0.004-0.055-0.004c-0.008,0-0.02,0.002-0.023-0.002
			c0-0.004,0-0.009,0.002-0.012c0.021-0.015,0.062-0.018,0.09-0.021c0.009,0,0.017,0,0.021,0c0.004-0.001,0.014-0.014,0.016-0.018
			c-0.018-0.004-0.039-0.007-0.059-0.011c-0.014,0-0.025,0-0.035,0c-0.002-0.001-0.004-0.002-0.004-0.003
			c0-0.004,0-0.01,0.004-0.013c0.039-0.013,0.082-0.014,0.131-0.014c0.002-0.004,0.008-0.008,0.01-0.014
			c-0.02-0.006-0.049-0.011-0.071-0.015c-0.024-0.003-0.047,0.005-0.065,0c-0.002-0.001-0.004-0.002-0.006-0.004
			c0-0.022,0.024-0.021,0.043-0.024c0.024-0.006,0.055-0.008,0.082-0.011c0.022,0,0.047,0,0.069,0
			c0.034-0.039,0.069-0.078,0.104-0.116l0,0c-0.051-0.003-0.104-0.006-0.154-0.009c-0.01,0.01-0.02,0.019-0.027,0.027
			c-0.027,0.022-0.051,0.049-0.082,0.068c-0.01,0.006-0.035,0.025-0.049,0.023c-0.004-0.002-0.006-0.007-0.006-0.012
			c0.006-0.009,0.016-0.014,0.023-0.021c0.018-0.015,0.063-0.067,0.065-0.092c-0.004,0-0.006,0-0.011,0c-0.002,0-0.004,0-0.008,0
			c-0.006,0.008-0.014,0.016-0.021,0.022c-0.019,0.016-0.032,0.031-0.056,0.044c-0.008,0.005-0.018,0.018-0.028,0.016
			c-0.004-0.002-0.008-0.005-0.008-0.011c0.019-0.02,0.055-0.047,0.06-0.077c-0.002,0-0.005,0-0.005,0
			c-0.006-0.001-0.01-0.001-0.017-0.001c-0.006,0.001-0.01,0.014-0.016,0.017c-0.016,0.013-0.033,0.028-0.053,0.038
			c-0.01,0.006-0.029,0.017-0.039,0.003c0.002-0.007,0.014-0.013,0.02-0.018c0.015-0.011,0.025-0.026,0.035-0.042
			c-0.002,0-0.002,0-0.002-0.001c-0.004,0-0.01,0-0.014,0c-0.006,0.006-0.014,0.011-0.021,0.016
			c-0.01,0.008-0.022,0.014-0.037,0.021c-0.012,0.005-0.022,0.014-0.034,0.002c0,0,0-0.001,0-0.002
			c0.015-0.01,0.032-0.023,0.041-0.039l0,0c-0.019-0.001-0.035-0.003-0.054-0.004c0-0.002,0-0.003,0-0.005
			c0,0,0.002-0.001,0.002-0.002c0.017-0.001,0.033-0.002,0.052-0.003v-0.001c-0.007-0.006-0.013-0.012-0.017-0.019
			c-0.01-0.008-0.016-0.015-0.024-0.021c0.004-0.008,0.017-0.009,0.022-0.005c0.023,0.014,0.045,0.027,0.066,0.042
			c0.004,0,0.01,0,0.016,0c-0.006-0.02-0.051-0.052-0.051-0.063c0.004-0.002,0.008-0.006,0.012-0.005
			c0.019,0.002,0.062,0.036,0.074,0.047c0.006,0.007,0.012,0.013,0.018,0.019c0.009,0,0.017-0.001,0.021-0.001v-0.001
			c-0.01-0.021-0.023-0.037-0.037-0.054c-0.006-0.007-0.02-0.012-0.021-0.023c0.005-0.003,0.007-0.006,0.011-0.008
			c0.011,0.001,0.017,0.008,0.021,0.013c0.025,0.016,0.045,0.034,0.066,0.053c0.004,0.006,0.01,0.013,0.016,0.02
			c0.006,0,0.017,0,0.019-0.002c-0.019-0.034-0.039-0.063-0.063-0.088c-0.006-0.006-0.027-0.016-0.023-0.026
			c0.002-0.003,0.006-0.005,0.006-0.008c0.02,0,0.033,0.015,0.047,0.021c0.023,0.017,0.049,0.035,0.07,0.057
			c0.012,0.014,0.025,0.026,0.039,0.04c0.014,0,0.029-0.001,0.045-0.001c0.037-0.002,0.074-0.004,0.111-0.007
			c-0.004-0.012-0.019-0.021-0.025-0.028c-0.025-0.029-0.053-0.06-0.078-0.088c-0.055,0.001-0.102,0.002-0.148-0.01
			c-0.018-0.004-0.037-0.006-0.047-0.017c0-0.006,0.002-0.009,0.004-0.013c0.016-0.004,0.037,0.004,0.057,0.001
			c0.031-0.004,0.063-0.008,0.087-0.018v-0.001c-0.005-0.004-0.009-0.008-0.013-0.012c-0.035,0.002-0.074,0.001-0.104-0.006
			c-0.012-0.002-0.025-0.001-0.029-0.01c-0.002-0.001-0.002-0.007-0.002-0.01c0.002-0.002,0.002-0.002,0.004-0.003
			c0.012,0,0.021,0,0.031,0c0.023-0.004,0.045-0.007,0.063-0.012c0-0.006-0.008-0.013-0.012-0.017
			c-0.037,0.001-0.113-0.005-0.117-0.035c0,0,0.002-0.001,0.002-0.002c0.021,0,0.064,0.005,0.078-0.003
			c-0.002-0.004-0.006-0.007-0.01-0.012c-0.021,0-0.076-0.015-0.088-0.023c-0.002-0.002-0.004-0.01-0.004-0.015
			c0.002-0.002,0.045,0.001,0.059,0.001c-0.006-0.013-0.027-0.028-0.035-0.04V51.85c0.002-0.001,0.004-0.003,0.004-0.004
			c0.013,0.005,0.031,0.024,0.039,0.033l0,0c0-0.011,0-0.053,0.002-0.057c0.023,0.003,0.029,0.048,0.033,0.071
			c0.002,0.006,0.002,0.013,0.002,0.02c0.004,0.004,0.008,0.008,0.013,0.011c0,0,0.002,0,0.002-0.001
			c0.002-0.013,0.002-0.027,0.004-0.043c0-0.011,0-0.021,0-0.034c0.019-0.006,0.019,0.011,0.021,0.021
			c0.006,0.019,0.008,0.042,0.012,0.063c0.002,0.011,0.002,0.021,0.002,0.029c0.005,0.004,0.011,0.009,0.018,0.015
			c0.008-0.005,0.01-0.049,0.012-0.062c0.002-0.012-0.004-0.026,0.002-0.036c0.002-0.001,0.008-0.001,0.012,0
			c0.012,0.014,0.021,0.104,0.014,0.131c0.004,0.006,0.01,0.01,0.014,0.015c0.002,0,0.002,0,0.002-0.001
			c0.004-0.021,0.013-0.043,0.017-0.065c0.002-0.023-0.004-0.057,0-0.076c0,0,0.002-0.001,0.004-0.002c0.002,0,0.006,0,0.011,0
			c0.01,0.005,0.01,0.025,0.014,0.038c0.008,0.029,0.008,0.063,0.012,0.098c0,0.021,0,0.04,0,0.061
			c0.039,0.035,0.078,0.07,0.117,0.104v-0.001c0.004-0.052,0.006-0.104,0.01-0.155c-0.012-0.008-0.02-0.019-0.027-0.027
			c-0.025-0.025-0.051-0.052-0.07-0.083c-0.006-0.011-0.024-0.031-0.021-0.047c0.002-0.002,0.007-0.004,0.009-0.006
			c0.014,0.002,0.02,0.019,0.026,0.026c0.024,0.023,0.054,0.052,0.088,0.063c0,0,0,0,0-0.001c0-0.005,0-0.01,0.002-0.015
			c-0.004-0.009-0.017-0.013-0.021-0.019c-0.019-0.018-0.033-0.037-0.047-0.059c-0.004-0.006-0.021-0.021-0.017-0.03
			c0.002-0.003,0.007-0.008,0.011-0.007c0.01,0.004,0.016,0.017,0.022,0.022c0.019,0.014,0.032,0.026,0.053,0.036l0,0
			c0.003-0.007,0.003-0.014,0.003-0.021c-0.023-0.018-0.044-0.046-0.056-0.071c-0.007-0.01-0.017-0.026-0.005-0.035
			c0.009-0.001,0.015,0.011,0.02,0.016c0.01,0.012,0.026,0.031,0.045,0.036v-0.001c0.006-0.014-0.011-0.024-0.017-0.031
			c-0.013-0.018-0.035-0.055-0.022-0.075c0.002,0,0.002,0,0.004,0.001c0.006,0.014,0.024,0.033,0.037,0.041
			C52.809,51.72,52.811,51.704,52.811,51.686z"/>
	</g>
</g>
</svg>
