<?xml version="1.0" encoding="utf-8"?>
<!-- Generator: Adobe Illustrator 16.0.0, SVG Export Plug-In . SVG Version: 6.00 Build 0)  -->
<!DOCTYPE svg PUBLIC "-//W3C//DTD SVG 1.1//EN" "http://www.w3.org/Graphics/SVG/1.1/DTD/svg11.dtd">
<svg version="1.1" id="Layer_1" xmlns="http://www.w3.org/2000/svg" xmlns:xlink="http://www.w3.org/1999/xlink" x="0px" y="0px"
	 width="102px" height="181.439px" viewBox="0 0 102 181.439" enable-background="new 0 0 102 181.439" xml:space="preserve">
<g id="Day_night_vector_3_">
	<g id="Day_night_vector">
		<g>
			<path fill="#FFFFFF" d="M40.25,161.837c-0.064-0.32-0.069-0.643-0.021-0.956l-1.334,0.509L40.25,161.837z"/>
			<path fill="#FFFFFF" d="M43.364,158.583l-0.508-1.333l-0.448,1.354C42.728,158.54,43.051,158.534,43.364,158.583z"/>
			<path fill="#FFFFFF" d="M44.73,158.997l0.741-1.073l-1.19,0.783C44.57,158.855,44.515,158.765,44.73,158.997z"/>
			<path fill="#FFFFFF" d="M40.659,159.774c0.175-0.265,0.397-0.498,0.661-0.69l-1.302-0.583L40.659,159.774z"/>
			<path fill="#FFFFFF" d="M40.146,164.227l1.275-0.641c-0.264-0.176-0.499-0.397-0.691-0.661L40.146,164.227z"/>
			<path fill="#FFFFFF" d="M42.26,163.359c-0.528-0.204-1.091-0.609-1.337-1.169c-0.492-1.116,0.015-2.422,1.131-2.914
				c0.712-0.312,1.5-0.221,2.104,0.177"/>
		</g>
		<g>
			<path fill="#FFFFFF" d="M42.012,165.56c0,0,0.002-0.12,0.006-0.347c0.016-0.226-0.017-0.559,0.051-0.979
				c0.026-0.211,0.056-0.443,0.087-0.698c0.056-0.25,0.117-0.521,0.182-0.811c0.155-0.571,0.381-1.206,0.711-1.862
				c0.349-0.645,0.768-1.328,1.33-1.959c0.536-0.653,1.223-1.237,1.985-1.758c0.768-0.517,1.647-0.911,2.569-1.215
				c0.937-0.285,1.904-0.419,2.918-0.446c0.945,0.025,1.969,0.161,2.892,0.446c0.922,0.304,1.801,0.698,2.569,1.215
				c0.762,0.521,1.449,1.104,1.984,1.758c0.563,0.631,0.98,1.314,1.33,1.959c0.329,0.655,0.557,1.289,0.711,1.862
				c0.064,0.289,0.125,0.561,0.182,0.811c0.031,0.254,0.062,0.486,0.088,0.696c0.068,0.419,0.035,0.757,0.051,0.98
				c0.005,0.227,0.007,0.347,0.007,0.347s-0.011-0.12-0.028-0.346c-0.029-0.224-0.019-0.558-0.111-0.97
				c-0.039-0.206-0.084-0.436-0.131-0.684c-0.07-0.242-0.146-0.505-0.229-0.784c-0.189-0.552-0.451-1.152-0.786-1.781
				c-0.362-0.613-0.79-1.262-1.354-1.85c-0.537-0.611-1.221-1.142-1.949-1.637c-0.74-0.486-1.586-0.852-2.467-1.132
				c-0.899-0.261-1.801-0.374-2.782-0.396c-0.915,0.02-1.873,0.134-2.758,0.395c-0.881,0.281-1.726,0.646-2.466,1.133
				c-0.729,0.495-1.413,1.022-1.951,1.636c-0.564,0.588-0.992,1.235-1.354,1.85c-0.335,0.63-0.597,1.23-0.786,1.781
				c-0.082,0.28-0.158,0.543-0.229,0.785c-0.047,0.248-0.09,0.477-0.129,0.682c-0.094,0.411-0.082,0.748-0.112,0.972
				C42.022,165.439,42.012,165.56,42.012,165.56z"/>
		</g>
		<path fill="#FFFFFF" d="M63.35,160.463c-0.32,0.864-1.279,1.313-2.148,0.991c-0.402-0.146-0.711-0.429-0.898-0.775
			c0.094,0.684,0.551,1.298,1.248,1.552c0.996,0.365,2.102-0.146,2.473-1.143c0.365-1.002-0.148-2.107-1.146-2.474
			c-0.002-0.003-0.008-0.009-0.015-0.007C63.378,159.05,63.6,159.786,63.35,160.463z"/>
	</g>
</g>
</svg>
