<?xml version="1.0" encoding="utf-8"?>
<!-- Generator: Adobe Illustrator 16.0.0, SVG Export Plug-In . SVG Version: 6.00 Build 0)  -->
<!DOCTYPE svg PUBLIC "-//W3C//DTD SVG 1.1//EN" "http://www.w3.org/Graphics/SVG/1.1/DTD/svg11.dtd">
<svg version="1.1" id="Layer_1" xmlns="http://www.w3.org/2000/svg" xmlns:xlink="http://www.w3.org/1999/xlink" x="0px" y="0px"
	 width="102px" height="181.439px" viewBox="0 0 102 181.439" enable-background="new 0 0 102 181.439" xml:space="preserve">
<g id="Thunderstorm_day">
	<g id="Condition_3_">
		<g>
			<path fill="none" stroke="#FFFFFF" stroke-miterlimit="10" d="M67.316,44.631h-0.002c-0.078-2.958-2.49-5.332-5.451-5.332
				c-0.75,0-1.469,0.154-2.12,0.431c-0.392-2.781-2.771-4.919-5.642-4.919c-1.008,0-1.955,0.264-2.779,0.725
				c-1.271-1.51-3.173-2.47-5.296-2.47c-3.585,0-6.534,2.732-6.903,6.239c-0.085-0.004-0.169-0.006-0.255-0.006
				c-2.962,0-5.371,2.375-5.451,5.332h-0.003c0,0.026,0.001,0.053,0.002,0.077c-0.001,0.026-0.002,0.051-0.002,0.077
				c0,3.03,2.442,5.485,5.456,5.485c0.025,0,0.05-0.001,0.075-0.001c0.024,0,0.05,0.001,0.075,0.001h22.693
				c0.022,0,0.05-0.001,0.075-0.001c0.021,0,0.049,0.001,0.074,0.001c3.011,0,5.453-2.454,5.453-5.485
				c0-0.026-0.002-0.051-0.002-0.077C67.316,44.683,67.316,44.657,67.316,44.631z"/>
		</g>
	</g>
	<polygon fill="#FFFFFF" points="46.178,51.509 45.63,51.509 44.868,52.275 45.672,52.275 44.362,53.592 46.58,52.018 
		45.672,52.018 	"/>
	<polygon fill="#FFFFFF" points="51.15,51.509 50.602,51.509 49.84,52.275 50.645,52.275 49.334,53.592 51.553,52.018 
		50.645,52.018 	"/>
	<polygon fill="#FFFFFF" points="55.547,51.405 54.998,51.405 54.236,52.17 55.041,52.17 53.73,53.488 55.947,51.914 55.041,51.914 
			"/>
</g>
</svg>
