<?xml version="1.0" encoding="utf-8"?>
<!-- Generator: Adobe Illustrator 16.0.0, SVG Export Plug-In . SVG Version: 6.00 Build 0)  -->
<!DOCTYPE svg PUBLIC "-//W3C//DTD SVG 1.1//EN" "http://www.w3.org/Graphics/SVG/1.1/DTD/svg11.dtd">
<svg version="1.1" id="Layer_1" xmlns="http://www.w3.org/2000/svg" xmlns:xlink="http://www.w3.org/1999/xlink" x="0px" y="0px"
	 width="102px" height="181.439px" viewBox="0 0 102 181.439" enable-background="new 0 0 102 181.439" xml:space="preserve">
<g id="Thunderstorm_night">
	<g id="Condition_22_">
		<g>
			<path fill="none" stroke="#FFFFFF" stroke-miterlimit="10" d="M67.35,44.621h-0.002c-0.076-2.873-2.433-5.179-5.324-5.179
				c-0.732,0-1.434,0.148-2.072,0.417c-0.381-2.702-2.704-4.778-5.51-4.778c-0.985,0-1.91,0.256-2.715,0.705
				c-1.244-1.467-3.1-2.4-5.173-2.4c-3.502,0-6.383,2.655-6.743,6.063c-0.083-0.004-0.166-0.006-0.249-0.006
				c-2.894,0-5.247,2.306-5.325,5.179h-0.003c0,0.025,0.001,0.05,0.002,0.075c-0.001,0.024-0.002,0.049-0.002,0.074
				c0,2.942,2.385,5.327,5.33,5.327c0.024,0,0.049-0.001,0.074-0.001c0.023,0,0.048,0.001,0.073,0.001h22.168
				c0.022,0,0.05-0.001,0.073-0.001s0.049,0.001,0.072,0.001c2.941,0,5.326-2.384,5.326-5.327c0-0.025,0-0.05,0-0.074
				C67.35,44.671,67.35,44.646,67.35,44.621z"/>
		</g>
	</g>
	<polygon fill="#FFFFFF" points="50.845,51.023 50.141,51.023 49.165,52 50.195,52 48.516,53.678 51.36,51.673 50.195,51.673 	"/>
	<path fill="#FFFFFF" d="M60.064,37.529c0.252-0.044,0.504-0.077,0.765-0.077c0.959,0,1.844,0.289,2.575,0.789
		c0.5-0.17,0.97-0.408,1.392-0.708c-1.383-0.982-2.289-2.597-2.289-4.425c0-1.827,0.906-3.441,2.289-4.425
		c-0.883-0.628-1.964-0.996-3.129-0.996c-2.993,0-5.419,2.427-5.419,5.421c0,0.5,0.068,0.982,0.195,1.442
		C58.088,34.829,59.471,35.979,60.064,37.529z"/>
</g>
</svg>
